<ttFont>
<head>
    <!-- Most of this table will be recalculated by the compiler -->
    <tableVersion value="1.0"/>
    <fontRevision value="0.00099"/>
    <checkSumAdjustment value="0x4c87de65"/>
    <magicNumber value="0x5f0f3cf5"/>
    <flags value="00000000 00001001"/>
    <unitsPerEm value="1000"/>
    <created value="Mon Dec  9 07:21:43 2024"/>
    <modified value="Mon Dec 16 15:34:27 2024"/>
    <xMin value="-338"/>
    <yMin value="-350"/>
    <xMax value="1347"/>
    <yMax value="1230"/>
    <macStyle value="00000000 00000000"/>
    <lowestRecPPEM value="8"/>
    <fontDirectionHint value="2"/>
    <indexToLocFormat value="1"/>
    <glyphDataFormat value="0"/>
  </head>
    <TTGlyph name=".notdef" xMin="243" yMin="10" xMax="733" yMax="804">
      <contour>
        <pt x="421" y="216" on="1"/>
        <pt x="421" y="287" on="1"/>
        <pt x="497" y="287" on="1"/>
        <pt x="497" y="216" on="1"/>
      </contour>
      <contour>
        <pt x="421" y="631" on="1"/>
        <pt x="426" y="631" on="0"/>
        <pt x="434" y="631" on="1"/>
        <pt x="488" y="631" on="0"/>
        <pt x="563" y="556" on="0"/>
        <pt x="563" y="503" on="1"/>
        <pt x="563" y="467" on="0"/>
        <pt x="527" y="407" on="0"/>
        <pt x="497" y="390" on="1"/>
        <pt x="497" y="332" on="1"/>
        <pt x="421" y="332" on="1"/>
        <pt x="421" y="374" on="1"/>
        <pt x="421" y="437" on="1"/>
        <pt x="421" y="451" on="1"/>
        <pt x="427" y="449" on="0"/>
        <pt x="434" y="449" on="1"/>
        <pt x="456" y="449" on="0"/>
        <pt x="488" y="480" on="0"/>
        <pt x="488" y="503" on="1"/>
        <pt x="488" y="525" on="0"/>
        <pt x="456" y="556" on="0"/>
        <pt x="434" y="556" on="1"/>
        <pt x="427" y="556" on="0"/>
        <pt x="421" y="554" on="1"/>
      </contour>
      <contour>
        <pt x="308" y="742" on="1"/>
        <pt x="302" y="742" on="0"/>
        <pt x="293" y="733" on="0"/>
        <pt x="293" y="727" on="1"/>
        <pt x="293" y="91" on="1"/>
        <pt x="293" y="85" on="0"/>
        <pt x="302" y="76" on="0"/>
        <pt x="308" y="76" on="1"/>
        <pt x="670" y="76" on="1"/>
        <pt x="676" y="76" on="0"/>
        <pt x="685" y="85" on="0"/>
        <pt x="685" y="91" on="1"/>
        <pt x="685" y="727" on="1"/>
        <pt x="685" y="733" on="0"/>
        <pt x="676" y="742" on="0"/>
        <pt x="670" y="742" on="1"/>
      </contour>
      <contour>
        <pt x="258" y="804" on="1"/>
        <pt x="718" y="804" on="1"/>
        <pt x="724" y="804" on="0"/>
        <pt x="733" y="795" on="0"/>
        <pt x="733" y="789" on="1"/>
        <pt x="733" y="25" on="1"/>
        <pt x="733" y="19" on="0"/>
        <pt x="724" y="10" on="0"/>
        <pt x="718" y="10" on="1"/>
        <pt x="258" y="10" on="1"/>
        <pt x="252" y="10" on="0"/>
        <pt x="243" y="19" on="0"/>
        <pt x="243" y="25" on="1"/>
        <pt x="243" y="789" on="1"/>
        <pt x="243" y="795" on="0"/>
        <pt x="252" y="804" on="0"/>
      </contour>
    </TTGlyph>
    <TTGlyph name="A" xMin="50" yMin="10" xMax="702" yMax="779">
      <contour>
        <pt x="550" y="10" on="1"/>
        <pt x="461" y="238" on="1"/>
        <pt x="461" y="237" on="1"/>
        <pt x="261" y="237" on="1"/>
        <pt x="202" y="10" on="1"/>
        <pt x="50" y="10" on="1"/>
        <pt x="266" y="779" on="1"/>
        <pt x="418" y="779" on="1"/>
        <pt x="702" y="10" on="1"/>
      </contour>
      <contour>
        <pt x="407" y="377" on="1"/>
        <pt x="357" y="545" on="1"/>
        <pt x="297" y="377" on="1"/>
      </contour>
    </TTGlyph>
    <TTGlyph name="A.0" xMin="0" yMin="10" xMax="652" yMax="779">
      <contour>
        <pt x="500" y="10" on="1"/>
        <pt x="652" y="10" on="1"/>
        <pt x="368" y="779" on="1"/>
        <pt x="216" y="779" on="1"/>
        <pt x="0" y="10" on="1"/>
        <pt x="152" y="10" on="1"/>
        <pt x="211" y="237" on="1"/>
        <pt x="411" y="237" on="1"/>
        <pt x="411" y="238" on="1"/>
      </contour>
      <contour>
        <pt x="357" y="377" on="1"/>
        <pt x="247" y="377" on="1"/>
        <pt x="307" y="545" on="1"/>
      </contour>
    </TTGlyph>
    <TTGlyph name="A.1" xMin="48" yMin="-2" xMax="704" yMax="772">
      <contour>
        <pt x="461" y="231" on="1"/>
        <pt x="460" y="231" on="0"/>
        <pt x="459" y="230" on="1"/>
        <pt x="261" y="230" on="1"/>
        <pt x="259" y="230" on="0"/>
        <pt x="259" y="228" on="1"/>
        <pt x="200" y="2" on="1"/>
        <pt x="53" y="2" on="1"/>
        <pt x="268" y="766" on="1"/>
        <pt x="416" y="766" on="1"/>
        <pt x="698" y="2" on="1"/>
        <pt x="552" y="2" on="1"/>
        <pt x="463" y="229" on="1"/>
        <pt x="463" y="231" on="0"/>
      </contour>
      <contour>
        <pt x="301" y="370" on="1"/>
        <pt x="357" y="527" on="1"/>
        <pt x="403" y="370" on="1"/>
      </contour>
      <contour>
        <pt x="407" y="364" on="1"/>
        <pt x="409" y="364" on="0"/>
        <pt x="409" y="367" on="1"/>
        <pt x="409" y="367" on="0"/>
        <pt x="409" y="368" on="1"/>
        <pt x="360" y="536" on="1"/>
        <pt x="359" y="538" on="0"/>
        <pt x="357" y="538" on="1"/>
        <pt x="355" y="538" on="0"/>
        <pt x="355" y="536" on="1"/>
        <pt x="295" y="368" on="1"/>
        <pt x="295" y="367" on="0"/>
        <pt x="295" y="367" on="1"/>
        <pt x="295" y="364" on="0"/>
        <pt x="297" y="364" on="1"/>
      </contour>
      <contour>
        <pt x="202" y="-2" on="1"/>
        <pt x="204" y="-2" on="0"/>
        <pt x="204" y="-1" on="1"/>
        <pt x="263" y="224" on="1"/>
        <pt x="460" y="224" on="1"/>
        <pt x="548" y="-1" on="1"/>
        <pt x="548" y="-2" on="0"/>
        <pt x="550" y="-2" on="1"/>
        <pt x="702" y="-2" on="1"/>
        <pt x="704" y="-2" on="0"/>
        <pt x="704" y="0" on="1"/>
        <pt x="704" y="0" on="0"/>
        <pt x="704" y="1" on="1"/>
        <pt x="420" y="770" on="1"/>
        <pt x="420" y="772" on="0"/>
        <pt x="418" y="772" on="1"/>
        <pt x="266" y="772" on="1"/>
        <pt x="264" y="772" on="0"/>
        <pt x="264" y="770" on="1"/>
        <pt x="48" y="1" on="1"/>
        <pt x="48" y="0" on="0"/>
        <pt x="48" y="0" on="1"/>
        <pt x="48" y="-2" on="0"/>
        <pt x="50" y="-2" on="1"/>
      </contour>
    </TTGlyph>
    <TTGlyph name="A.2" xMin="50" yMin="0" xMax="702" yMax="769">
      <component glyphName="A.0" x="50" y="-10" flags="0x4"/>
    </TTGlyph>
    <TTGlyph name="AE" xMin="50" yMin="7" xMax="974" yMax="788">
      <contour>
        <pt x="407" y="377" on="1"/>
        <pt x="341" y="545" on="1"/>
        <pt x="297" y="377" on="1"/>
      </contour>
      <contour>
        <pt x="865" y="495" on="1"/>
        <pt x="866" y="343" on="1"/>
        <pt x="558" y="343" on="1"/>
        <pt x="558" y="159" on="1"/>
        <pt x="973" y="159" on="1"/>
        <pt x="974" y="7" on="1"/>
        <pt x="407" y="7" on="1"/>
        <pt x="407" y="8" on="1"/>
        <pt x="406" y="8" on="1"/>
        <pt x="406" y="237" on="1"/>
        <pt x="261" y="237" on="1"/>
        <pt x="202" y="10" on="1"/>
        <pt x="50" y="10" on="1"/>
        <pt x="250" y="788" on="1"/>
        <pt x="973" y="788" on="1"/>
        <pt x="974" y="636" on="1"/>
        <pt x="558" y="636" on="1"/>
        <pt x="558" y="495" on="1"/>
      </contour>
    </TTGlyph>
    <TTGlyph name="AE.0" xMin="0" yMin="7" xMax="924" yMax="788">
      <contour>
        <pt x="357" y="377" on="1"/>
        <pt x="247" y="377" on="1"/>
        <pt x="291" y="545" on="1"/>
      </contour>
      <contour>
        <pt x="815" y="495" on="1"/>
        <pt x="508" y="495" on="1"/>
        <pt x="508" y="636" on="1"/>
        <pt x="924" y="636" on="1"/>
        <pt x="923" y="788" on="1"/>
        <pt x="200" y="788" on="1"/>
        <pt x="0" y="10" on="1"/>
        <pt x="152" y="10" on="1"/>
        <pt x="211" y="237" on="1"/>
        <pt x="356" y="237" on="1"/>
        <pt x="356" y="8" on="1"/>
        <pt x="357" y="8" on="1"/>
        <pt x="357" y="7" on="1"/>
        <pt x="924" y="7" on="1"/>
        <pt x="923" y="159" on="1"/>
        <pt x="508" y="159" on="1"/>
        <pt x="508" y="343" on="1"/>
        <pt x="816" y="343" on="1"/>
      </contour>
    </TTGlyph>
    <TTGlyph name="AE.1" xMin="48" yMin="-6" xMax="976" yMax="780">
      <contour>
        <pt x="301" y="370" on="1"/>
        <pt x="342" y="527" on="1"/>
        <pt x="403" y="370" on="1"/>
      </contour>
      <contour>
        <pt x="407" y="364" on="1"/>
        <pt x="409" y="364" on="0"/>
        <pt x="409" y="367" on="1"/>
        <pt x="409" y="367" on="0"/>
        <pt x="409" y="368" on="1"/>
        <pt x="344" y="536" on="1"/>
        <pt x="343" y="538" on="0"/>
        <pt x="341" y="538" on="1"/>
        <pt x="339" y="538" on="0"/>
        <pt x="339" y="536" on="1"/>
        <pt x="295" y="368" on="1"/>
        <pt x="295" y="367" on="0"/>
        <pt x="295" y="367" on="1"/>
        <pt x="295" y="364" on="0"/>
        <pt x="297" y="364" on="1"/>
      </contour>
      <contour>
        <pt x="558" y="482" on="1"/>
        <pt x="863" y="482" on="1"/>
        <pt x="863" y="336" on="1"/>
        <pt x="558" y="336" on="1"/>
        <pt x="556" y="336" on="0"/>
        <pt x="556" y="333" on="1"/>
        <pt x="556" y="149" on="1"/>
        <pt x="556" y="146" on="0"/>
        <pt x="558" y="146" on="1"/>
        <pt x="971" y="146" on="1"/>
        <pt x="971" y="0" on="1"/>
        <pt x="409" y="0" on="1"/>
        <pt x="409" y="0" on="0"/>
        <pt x="408" y="0" on="1"/>
        <pt x="408" y="227" on="1"/>
        <pt x="408" y="230" on="0"/>
        <pt x="406" y="230" on="1"/>
        <pt x="261" y="230" on="1"/>
        <pt x="259" y="230" on="0"/>
        <pt x="259" y="228" on="1"/>
        <pt x="200" y="2" on="1"/>
        <pt x="53" y="2" on="1"/>
        <pt x="252" y="776" on="1"/>
        <pt x="971" y="776" on="1"/>
        <pt x="971" y="628" on="1"/>
        <pt x="558" y="628" on="1"/>
        <pt x="556" y="628" on="0"/>
        <pt x="556" y="626" on="1"/>
        <pt x="556" y="485" on="1"/>
        <pt x="556" y="482" on="0"/>
      </contour>
      <contour>
        <pt x="866" y="330" on="1"/>
        <pt x="868" y="330" on="0"/>
        <pt x="868" y="333" on="1"/>
        <pt x="867" y="485" on="1"/>
        <pt x="867" y="488" on="0"/>
        <pt x="865" y="488" on="1"/>
        <pt x="560" y="488" on="1"/>
        <pt x="560" y="624" on="1"/>
        <pt x="974" y="624" on="1"/>
        <pt x="976" y="624" on="0"/>
        <pt x="976" y="626" on="1"/>
        <pt x="975" y="778" on="1"/>
        <pt x="975" y="780" on="0"/>
        <pt x="973" y="780" on="1"/>
        <pt x="250" y="780" on="1"/>
        <pt x="248" y="780" on="0"/>
        <pt x="248" y="779" on="1"/>
        <pt x="48" y="1" on="1"/>
        <pt x="48" y="0" on="0"/>
        <pt x="48" y="0" on="1"/>
        <pt x="48" y="-2" on="0"/>
        <pt x="50" y="-2" on="1"/>
        <pt x="202" y="-2" on="1"/>
        <pt x="204" y="-2" on="0"/>
        <pt x="204" y="-1" on="1"/>
        <pt x="263" y="224" on="1"/>
        <pt x="404" y="224" on="1"/>
        <pt x="404" y="-2" on="1"/>
        <pt x="404" y="-3" on="0"/>
        <pt x="405" y="-4" on="1"/>
        <pt x="406" y="-6" on="0"/>
        <pt x="407" y="-6" on="1"/>
        <pt x="974" y="-6" on="1"/>
        <pt x="976" y="-6" on="0"/>
        <pt x="976" y="-3" on="1"/>
        <pt x="975" y="149" on="1"/>
        <pt x="975" y="152" on="0"/>
        <pt x="973" y="152" on="1"/>
        <pt x="560" y="152" on="1"/>
        <pt x="560" y="330" on="1"/>
      </contour>
    </TTGlyph>
    <TTGlyph name="AE.2" xMin="50" yMin="-3" xMax="974" yMax="778">
      <component glyphName="AE.0" x="50" y="-10" flags="0x4"/>
    </TTGlyph>
    <TTGlyph name="Aacute" xMin="50" yMin="10" xMax="702" yMax="1132">
      <component glyphName="acutecomb" x="363" y="317" flags="0x1004"/>
      <component glyphName="A" x="0" y="0" flags="0x1204"/>
    </TTGlyph>
    <TTGlyph name="Aacute.0" xMin="0" yMin="10" xMax="652" yMax="1132">
      <contour>
        <pt x="276" y="843" on="1"/>
        <pt x="458" y="1025" on="1"/>
        <pt x="350" y="1132" on="1"/>
        <pt x="168" y="950" on="1"/>
      </contour>
      <contour>
        <pt x="500" y="10" on="1"/>
        <pt x="652" y="10" on="1"/>
        <pt x="368" y="779" on="1"/>
        <pt x="216" y="779" on="1"/>
        <pt x="0" y="10" on="1"/>
        <pt x="152" y="10" on="1"/>
        <pt x="211" y="237" on="1"/>
        <pt x="411" y="237" on="1"/>
        <pt x="411" y="238" on="1"/>
      </contour>
      <contour>
        <pt x="357" y="377" on="1"/>
        <pt x="247" y="377" on="1"/>
        <pt x="307" y="545" on="1"/>
      </contour>
    </TTGlyph>
    <TTGlyph name="Aacute.1" xMin="48" yMin="-2" xMax="704" yMax="1125">
      <contour>
        <pt x="222" y="940" on="1"/>
        <pt x="400" y="1118" on="1"/>
        <pt x="504" y="1015" on="1"/>
        <pt x="326" y="837" on="1"/>
      </contour>
      <contour>
        <pt x="216" y="942" on="1"/>
        <pt x="215" y="941" on="0"/>
        <pt x="215" y="940" on="1"/>
        <pt x="215" y="939" on="0"/>
        <pt x="216" y="938" on="1"/>
        <pt x="324" y="831" on="1"/>
        <pt x="325" y="831" on="0"/>
        <pt x="326" y="831" on="1"/>
        <pt x="327" y="831" on="0"/>
        <pt x="328" y="831" on="1"/>
        <pt x="510" y="1013" on="1"/>
        <pt x="511" y="1014" on="0"/>
        <pt x="511" y="1015" on="1"/>
        <pt x="511" y="1016" on="0"/>
        <pt x="510" y="1017" on="1"/>
        <pt x="402" y="1124" on="1"/>
        <pt x="401" y="1125" on="0"/>
        <pt x="400" y="1125" on="1"/>
        <pt x="399" y="1125" on="0"/>
        <pt x="398" y="1124" on="1"/>
      </contour>
      <contour>
        <pt x="461" y="231" on="1"/>
        <pt x="460" y="231" on="0"/>
        <pt x="459" y="230" on="1"/>
        <pt x="261" y="230" on="1"/>
        <pt x="259" y="230" on="0"/>
        <pt x="259" y="228" on="1"/>
        <pt x="200" y="2" on="1"/>
        <pt x="53" y="2" on="1"/>
        <pt x="268" y="766" on="1"/>
        <pt x="416" y="766" on="1"/>
        <pt x="698" y="2" on="1"/>
        <pt x="552" y="2" on="1"/>
        <pt x="463" y="229" on="1"/>
        <pt x="463" y="231" on="0"/>
      </contour>
      <contour>
        <pt x="301" y="370" on="1"/>
        <pt x="357" y="527" on="1"/>
        <pt x="403" y="370" on="1"/>
      </contour>
      <contour>
        <pt x="407" y="364" on="1"/>
        <pt x="409" y="364" on="0"/>
        <pt x="409" y="367" on="1"/>
        <pt x="409" y="367" on="0"/>
        <pt x="409" y="368" on="1"/>
        <pt x="360" y="536" on="1"/>
        <pt x="359" y="538" on="0"/>
        <pt x="357" y="538" on="1"/>
        <pt x="355" y="538" on="0"/>
        <pt x="355" y="536" on="1"/>
        <pt x="295" y="368" on="1"/>
        <pt x="295" y="367" on="0"/>
        <pt x="295" y="367" on="1"/>
        <pt x="295" y="364" on="0"/>
        <pt x="297" y="364" on="1"/>
      </contour>
      <contour>
        <pt x="202" y="-2" on="1"/>
        <pt x="204" y="-2" on="0"/>
        <pt x="204" y="-1" on="1"/>
        <pt x="263" y="224" on="1"/>
        <pt x="460" y="224" on="1"/>
        <pt x="548" y="-1" on="1"/>
        <pt x="548" y="-2" on="0"/>
        <pt x="550" y="-2" on="1"/>
        <pt x="702" y="-2" on="1"/>
        <pt x="704" y="-2" on="0"/>
        <pt x="704" y="0" on="1"/>
        <pt x="704" y="0" on="0"/>
        <pt x="704" y="1" on="1"/>
        <pt x="420" y="770" on="1"/>
        <pt x="420" y="772" on="0"/>
        <pt x="418" y="772" on="1"/>
        <pt x="266" y="772" on="1"/>
        <pt x="264" y="772" on="0"/>
        <pt x="264" y="770" on="1"/>
        <pt x="48" y="1" on="1"/>
        <pt x="48" y="0" on="0"/>
        <pt x="48" y="0" on="1"/>
        <pt x="48" y="-2" on="0"/>
        <pt x="50" y="-2" on="1"/>
      </contour>
    </TTGlyph>
    <TTGlyph name="Aacute.2" xMin="50" yMin="0" xMax="702" yMax="1122">
      <component glyphName="Aacute.0" x="50" y="-10" flags="0x4"/>
    </TTGlyph>
    <TTGlyph name="Abreve" xMin="50" yMin="10" xMax="702" yMax="967">
      <component glyphName="uni0306" x="326" y="25" flags="0x1004"/>
      <component glyphName="A" x="0" y="0" flags="0x1204"/>
    </TTGlyph>
    <TTGlyph name="Abreve.0" xMin="0" yMin="10" xMax="652" yMax="967">
      <contour>
        <pt x="404" y="967" on="1"/>
        <pt x="328" y="967" on="1"/>
        <pt x="330" y="959" on="0"/>
        <pt x="330" y="953" on="1"/>
        <pt x="330" y="931" on="0"/>
        <pt x="315" y="915" on="1"/>
        <pt x="299" y="899" on="0"/>
        <pt x="277" y="899" on="1"/>
        <pt x="254" y="899" on="0"/>
        <pt x="238" y="915" on="1"/>
        <pt x="222" y="931" on="0"/>
        <pt x="222" y="953" on="1"/>
        <pt x="222" y="959" on="0"/>
        <pt x="224" y="967" on="1"/>
        <pt x="148" y="967" on="1"/>
        <pt x="148" y="953" on="1"/>
        <pt x="148" y="899" on="0"/>
        <pt x="185" y="862" on="1"/>
        <pt x="222" y="825" on="0"/>
        <pt x="276" y="825" on="1"/>
        <pt x="330" y="825" on="0"/>
        <pt x="367" y="863" on="1"/>
        <pt x="404" y="900" on="0"/>
        <pt x="404" y="953" on="1"/>
        <pt x="404" y="967" on="0"/>
      </contour>
      <contour>
        <pt x="500" y="10" on="1"/>
        <pt x="652" y="10" on="1"/>
        <pt x="368" y="779" on="1"/>
        <pt x="216" y="779" on="1"/>
        <pt x="0" y="10" on="1"/>
        <pt x="152" y="10" on="1"/>
        <pt x="211" y="237" on="1"/>
        <pt x="411" y="237" on="1"/>
        <pt x="411" y="238" on="1"/>
      </contour>
      <contour>
        <pt x="357" y="377" on="1"/>
        <pt x="247" y="377" on="1"/>
        <pt x="307" y="545" on="1"/>
      </contour>
    </TTGlyph>
    <TTGlyph name="Abreve.1" xMin="48" yMin="-2" xMax="704" yMax="959">
      <contour>
        <pt x="200" y="954" on="1"/>
        <pt x="271" y="954" on="1"/>
        <pt x="270" y="948" on="0"/>
        <pt x="270" y="943" on="1"/>
        <pt x="270" y="920" on="0"/>
        <pt x="287" y="904" on="1"/>
        <pt x="303" y="887" on="0"/>
        <pt x="327" y="887" on="1"/>
        <pt x="350" y="887" on="0"/>
        <pt x="366" y="904" on="1"/>
        <pt x="382" y="920" on="0"/>
        <pt x="382" y="943" on="1"/>
        <pt x="382" y="948" on="0"/>
        <pt x="381" y="954" on="1"/>
        <pt x="452" y="954" on="1"/>
        <pt x="452" y="943" on="1"/>
        <pt x="452" y="891" on="0"/>
        <pt x="416" y="854" on="1"/>
        <pt x="379" y="817" on="0"/>
        <pt x="327" y="817" on="1"/>
        <pt x="274" y="817" on="0"/>
        <pt x="237" y="854" on="1"/>
        <pt x="200" y="891" on="0"/>
        <pt x="200" y="943" on="1"/>
      </contour>
      <contour>
        <pt x="457" y="957" on="1"/>
        <pt x="457" y="959" on="0"/>
        <pt x="454" y="959" on="1"/>
        <pt x="378" y="959" on="1"/>
        <pt x="375" y="959" on="0"/>
        <pt x="375" y="957" on="1"/>
        <pt x="375" y="956" on="0"/>
        <pt x="375" y="956" on="1"/>
        <pt x="377" y="948" on="0"/>
        <pt x="377" y="943" on="1"/>
        <pt x="377" y="922" on="0"/>
        <pt x="363" y="907" on="1"/>
        <pt x="348" y="892" on="0"/>
        <pt x="327" y="892" on="1"/>
        <pt x="305" y="892" on="0"/>
        <pt x="290" y="907" on="1"/>
        <pt x="275" y="922" on="0"/>
        <pt x="275" y="943" on="1"/>
        <pt x="275" y="948" on="0"/>
        <pt x="277" y="956" on="1"/>
        <pt x="277" y="956" on="0"/>
        <pt x="277" y="957" on="1"/>
        <pt x="277" y="959" on="0"/>
        <pt x="274" y="959" on="1"/>
        <pt x="198" y="959" on="1"/>
        <pt x="195" y="959" on="0"/>
        <pt x="195" y="957" on="1"/>
        <pt x="195" y="943" on="1"/>
        <pt x="195" y="888" on="0"/>
        <pt x="233" y="850" on="1"/>
        <pt x="271" y="812" on="0"/>
        <pt x="326" y="812" on="1"/>
        <pt x="381" y="812" on="0"/>
        <pt x="419" y="851" on="1"/>
        <pt x="457" y="889" on="0"/>
        <pt x="457" y="943" on="1"/>
      </contour>
      <contour>
        <pt x="461" y="231" on="1"/>
        <pt x="460" y="231" on="0"/>
        <pt x="459" y="230" on="1"/>
        <pt x="261" y="230" on="1"/>
        <pt x="259" y="230" on="0"/>
        <pt x="259" y="228" on="1"/>
        <pt x="200" y="2" on="1"/>
        <pt x="53" y="2" on="1"/>
        <pt x="268" y="766" on="1"/>
        <pt x="416" y="766" on="1"/>
        <pt x="698" y="2" on="1"/>
        <pt x="552" y="2" on="1"/>
        <pt x="463" y="229" on="1"/>
        <pt x="463" y="231" on="0"/>
      </contour>
      <contour>
        <pt x="301" y="370" on="1"/>
        <pt x="357" y="527" on="1"/>
        <pt x="403" y="370" on="1"/>
      </contour>
      <contour>
        <pt x="407" y="364" on="1"/>
        <pt x="409" y="364" on="0"/>
        <pt x="409" y="367" on="1"/>
        <pt x="409" y="367" on="0"/>
        <pt x="409" y="368" on="1"/>
        <pt x="360" y="536" on="1"/>
        <pt x="359" y="538" on="0"/>
        <pt x="357" y="538" on="1"/>
        <pt x="355" y="538" on="0"/>
        <pt x="355" y="536" on="1"/>
        <pt x="295" y="368" on="1"/>
        <pt x="295" y="367" on="0"/>
        <pt x="295" y="367" on="1"/>
        <pt x="295" y="364" on="0"/>
        <pt x="297" y="364" on="1"/>
      </contour>
      <contour>
        <pt x="202" y="-2" on="1"/>
        <pt x="204" y="-2" on="0"/>
        <pt x="204" y="-1" on="1"/>
        <pt x="263" y="224" on="1"/>
        <pt x="460" y="224" on="1"/>
        <pt x="548" y="-1" on="1"/>
        <pt x="548" y="-2" on="0"/>
        <pt x="550" y="-2" on="1"/>
        <pt x="702" y="-2" on="1"/>
        <pt x="704" y="-2" on="0"/>
        <pt x="704" y="0" on="1"/>
        <pt x="704" y="0" on="0"/>
        <pt x="704" y="1" on="1"/>
        <pt x="420" y="770" on="1"/>
        <pt x="420" y="772" on="0"/>
        <pt x="418" y="772" on="1"/>
        <pt x="266" y="772" on="1"/>
        <pt x="264" y="772" on="0"/>
        <pt x="264" y="770" on="1"/>
        <pt x="48" y="1" on="1"/>
        <pt x="48" y="0" on="0"/>
        <pt x="48" y="0" on="1"/>
        <pt x="48" y="-2" on="0"/>
        <pt x="50" y="-2" on="1"/>
      </contour>
    </TTGlyph>
    <TTGlyph name="Abreve.2" xMin="50" yMin="0" xMax="702" yMax="957">
      <component glyphName="Abreve.0" x="50" y="-10" flags="0x4"/>
    </TTGlyph>
    <TTGlyph name="Acircumflex" xMin="50" yMin="10" xMax="702" yMax="1010">
      <component glyphName="uni0302" x="326" y="66" flags="0x1004"/>
      <component glyphName="A" x="0" y="0" flags="0x1204"/>
    </TTGlyph>
    <TTGlyph name="Acircumflex.0" xMin="0" yMin="10" xMax="652" yMax="1010">
      <contour>
        <pt x="176" y="842" on="1"/>
        <pt x="252" y="842" on="1"/>
        <pt x="280" y="950" on="1"/>
        <pt x="300" y="842" on="1"/>
        <pt x="376" y="842" on="1"/>
        <pt x="324" y="1010" on="1"/>
        <pt x="323" y="1010" on="1"/>
        <pt x="248" y="1010" on="1"/>
        <pt x="247" y="1010" on="1"/>
      </contour>
      <contour>
        <pt x="500" y="10" on="1"/>
        <pt x="652" y="10" on="1"/>
        <pt x="368" y="779" on="1"/>
        <pt x="216" y="779" on="1"/>
        <pt x="0" y="10" on="1"/>
        <pt x="152" y="10" on="1"/>
        <pt x="211" y="237" on="1"/>
        <pt x="411" y="237" on="1"/>
        <pt x="411" y="238" on="1"/>
      </contour>
      <contour>
        <pt x="357" y="377" on="1"/>
        <pt x="247" y="377" on="1"/>
        <pt x="307" y="545" on="1"/>
      </contour>
    </TTGlyph>
    <TTGlyph name="Acircumflex.1" xMin="48" yMin="-2" xMax="704" yMax="1002">
      <contour>
        <pt x="332" y="940" on="1"/>
        <pt x="332" y="942" on="0"/>
        <pt x="330" y="942" on="1"/>
        <pt x="328" y="942" on="0"/>
        <pt x="327" y="940" on="1"/>
        <pt x="300" y="835" on="1"/>
        <pt x="229" y="835" on="1"/>
        <pt x="299" y="997" on="1"/>
        <pt x="372" y="997" on="1"/>
        <pt x="423" y="835" on="1"/>
        <pt x="353" y="835" on="1"/>
      </contour>
      <contour>
        <pt x="297" y="1002" on="1"/>
        <pt x="295" y="1002" on="0"/>
        <pt x="295" y="1000" on="1"/>
        <pt x="223" y="833" on="1"/>
        <pt x="223" y="833" on="0"/>
        <pt x="223" y="832" on="1"/>
        <pt x="223" y="830" on="0"/>
        <pt x="226" y="830" on="1"/>
        <pt x="302" y="830" on="1"/>
        <pt x="303" y="830" on="0"/>
        <pt x="304" y="832" on="1"/>
        <pt x="329" y="928" on="1"/>
        <pt x="348" y="832" on="1"/>
        <pt x="348" y="830" on="0"/>
        <pt x="350" y="830" on="1"/>
        <pt x="426" y="830" on="1"/>
        <pt x="429" y="830" on="0"/>
        <pt x="429" y="832" on="1"/>
        <pt x="429" y="833" on="0"/>
        <pt x="429" y="833" on="1"/>
        <pt x="376" y="1000" on="1"/>
        <pt x="375" y="1002" on="0"/>
        <pt x="374" y="1002" on="1"/>
      </contour>
      <contour>
        <pt x="461" y="231" on="1"/>
        <pt x="460" y="231" on="0"/>
        <pt x="459" y="230" on="1"/>
        <pt x="261" y="230" on="1"/>
        <pt x="259" y="230" on="0"/>
        <pt x="259" y="228" on="1"/>
        <pt x="200" y="2" on="1"/>
        <pt x="53" y="2" on="1"/>
        <pt x="268" y="766" on="1"/>
        <pt x="416" y="766" on="1"/>
        <pt x="698" y="2" on="1"/>
        <pt x="552" y="2" on="1"/>
        <pt x="463" y="229" on="1"/>
        <pt x="463" y="231" on="0"/>
      </contour>
      <contour>
        <pt x="301" y="370" on="1"/>
        <pt x="357" y="527" on="1"/>
        <pt x="403" y="370" on="1"/>
      </contour>
      <contour>
        <pt x="407" y="364" on="1"/>
        <pt x="409" y="364" on="0"/>
        <pt x="409" y="367" on="1"/>
        <pt x="409" y="367" on="0"/>
        <pt x="409" y="368" on="1"/>
        <pt x="360" y="536" on="1"/>
        <pt x="359" y="538" on="0"/>
        <pt x="357" y="538" on="1"/>
        <pt x="355" y="538" on="0"/>
        <pt x="355" y="536" on="1"/>
        <pt x="295" y="368" on="1"/>
        <pt x="295" y="367" on="0"/>
        <pt x="295" y="367" on="1"/>
        <pt x="295" y="364" on="0"/>
        <pt x="297" y="364" on="1"/>
      </contour>
      <contour>
        <pt x="202" y="-2" on="1"/>
        <pt x="204" y="-2" on="0"/>
        <pt x="204" y="-1" on="1"/>
        <pt x="263" y="224" on="1"/>
        <pt x="460" y="224" on="1"/>
        <pt x="548" y="-1" on="1"/>
        <pt x="548" y="-2" on="0"/>
        <pt x="550" y="-2" on="1"/>
        <pt x="702" y="-2" on="1"/>
        <pt x="704" y="-2" on="0"/>
        <pt x="704" y="0" on="1"/>
        <pt x="704" y="0" on="0"/>
        <pt x="704" y="1" on="1"/>
        <pt x="420" y="770" on="1"/>
        <pt x="420" y="772" on="0"/>
        <pt x="418" y="772" on="1"/>
        <pt x="266" y="772" on="1"/>
        <pt x="264" y="772" on="0"/>
        <pt x="264" y="770" on="1"/>
        <pt x="48" y="1" on="1"/>
        <pt x="48" y="0" on="0"/>
        <pt x="48" y="0" on="1"/>
        <pt x="48" y="-2" on="0"/>
        <pt x="50" y="-2" on="1"/>
      </contour>
    </TTGlyph>
    <TTGlyph name="Acircumflex.2" xMin="50" yMin="0" xMax="702" yMax="1000">
      <component glyphName="Acircumflex.0" x="50" y="-10" flags="0x4"/>
    </TTGlyph>
    <TTGlyph name="Adieresis" xMin="50" yMin="10" xMax="702" yMax="985">
      <component glyphName="uni0308" x="326" y="335" flags="0x1004"/>
      <component glyphName="A" x="0" y="0" flags="0x1204"/>
    </TTGlyph>
    <TTGlyph name="Adieresis.0" xMin="0" yMin="10" xMax="652" yMax="985">
      <contour>
        <pt x="300" y="843" on="1"/>
        <pt x="452" y="843" on="1"/>
        <pt x="452" y="985" on="1"/>
        <pt x="300" y="985" on="1"/>
      </contour>
      <contour>
        <pt x="100" y="843" on="1"/>
        <pt x="252" y="843" on="1"/>
        <pt x="252" y="985" on="1"/>
        <pt x="100" y="985" on="1"/>
      </contour>
      <contour>
        <pt x="500" y="10" on="1"/>
        <pt x="652" y="10" on="1"/>
        <pt x="368" y="779" on="1"/>
        <pt x="216" y="779" on="1"/>
        <pt x="0" y="10" on="1"/>
        <pt x="152" y="10" on="1"/>
        <pt x="211" y="237" on="1"/>
        <pt x="411" y="237" on="1"/>
        <pt x="411" y="238" on="1"/>
      </contour>
      <contour>
        <pt x="357" y="377" on="1"/>
        <pt x="247" y="377" on="1"/>
        <pt x="307" y="545" on="1"/>
      </contour>
    </TTGlyph>
    <TTGlyph name="Adieresis.1" xMin="48" yMin="-2" xMax="704" yMax="977">
      <contour>
        <pt x="352" y="973" on="1"/>
        <pt x="500" y="973" on="1"/>
        <pt x="500" y="835" on="1"/>
        <pt x="352" y="835" on="1"/>
      </contour>
      <contour>
        <pt x="348" y="833" on="1"/>
        <pt x="348" y="831" on="0"/>
        <pt x="350" y="831" on="1"/>
        <pt x="502" y="831" on="1"/>
        <pt x="504" y="831" on="0"/>
        <pt x="504" y="833" on="1"/>
        <pt x="504" y="975" on="1"/>
        <pt x="504" y="977" on="0"/>
        <pt x="502" y="977" on="1"/>
        <pt x="350" y="977" on="1"/>
        <pt x="348" y="977" on="0"/>
        <pt x="348" y="975" on="1"/>
      </contour>
      <contour>
        <pt x="152" y="973" on="1"/>
        <pt x="300" y="973" on="1"/>
        <pt x="300" y="835" on="1"/>
        <pt x="152" y="835" on="1"/>
      </contour>
      <contour>
        <pt x="148" y="833" on="1"/>
        <pt x="148" y="831" on="0"/>
        <pt x="150" y="831" on="1"/>
        <pt x="302" y="831" on="1"/>
        <pt x="304" y="831" on="0"/>
        <pt x="304" y="833" on="1"/>
        <pt x="304" y="975" on="1"/>
        <pt x="304" y="977" on="0"/>
        <pt x="302" y="977" on="1"/>
        <pt x="150" y="977" on="1"/>
        <pt x="148" y="977" on="0"/>
        <pt x="148" y="975" on="1"/>
      </contour>
      <contour>
        <pt x="461" y="231" on="1"/>
        <pt x="460" y="231" on="0"/>
        <pt x="459" y="230" on="1"/>
        <pt x="261" y="230" on="1"/>
        <pt x="259" y="230" on="0"/>
        <pt x="259" y="228" on="1"/>
        <pt x="200" y="2" on="1"/>
        <pt x="53" y="2" on="1"/>
        <pt x="268" y="766" on="1"/>
        <pt x="416" y="766" on="1"/>
        <pt x="698" y="2" on="1"/>
        <pt x="552" y="2" on="1"/>
        <pt x="463" y="229" on="1"/>
        <pt x="463" y="231" on="0"/>
      </contour>
      <contour>
        <pt x="301" y="370" on="1"/>
        <pt x="357" y="527" on="1"/>
        <pt x="403" y="370" on="1"/>
      </contour>
      <contour>
        <pt x="407" y="364" on="1"/>
        <pt x="409" y="364" on="0"/>
        <pt x="409" y="367" on="1"/>
        <pt x="409" y="367" on="0"/>
        <pt x="409" y="368" on="1"/>
        <pt x="360" y="536" on="1"/>
        <pt x="359" y="538" on="0"/>
        <pt x="357" y="538" on="1"/>
        <pt x="355" y="538" on="0"/>
        <pt x="355" y="536" on="1"/>
        <pt x="295" y="368" on="1"/>
        <pt x="295" y="367" on="0"/>
        <pt x="295" y="367" on="1"/>
        <pt x="295" y="364" on="0"/>
        <pt x="297" y="364" on="1"/>
      </contour>
      <contour>
        <pt x="202" y="-2" on="1"/>
        <pt x="204" y="-2" on="0"/>
        <pt x="204" y="-1" on="1"/>
        <pt x="263" y="224" on="1"/>
        <pt x="460" y="224" on="1"/>
        <pt x="548" y="-1" on="1"/>
        <pt x="548" y="-2" on="0"/>
        <pt x="550" y="-2" on="1"/>
        <pt x="702" y="-2" on="1"/>
        <pt x="704" y="-2" on="0"/>
        <pt x="704" y="0" on="1"/>
        <pt x="704" y="0" on="0"/>
        <pt x="704" y="1" on="1"/>
        <pt x="420" y="770" on="1"/>
        <pt x="420" y="772" on="0"/>
        <pt x="418" y="772" on="1"/>
        <pt x="266" y="772" on="1"/>
        <pt x="264" y="772" on="0"/>
        <pt x="264" y="770" on="1"/>
        <pt x="48" y="1" on="1"/>
        <pt x="48" y="0" on="0"/>
        <pt x="48" y="0" on="1"/>
        <pt x="48" y="-2" on="0"/>
        <pt x="50" y="-2" on="1"/>
      </contour>
    </TTGlyph>
    <TTGlyph name="Adieresis.2" xMin="50" yMin="0" xMax="702" yMax="975">
      <component glyphName="Adieresis.0" x="50" y="-10" flags="0x4"/>
    </TTGlyph>
    <TTGlyph name="Agrave" xMin="50" yMin="10" xMax="702" yMax="1132">
      <component glyphName="gravecomb" x="289" y="317" flags="0x1004"/>
      <component glyphName="A" x="0" y="0" flags="0x1204"/>
    </TTGlyph>
    <TTGlyph name="Agrave.0" xMin="0" yMin="10" xMax="652" yMax="1132">
      <contour>
        <pt x="276" y="843" on="1"/>
        <pt x="384" y="950" on="1"/>
        <pt x="202" y="1132" on="1"/>
        <pt x="94" y="1025" on="1"/>
      </contour>
      <contour>
        <pt x="500" y="10" on="1"/>
        <pt x="652" y="10" on="1"/>
        <pt x="368" y="779" on="1"/>
        <pt x="216" y="779" on="1"/>
        <pt x="0" y="10" on="1"/>
        <pt x="152" y="10" on="1"/>
        <pt x="211" y="237" on="1"/>
        <pt x="411" y="237" on="1"/>
        <pt x="411" y="238" on="1"/>
      </contour>
      <contour>
        <pt x="357" y="377" on="1"/>
        <pt x="247" y="377" on="1"/>
        <pt x="307" y="545" on="1"/>
      </contour>
    </TTGlyph>
    <TTGlyph name="Agrave.1" xMin="48" yMin="-2" xMax="704" yMax="1125">
      <contour>
        <pt x="148" y="1015" on="1"/>
        <pt x="252" y="1118" on="1"/>
        <pt x="430" y="940" on="1"/>
        <pt x="326" y="837" on="1"/>
      </contour>
      <contour>
        <pt x="142" y="1017" on="1"/>
        <pt x="141" y="1016" on="0"/>
        <pt x="141" y="1015" on="1"/>
        <pt x="141" y="1014" on="0"/>
        <pt x="142" y="1013" on="1"/>
        <pt x="324" y="831" on="1"/>
        <pt x="325" y="831" on="0"/>
        <pt x="326" y="831" on="1"/>
        <pt x="327" y="831" on="0"/>
        <pt x="328" y="831" on="1"/>
        <pt x="436" y="938" on="1"/>
        <pt x="437" y="939" on="0"/>
        <pt x="437" y="940" on="1"/>
        <pt x="437" y="941" on="0"/>
        <pt x="436" y="942" on="1"/>
        <pt x="254" y="1124" on="1"/>
        <pt x="253" y="1125" on="0"/>
        <pt x="252" y="1125" on="1"/>
        <pt x="251" y="1125" on="0"/>
        <pt x="250" y="1124" on="1"/>
      </contour>
      <contour>
        <pt x="461" y="231" on="1"/>
        <pt x="460" y="231" on="0"/>
        <pt x="459" y="230" on="1"/>
        <pt x="261" y="230" on="1"/>
        <pt x="259" y="230" on="0"/>
        <pt x="259" y="228" on="1"/>
        <pt x="200" y="2" on="1"/>
        <pt x="53" y="2" on="1"/>
        <pt x="268" y="766" on="1"/>
        <pt x="416" y="766" on="1"/>
        <pt x="698" y="2" on="1"/>
        <pt x="552" y="2" on="1"/>
        <pt x="463" y="229" on="1"/>
        <pt x="463" y="231" on="0"/>
      </contour>
      <contour>
        <pt x="301" y="370" on="1"/>
        <pt x="357" y="527" on="1"/>
        <pt x="403" y="370" on="1"/>
      </contour>
      <contour>
        <pt x="407" y="364" on="1"/>
        <pt x="409" y="364" on="0"/>
        <pt x="409" y="367" on="1"/>
        <pt x="409" y="367" on="0"/>
        <pt x="409" y="368" on="1"/>
        <pt x="360" y="536" on="1"/>
        <pt x="359" y="538" on="0"/>
        <pt x="357" y="538" on="1"/>
        <pt x="355" y="538" on="0"/>
        <pt x="355" y="536" on="1"/>
        <pt x="295" y="368" on="1"/>
        <pt x="295" y="367" on="0"/>
        <pt x="295" y="367" on="1"/>
        <pt x="295" y="364" on="0"/>
        <pt x="297" y="364" on="1"/>
      </contour>
      <contour>
        <pt x="202" y="-2" on="1"/>
        <pt x="204" y="-2" on="0"/>
        <pt x="204" y="-1" on="1"/>
        <pt x="263" y="224" on="1"/>
        <pt x="460" y="224" on="1"/>
        <pt x="548" y="-1" on="1"/>
        <pt x="548" y="-2" on="0"/>
        <pt x="550" y="-2" on="1"/>
        <pt x="702" y="-2" on="1"/>
        <pt x="704" y="-2" on="0"/>
        <pt x="704" y="0" on="1"/>
        <pt x="704" y="0" on="0"/>
        <pt x="704" y="1" on="1"/>
        <pt x="420" y="770" on="1"/>
        <pt x="420" y="772" on="0"/>
        <pt x="418" y="772" on="1"/>
        <pt x="266" y="772" on="1"/>
        <pt x="264" y="772" on="0"/>
        <pt x="264" y="770" on="1"/>
        <pt x="48" y="1" on="1"/>
        <pt x="48" y="0" on="0"/>
        <pt x="48" y="0" on="1"/>
        <pt x="48" y="-2" on="0"/>
        <pt x="50" y="-2" on="1"/>
      </contour>
    </TTGlyph>
    <TTGlyph name="Agrave.2" xMin="50" yMin="0" xMax="702" yMax="1122">
      <component glyphName="Agrave.0" x="50" y="-10" flags="0x4"/>
    </TTGlyph>
    <TTGlyph name="Amacron" xMin="50" yMin="10" xMax="702" yMax="919">
      <component glyphName="uni0304" x="326" y="51" flags="0x1004"/>
      <component glyphName="A" x="0" y="0" flags="0x1204"/>
    </TTGlyph>
    <TTGlyph name="Amacron.0" xMin="0" yMin="10" xMax="652" yMax="919">
      <contour>
        <pt x="412" y="919" on="1"/>
        <pt x="140" y="919" on="1"/>
        <pt x="140" y="843" on="1"/>
        <pt x="412" y="843" on="1"/>
      </contour>
      <contour>
        <pt x="500" y="10" on="1"/>
        <pt x="652" y="10" on="1"/>
        <pt x="368" y="779" on="1"/>
        <pt x="216" y="779" on="1"/>
        <pt x="0" y="10" on="1"/>
        <pt x="152" y="10" on="1"/>
        <pt x="211" y="237" on="1"/>
        <pt x="411" y="237" on="1"/>
        <pt x="411" y="238" on="1"/>
      </contour>
      <contour>
        <pt x="357" y="377" on="1"/>
        <pt x="247" y="377" on="1"/>
        <pt x="307" y="545" on="1"/>
      </contour>
    </TTGlyph>
    <TTGlyph name="Amacron.1" xMin="48" yMin="-2" xMax="704" yMax="911">
      <contour>
        <pt x="460" y="835" on="1"/>
        <pt x="192" y="835" on="1"/>
        <pt x="192" y="907" on="1"/>
        <pt x="460" y="907" on="1"/>
      </contour>
      <contour>
        <pt x="464" y="909" on="1"/>
        <pt x="464" y="911" on="0"/>
        <pt x="462" y="911" on="1"/>
        <pt x="190" y="911" on="1"/>
        <pt x="188" y="911" on="0"/>
        <pt x="188" y="909" on="1"/>
        <pt x="188" y="833" on="1"/>
        <pt x="188" y="831" on="0"/>
        <pt x="190" y="831" on="1"/>
        <pt x="462" y="831" on="1"/>
        <pt x="464" y="831" on="0"/>
        <pt x="464" y="833" on="1"/>
      </contour>
      <contour>
        <pt x="461" y="231" on="1"/>
        <pt x="460" y="231" on="0"/>
        <pt x="459" y="230" on="1"/>
        <pt x="261" y="230" on="1"/>
        <pt x="259" y="230" on="0"/>
        <pt x="259" y="228" on="1"/>
        <pt x="200" y="2" on="1"/>
        <pt x="53" y="2" on="1"/>
        <pt x="268" y="766" on="1"/>
        <pt x="416" y="766" on="1"/>
        <pt x="698" y="2" on="1"/>
        <pt x="552" y="2" on="1"/>
        <pt x="463" y="229" on="1"/>
        <pt x="463" y="231" on="0"/>
      </contour>
      <contour>
        <pt x="301" y="370" on="1"/>
        <pt x="357" y="527" on="1"/>
        <pt x="403" y="370" on="1"/>
      </contour>
      <contour>
        <pt x="407" y="364" on="1"/>
        <pt x="409" y="364" on="0"/>
        <pt x="409" y="367" on="1"/>
        <pt x="409" y="367" on="0"/>
        <pt x="409" y="368" on="1"/>
        <pt x="360" y="536" on="1"/>
        <pt x="359" y="538" on="0"/>
        <pt x="357" y="538" on="1"/>
        <pt x="355" y="538" on="0"/>
        <pt x="355" y="536" on="1"/>
        <pt x="295" y="368" on="1"/>
        <pt x="295" y="367" on="0"/>
        <pt x="295" y="367" on="1"/>
        <pt x="295" y="364" on="0"/>
        <pt x="297" y="364" on="1"/>
      </contour>
      <contour>
        <pt x="202" y="-2" on="1"/>
        <pt x="204" y="-2" on="0"/>
        <pt x="204" y="-1" on="1"/>
        <pt x="263" y="224" on="1"/>
        <pt x="460" y="224" on="1"/>
        <pt x="548" y="-1" on="1"/>
        <pt x="548" y="-2" on="0"/>
        <pt x="550" y="-2" on="1"/>
        <pt x="702" y="-2" on="1"/>
        <pt x="704" y="-2" on="0"/>
        <pt x="704" y="0" on="1"/>
        <pt x="704" y="0" on="0"/>
        <pt x="704" y="1" on="1"/>
        <pt x="420" y="770" on="1"/>
        <pt x="420" y="772" on="0"/>
        <pt x="418" y="772" on="1"/>
        <pt x="266" y="772" on="1"/>
        <pt x="264" y="772" on="0"/>
        <pt x="264" y="770" on="1"/>
        <pt x="48" y="1" on="1"/>
        <pt x="48" y="0" on="0"/>
        <pt x="48" y="0" on="1"/>
        <pt x="48" y="-2" on="0"/>
        <pt x="50" y="-2" on="1"/>
      </contour>
    </TTGlyph>
    <TTGlyph name="Amacron.2" xMin="50" yMin="0" xMax="702" yMax="909">
      <component glyphName="Amacron.0" x="50" y="-10" flags="0x4"/>
    </TTGlyph>
    <TTGlyph name="Aogonek" xMin="50" yMin="-242" xMax="702" yMax="779">
      <component glyphName="uni0328" x="614" y="-184" flags="0x1004"/>
      <component glyphName="A" x="0" y="0" flags="0x1004"/>
    </TTGlyph>
    <TTGlyph name="Aogonek.0" xMin="0" yMin="-242" xMax="652" yMax="779">
      <contour>
        <pt x="635" y="-242" on="1"/>
        <pt x="635" y="-165" on="1"/>
        <pt x="627" y="-167" on="0"/>
        <pt x="622" y="-167" on="1"/>
        <pt x="599" y="-167" on="0"/>
        <pt x="584" y="-151" on="1"/>
        <pt x="568" y="-136" on="0"/>
        <pt x="568" y="-114" on="1"/>
        <pt x="568" y="-92" on="0"/>
        <pt x="584" y="-76" on="1"/>
        <pt x="600" y="-60" on="0"/>
        <pt x="622" y="-60" on="1"/>
        <pt x="627" y="-60" on="0"/>
        <pt x="635" y="-62" on="1"/>
        <pt x="635" y="15" on="1"/>
        <pt x="622" y="15" on="1"/>
        <pt x="568" y="15" on="0"/>
        <pt x="531" y="-22" on="1"/>
        <pt x="493" y="-60" on="0"/>
        <pt x="493" y="-114" on="1"/>
        <pt x="493" y="-167" on="0"/>
        <pt x="531" y="-204" on="1"/>
        <pt x="568" y="-242" on="0"/>
        <pt x="622" y="-242" on="1"/>
        <pt x="635" y="-242" on="0"/>
      </contour>
      <contour>
        <pt x="500" y="10" on="1"/>
        <pt x="652" y="10" on="1"/>
        <pt x="368" y="779" on="1"/>
        <pt x="216" y="779" on="1"/>
        <pt x="0" y="10" on="1"/>
        <pt x="152" y="10" on="1"/>
        <pt x="211" y="237" on="1"/>
        <pt x="411" y="237" on="1"/>
        <pt x="411" y="238" on="1"/>
      </contour>
      <contour>
        <pt x="357" y="377" on="1"/>
        <pt x="247" y="377" on="1"/>
        <pt x="307" y="545" on="1"/>
      </contour>
    </TTGlyph>
    <TTGlyph name="Aogonek.1" xMin="48" yMin="-254" xMax="704" yMax="772">
      <contour>
        <pt x="682" y="2" on="1"/>
        <pt x="682" y="-69" on="1"/>
        <pt x="676" y="-68" on="0"/>
        <pt x="672" y="-68" on="1"/>
        <pt x="648" y="-68" on="0"/>
        <pt x="632" y="-84" on="1"/>
        <pt x="616" y="-100" on="0"/>
        <pt x="616" y="-123" on="1"/>
        <pt x="616" y="-147" on="0"/>
        <pt x="632" y="-163" on="1"/>
        <pt x="648" y="-180" on="0"/>
        <pt x="672" y="-180" on="1"/>
        <pt x="676" y="-180" on="0"/>
        <pt x="682" y="-178" on="1"/>
        <pt x="682" y="-250" on="1"/>
        <pt x="672" y="-250" on="1"/>
        <pt x="619" y="-250" on="0"/>
        <pt x="583" y="-213" on="1"/>
        <pt x="546" y="-176" on="0"/>
        <pt x="546" y="-124" on="1"/>
        <pt x="546" y="-71" on="0"/>
        <pt x="583" y="-34" on="1"/>
        <pt x="619" y="2" on="0"/>
        <pt x="672" y="2" on="1"/>
      </contour>
      <contour>
        <pt x="685" y="-254" on="1"/>
        <pt x="688" y="-254" on="0"/>
        <pt x="688" y="-252" on="1"/>
        <pt x="688" y="-175" on="1"/>
        <pt x="688" y="-172" on="0"/>
        <pt x="685" y="-172" on="1"/>
        <pt x="685" y="-172" on="0"/>
        <pt x="684" y="-173" on="1"/>
        <pt x="677" y="-174" on="0"/>
        <pt x="672" y="-174" on="1"/>
        <pt x="650" y="-174" on="0"/>
        <pt x="635" y="-159" on="1"/>
        <pt x="620" y="-145" on="0"/>
        <pt x="620" y="-124" on="1"/>
        <pt x="620" y="-103" on="0"/>
        <pt x="636" y="-87" on="1"/>
        <pt x="651" y="-72" on="0"/>
        <pt x="672" y="-72" on="1"/>
        <pt x="677" y="-72" on="0"/>
        <pt x="684" y="-74" on="1"/>
        <pt x="685" y="-74" on="0"/>
        <pt x="685" y="-74" on="1"/>
        <pt x="688" y="-74" on="0"/>
        <pt x="688" y="-72" on="1"/>
        <pt x="688" y="5" on="1"/>
        <pt x="688" y="8" on="0"/>
        <pt x="685" y="8" on="1"/>
        <pt x="672" y="8" on="1"/>
        <pt x="617" y="8" on="0"/>
        <pt x="579" y="-30" on="1"/>
        <pt x="540" y="-69" on="0"/>
        <pt x="540" y="-124" on="1"/>
        <pt x="540" y="-178" on="0"/>
        <pt x="579" y="-216" on="1"/>
        <pt x="617" y="-254" on="0"/>
        <pt x="672" y="-254" on="1"/>
      </contour>
      <contour>
        <pt x="461" y="231" on="1"/>
        <pt x="460" y="231" on="0"/>
        <pt x="459" y="230" on="1"/>
        <pt x="261" y="230" on="1"/>
        <pt x="259" y="230" on="0"/>
        <pt x="259" y="228" on="1"/>
        <pt x="200" y="2" on="1"/>
        <pt x="53" y="2" on="1"/>
        <pt x="268" y="766" on="1"/>
        <pt x="416" y="766" on="1"/>
        <pt x="698" y="2" on="1"/>
        <pt x="552" y="2" on="1"/>
        <pt x="463" y="229" on="1"/>
        <pt x="463" y="231" on="0"/>
      </contour>
      <contour>
        <pt x="301" y="370" on="1"/>
        <pt x="357" y="527" on="1"/>
        <pt x="403" y="370" on="1"/>
      </contour>
      <contour>
        <pt x="407" y="364" on="1"/>
        <pt x="409" y="364" on="0"/>
        <pt x="409" y="367" on="1"/>
        <pt x="409" y="367" on="0"/>
        <pt x="409" y="368" on="1"/>
        <pt x="360" y="536" on="1"/>
        <pt x="359" y="538" on="0"/>
        <pt x="357" y="538" on="1"/>
        <pt x="355" y="538" on="0"/>
        <pt x="355" y="536" on="1"/>
        <pt x="295" y="368" on="1"/>
        <pt x="295" y="367" on="0"/>
        <pt x="295" y="367" on="1"/>
        <pt x="295" y="364" on="0"/>
        <pt x="297" y="364" on="1"/>
      </contour>
      <contour>
        <pt x="202" y="-2" on="1"/>
        <pt x="204" y="-2" on="0"/>
        <pt x="204" y="-1" on="1"/>
        <pt x="263" y="224" on="1"/>
        <pt x="460" y="224" on="1"/>
        <pt x="548" y="-1" on="1"/>
        <pt x="548" y="-2" on="0"/>
        <pt x="550" y="-2" on="1"/>
        <pt x="702" y="-2" on="1"/>
        <pt x="704" y="-2" on="0"/>
        <pt x="704" y="0" on="1"/>
        <pt x="704" y="0" on="0"/>
        <pt x="704" y="1" on="1"/>
        <pt x="420" y="770" on="1"/>
        <pt x="420" y="772" on="0"/>
        <pt x="418" y="772" on="1"/>
        <pt x="266" y="772" on="1"/>
        <pt x="264" y="772" on="0"/>
        <pt x="264" y="770" on="1"/>
        <pt x="48" y="1" on="1"/>
        <pt x="48" y="0" on="0"/>
        <pt x="48" y="0" on="1"/>
        <pt x="48" y="-2" on="0"/>
        <pt x="50" y="-2" on="1"/>
      </contour>
    </TTGlyph>
    <TTGlyph name="Aogonek.2" xMin="50" yMin="-252" xMax="702" yMax="769">
      <component glyphName="Aogonek.0" x="50" y="-10" flags="0x4"/>
    </TTGlyph>
    <TTGlyph name="Aring" xMin="50" yMin="10" xMax="702" yMax="1059">
      <component glyphName="uni030A" x="326" y="360" flags="0x1004"/>
      <component glyphName="A" x="0" y="0" flags="0x1204"/>
    </TTGlyph>
    <TTGlyph name="Aring.0" xMin="0" yMin="10" xMax="652" yMax="1059">
      <contour>
        <pt x="275" y="802" on="1"/>
        <pt x="277" y="802" on="1"/>
        <pt x="331" y="802" on="0"/>
        <pt x="369" y="840" on="1"/>
        <pt x="406" y="877" on="0"/>
        <pt x="406" y="930" on="1"/>
        <pt x="406" y="984" on="0"/>
        <pt x="369" y="1022" on="1"/>
        <pt x="331" y="1059" on="0"/>
        <pt x="277" y="1059" on="1"/>
        <pt x="275" y="1059" on="0"/>
        <pt x="275" y="1059" on="1"/>
        <pt x="273" y="1059" on="0"/>
        <pt x="273" y="1059" on="1"/>
        <pt x="266" y="1059" on="1"/>
        <pt x="216" y="1055" on="0"/>
        <pt x="181" y="1018" on="1"/>
        <pt x="146" y="981" on="0"/>
        <pt x="146" y="930" on="1"/>
        <pt x="146" y="879" on="0"/>
        <pt x="181" y="843" on="1"/>
        <pt x="215" y="806" on="0"/>
        <pt x="266" y="802" on="1"/>
        <pt x="273" y="802" on="0"/>
        <pt x="273" y="802" on="1"/>
        <pt x="275" y="802" on="0"/>
      </contour>
      <contour>
        <pt x="276" y="984" on="1"/>
        <pt x="280" y="984" on="0"/>
        <pt x="288" y="982" on="1"/>
        <pt x="288" y="983" on="1"/>
        <pt x="307" y="979" on="0"/>
        <pt x="319" y="965" on="1"/>
        <pt x="330" y="950" on="0"/>
        <pt x="330" y="930" on="1"/>
        <pt x="330" y="911" on="0"/>
        <pt x="319" y="897" on="1"/>
        <pt x="307" y="882" on="0"/>
        <pt x="288" y="878" on="1"/>
        <pt x="288" y="879" on="1"/>
        <pt x="280" y="877" on="0"/>
        <pt x="276" y="877" on="1"/>
        <pt x="272" y="877" on="0"/>
        <pt x="264" y="879" on="1"/>
        <pt x="264" y="878" on="1"/>
        <pt x="245" y="882" on="0"/>
        <pt x="234" y="897" on="1"/>
        <pt x="222" y="911" on="0"/>
        <pt x="222" y="930" on="1"/>
        <pt x="222" y="950" on="0"/>
        <pt x="234" y="965" on="1"/>
        <pt x="245" y="979" on="0"/>
        <pt x="264" y="983" on="1"/>
        <pt x="264" y="982" on="1"/>
        <pt x="272" y="984" on="0"/>
      </contour>
      <contour>
        <pt x="500" y="10" on="1"/>
        <pt x="652" y="10" on="1"/>
        <pt x="368" y="779" on="1"/>
        <pt x="216" y="779" on="1"/>
        <pt x="0" y="10" on="1"/>
        <pt x="152" y="10" on="1"/>
        <pt x="211" y="237" on="1"/>
        <pt x="411" y="237" on="1"/>
        <pt x="411" y="238" on="1"/>
      </contour>
      <contour>
        <pt x="357" y="377" on="1"/>
        <pt x="247" y="377" on="1"/>
        <pt x="307" y="545" on="1"/>
      </contour>
    </TTGlyph>
    <TTGlyph name="Aring.1" xMin="48" yMin="-2" xMax="704" yMax="1052">
      <contour>
        <pt x="316" y="794" on="1"/>
        <pt x="267" y="798" on="0"/>
        <pt x="233" y="834" on="1"/>
        <pt x="198" y="870" on="0"/>
        <pt x="198" y="920" on="1"/>
        <pt x="198" y="970" on="0"/>
        <pt x="233" y="1007" on="1"/>
        <pt x="267" y="1043" on="0"/>
        <pt x="316" y="1046" on="1"/>
        <pt x="327" y="1046" on="1"/>
        <pt x="380" y="1046" on="0"/>
        <pt x="417" y="1010" on="1"/>
        <pt x="454" y="973" on="0"/>
        <pt x="454" y="920" on="1"/>
        <pt x="454" y="868" on="0"/>
        <pt x="417" y="831" on="1"/>
        <pt x="380" y="794" on="0"/>
        <pt x="327" y="794" on="1"/>
      </contour>
      <contour>
        <pt x="327" y="790" on="1"/>
        <pt x="382" y="790" on="0"/>
        <pt x="420" y="828" on="1"/>
        <pt x="458" y="866" on="0"/>
        <pt x="458" y="920" on="1"/>
        <pt x="458" y="975" on="0"/>
        <pt x="420" y="1014" on="1"/>
        <pt x="382" y="1052" on="0"/>
        <pt x="327" y="1052" on="1"/>
        <pt x="316" y="1052" on="1"/>
        <pt x="316" y="1051" on="0"/>
        <pt x="316" y="1051" on="1"/>
        <pt x="264" y="1048" on="0"/>
        <pt x="229" y="1010" on="1"/>
        <pt x="194" y="972" on="0"/>
        <pt x="194" y="920" on="1"/>
        <pt x="194" y="868" on="0"/>
        <pt x="229" y="831" on="1"/>
        <pt x="264" y="793" on="0"/>
        <pt x="316" y="790" on="1"/>
      </contour>
      <contour>
        <pt x="315" y="970" on="1"/>
        <pt x="322" y="972" on="0"/>
        <pt x="326" y="972" on="1"/>
        <pt x="330" y="972" on="0"/>
        <pt x="337" y="970" on="1"/>
        <pt x="338" y="970" on="0"/>
        <pt x="338" y="970" on="1"/>
        <pt x="339" y="970" on="0"/>
        <pt x="340" y="970" on="1"/>
        <pt x="357" y="966" on="0"/>
        <pt x="368" y="952" on="1"/>
        <pt x="378" y="938" on="0"/>
        <pt x="378" y="920" on="1"/>
        <pt x="378" y="902" on="0"/>
        <pt x="368" y="889" on="1"/>
        <pt x="357" y="875" on="0"/>
        <pt x="340" y="871" on="1"/>
        <pt x="339" y="872" on="0"/>
        <pt x="338" y="872" on="1"/>
        <pt x="338" y="872" on="0"/>
        <pt x="337" y="871" on="1"/>
        <pt x="330" y="870" on="0"/>
        <pt x="326" y="870" on="1"/>
        <pt x="322" y="870" on="0"/>
        <pt x="315" y="871" on="1"/>
        <pt x="314" y="872" on="0"/>
        <pt x="314" y="872" on="1"/>
        <pt x="313" y="871" on="0"/>
        <pt x="312" y="871" on="1"/>
        <pt x="295" y="875" on="0"/>
        <pt x="285" y="889" on="1"/>
        <pt x="274" y="902" on="0"/>
        <pt x="275" y="920" on="1"/>
        <pt x="275" y="938" on="0"/>
        <pt x="285" y="952" on="1"/>
        <pt x="295" y="966" on="0"/>
        <pt x="312" y="970" on="1"/>
        <pt x="313" y="970" on="0"/>
        <pt x="314" y="970" on="1"/>
        <pt x="314" y="970" on="0"/>
      </contour>
      <contour>
        <pt x="336" y="975" on="1"/>
        <pt x="330" y="976" on="0"/>
        <pt x="326" y="976" on="1"/>
        <pt x="322" y="976" on="0"/>
        <pt x="316" y="975" on="1"/>
        <pt x="315" y="976" on="0"/>
        <pt x="314" y="976" on="1"/>
        <pt x="314" y="975" on="0"/>
        <pt x="314" y="975" on="1"/>
        <pt x="294" y="972" on="0"/>
        <pt x="282" y="956" on="1"/>
        <pt x="270" y="940" on="0"/>
        <pt x="270" y="920" on="1"/>
        <pt x="270" y="900" on="0"/>
        <pt x="282" y="885" on="1"/>
        <pt x="294" y="869" on="0"/>
        <pt x="314" y="866" on="1"/>
        <pt x="315" y="866" on="0"/>
        <pt x="316" y="866" on="1"/>
        <pt x="322" y="864" on="0"/>
        <pt x="326" y="864" on="1"/>
        <pt x="330" y="864" on="0"/>
        <pt x="336" y="866" on="1"/>
        <pt x="337" y="866" on="0"/>
        <pt x="338" y="866" on="1"/>
        <pt x="358" y="869" on="0"/>
        <pt x="370" y="885" on="1"/>
        <pt x="382" y="900" on="0"/>
        <pt x="382" y="920" on="1"/>
        <pt x="382" y="940" on="0"/>
        <pt x="370" y="956" on="1"/>
        <pt x="358" y="972" on="0"/>
        <pt x="338" y="975" on="1"/>
        <pt x="338" y="976" on="1"/>
        <pt x="337" y="975" on="0"/>
      </contour>
      <contour>
        <pt x="461" y="231" on="1"/>
        <pt x="460" y="231" on="0"/>
        <pt x="459" y="230" on="1"/>
        <pt x="261" y="230" on="1"/>
        <pt x="259" y="230" on="0"/>
        <pt x="259" y="228" on="1"/>
        <pt x="200" y="2" on="1"/>
        <pt x="53" y="2" on="1"/>
        <pt x="268" y="766" on="1"/>
        <pt x="416" y="766" on="1"/>
        <pt x="698" y="2" on="1"/>
        <pt x="552" y="2" on="1"/>
        <pt x="463" y="229" on="1"/>
        <pt x="463" y="231" on="0"/>
      </contour>
      <contour>
        <pt x="301" y="370" on="1"/>
        <pt x="357" y="527" on="1"/>
        <pt x="403" y="370" on="1"/>
      </contour>
      <contour>
        <pt x="407" y="364" on="1"/>
        <pt x="409" y="364" on="0"/>
        <pt x="409" y="367" on="1"/>
        <pt x="409" y="367" on="0"/>
        <pt x="409" y="368" on="1"/>
        <pt x="360" y="536" on="1"/>
        <pt x="359" y="538" on="0"/>
        <pt x="357" y="538" on="1"/>
        <pt x="355" y="538" on="0"/>
        <pt x="355" y="536" on="1"/>
        <pt x="295" y="368" on="1"/>
        <pt x="295" y="367" on="0"/>
        <pt x="295" y="367" on="1"/>
        <pt x="295" y="364" on="0"/>
        <pt x="297" y="364" on="1"/>
      </contour>
      <contour>
        <pt x="202" y="-2" on="1"/>
        <pt x="204" y="-2" on="0"/>
        <pt x="204" y="-1" on="1"/>
        <pt x="263" y="224" on="1"/>
        <pt x="460" y="224" on="1"/>
        <pt x="548" y="-1" on="1"/>
        <pt x="548" y="-2" on="0"/>
        <pt x="550" y="-2" on="1"/>
        <pt x="702" y="-2" on="1"/>
        <pt x="704" y="-2" on="0"/>
        <pt x="704" y="0" on="1"/>
        <pt x="704" y="0" on="0"/>
        <pt x="704" y="1" on="1"/>
        <pt x="420" y="770" on="1"/>
        <pt x="420" y="772" on="0"/>
        <pt x="418" y="772" on="1"/>
        <pt x="266" y="772" on="1"/>
        <pt x="264" y="772" on="0"/>
        <pt x="264" y="770" on="1"/>
        <pt x="48" y="1" on="1"/>
        <pt x="48" y="0" on="0"/>
        <pt x="48" y="0" on="1"/>
        <pt x="48" y="-2" on="0"/>
        <pt x="50" y="-2" on="1"/>
      </contour>
    </TTGlyph>
    <TTGlyph name="Aring.2" xMin="50" yMin="0" xMax="702" yMax="1049">
      <component glyphName="Aring.0" x="50" y="-10" flags="0x4"/>
    </TTGlyph>
    <TTGlyph name="Atilde" xMin="50" yMin="10" xMax="702" yMax="960">
      <component glyphName="tildecomb" x="326" y="31" flags="0x1004"/>
      <component glyphName="A" x="0" y="0" flags="0x1204"/>
    </TTGlyph>
    <TTGlyph name="Atilde.0" xMin="0" yMin="10" xMax="652" yMax="960">
      <contour>
        <pt x="401" y="960" on="1"/>
        <pt x="391" y="950" on="1"/>
        <pt x="382" y="940" on="0"/>
        <pt x="365" y="930" on="1"/>
        <pt x="348" y="920" on="0"/>
        <pt x="333" y="920" on="1"/>
        <pt x="311" y="920" on="0"/>
        <pt x="288" y="920" on="1"/>
        <pt x="272" y="920" on="0"/>
        <pt x="249" y="934" on="1"/>
        <pt x="225" y="947" on="0"/>
        <pt x="208" y="947" on="1"/>
        <pt x="183" y="947" on="0"/>
        <pt x="151" y="919" on="1"/>
        <pt x="151" y="843" on="1"/>
        <pt x="160" y="850" on="1"/>
        <pt x="169" y="857" on="0"/>
        <pt x="184" y="864" on="1"/>
        <pt x="199" y="871" on="0"/>
        <pt x="210" y="871" on="1"/>
        <pt x="226" y="871" on="0"/>
        <pt x="249" y="857" on="1"/>
        <pt x="271" y="843" on="0"/>
        <pt x="287" y="843" on="1"/>
        <pt x="337" y="843" on="1"/>
        <pt x="353" y="843" on="0"/>
        <pt x="369" y="854" on="1"/>
        <pt x="385" y="864" on="0"/>
        <pt x="393" y="873" on="1"/>
        <pt x="400" y="882" on="0"/>
        <pt x="401" y="884" on="1"/>
      </contour>
      <contour>
        <pt x="500" y="10" on="1"/>
        <pt x="652" y="10" on="1"/>
        <pt x="368" y="779" on="1"/>
        <pt x="216" y="779" on="1"/>
        <pt x="0" y="10" on="1"/>
        <pt x="152" y="10" on="1"/>
        <pt x="211" y="237" on="1"/>
        <pt x="411" y="237" on="1"/>
        <pt x="411" y="238" on="1"/>
      </contour>
      <contour>
        <pt x="357" y="377" on="1"/>
        <pt x="247" y="377" on="1"/>
        <pt x="307" y="545" on="1"/>
      </contour>
    </TTGlyph>
    <TTGlyph name="Atilde.1" xMin="48" yMin="-2" xMax="704" yMax="952">
      <contour>
        <pt x="338" y="907" on="1"/>
        <pt x="383" y="907" on="0"/>
        <pt x="383" y="907" on="1"/>
        <pt x="414" y="907" on="0"/>
        <pt x="448" y="943" on="1"/>
        <pt x="448" y="874" on="1"/>
        <pt x="439" y="862" on="0"/>
        <pt x="423" y="849" on="1"/>
        <pt x="406" y="836" on="0"/>
        <pt x="387" y="836" on="1"/>
        <pt x="337" y="836" on="1"/>
        <pt x="321" y="836" on="0"/>
        <pt x="299" y="850" on="1"/>
        <pt x="277" y="864" on="0"/>
        <pt x="260" y="864" on="1"/>
        <pt x="237" y="864" on="0"/>
        <pt x="204" y="838" on="1"/>
        <pt x="204" y="908" on="1"/>
        <pt x="236" y="935" on="0"/>
        <pt x="258" y="935" on="1"/>
        <pt x="274" y="935" on="0"/>
        <pt x="298" y="921" on="1"/>
        <pt x="321" y="907" on="0"/>
      </contour>
      <contour>
        <pt x="258" y="940" on="1"/>
        <pt x="232" y="940" on="0"/>
        <pt x="200" y="911" on="1"/>
        <pt x="199" y="910" on="0"/>
        <pt x="199" y="909" on="1"/>
        <pt x="199" y="833" on="1"/>
        <pt x="199" y="831" on="0"/>
        <pt x="201" y="831" on="1"/>
        <pt x="202" y="831" on="0"/>
        <pt x="203" y="831" on="1"/>
        <pt x="212" y="838" on="1"/>
        <pt x="221" y="845" on="0"/>
        <pt x="236" y="852" on="1"/>
        <pt x="250" y="859" on="0"/>
        <pt x="260" y="859" on="1"/>
        <pt x="276" y="859" on="0"/>
        <pt x="298" y="845" on="1"/>
        <pt x="320" y="831" on="0"/>
        <pt x="337" y="831" on="1"/>
        <pt x="387" y="831" on="1"/>
        <pt x="404" y="831" on="0"/>
        <pt x="421" y="842" on="1"/>
        <pt x="437" y="852" on="0"/>
        <pt x="445" y="862" on="1"/>
        <pt x="453" y="871" on="0"/>
        <pt x="453" y="874" on="1"/>
        <pt x="453" y="950" on="1"/>
        <pt x="453" y="952" on="0"/>
        <pt x="451" y="952" on="1"/>
        <pt x="450" y="952" on="0"/>
        <pt x="449" y="951" on="1"/>
        <pt x="445" y="947" on="0"/>
        <pt x="439" y="941" on="1"/>
        <pt x="432" y="934" on="0"/>
        <pt x="415" y="923" on="1"/>
        <pt x="397" y="912" on="0"/>
        <pt x="383" y="912" on="1"/>
        <pt x="361" y="912" on="0"/>
        <pt x="338" y="912" on="1"/>
        <pt x="322" y="912" on="0"/>
        <pt x="299" y="926" on="1"/>
        <pt x="275" y="940" on="0"/>
      </contour>
      <contour>
        <pt x="461" y="231" on="1"/>
        <pt x="460" y="231" on="0"/>
        <pt x="459" y="230" on="1"/>
        <pt x="261" y="230" on="1"/>
        <pt x="259" y="230" on="0"/>
        <pt x="259" y="228" on="1"/>
        <pt x="200" y="2" on="1"/>
        <pt x="53" y="2" on="1"/>
        <pt x="268" y="766" on="1"/>
        <pt x="416" y="766" on="1"/>
        <pt x="698" y="2" on="1"/>
        <pt x="552" y="2" on="1"/>
        <pt x="463" y="229" on="1"/>
        <pt x="463" y="231" on="0"/>
      </contour>
      <contour>
        <pt x="301" y="370" on="1"/>
        <pt x="357" y="527" on="1"/>
        <pt x="403" y="370" on="1"/>
      </contour>
      <contour>
        <pt x="407" y="364" on="1"/>
        <pt x="409" y="364" on="0"/>
        <pt x="409" y="367" on="1"/>
        <pt x="409" y="367" on="0"/>
        <pt x="409" y="368" on="1"/>
        <pt x="360" y="536" on="1"/>
        <pt x="359" y="538" on="0"/>
        <pt x="357" y="538" on="1"/>
        <pt x="355" y="538" on="0"/>
        <pt x="355" y="536" on="1"/>
        <pt x="295" y="368" on="1"/>
        <pt x="295" y="367" on="0"/>
        <pt x="295" y="367" on="1"/>
        <pt x="295" y="364" on="0"/>
        <pt x="297" y="364" on="1"/>
      </contour>
      <contour>
        <pt x="202" y="-2" on="1"/>
        <pt x="204" y="-2" on="0"/>
        <pt x="204" y="-1" on="1"/>
        <pt x="263" y="224" on="1"/>
        <pt x="460" y="224" on="1"/>
        <pt x="548" y="-1" on="1"/>
        <pt x="548" y="-2" on="0"/>
        <pt x="550" y="-2" on="1"/>
        <pt x="702" y="-2" on="1"/>
        <pt x="704" y="-2" on="0"/>
        <pt x="704" y="0" on="1"/>
        <pt x="704" y="0" on="0"/>
        <pt x="704" y="1" on="1"/>
        <pt x="420" y="770" on="1"/>
        <pt x="420" y="772" on="0"/>
        <pt x="418" y="772" on="1"/>
        <pt x="266" y="772" on="1"/>
        <pt x="264" y="772" on="0"/>
        <pt x="264" y="770" on="1"/>
        <pt x="48" y="1" on="1"/>
        <pt x="48" y="0" on="0"/>
        <pt x="48" y="0" on="1"/>
        <pt x="48" y="-2" on="0"/>
        <pt x="50" y="-2" on="1"/>
      </contour>
    </TTGlyph>
    <TTGlyph name="Atilde.2" xMin="50" yMin="0" xMax="702" yMax="950">
      <component glyphName="Atilde.0" x="50" y="-10" flags="0x4"/>
    </TTGlyph>
    <TTGlyph name="B" xMin="50" yMin="13" xMax="484" yMax="790">
      <contour>
        <pt x="202" y="790" on="1"/>
        <pt x="208" y="790" on="0"/>
        <pt x="220" y="790" on="1"/>
        <pt x="327" y="790" on="0"/>
        <pt x="478" y="639" on="0"/>
        <pt x="478" y="532" on="1"/>
        <pt x="478" y="509" on="0"/>
        <pt x="450" y="465" on="0"/>
        <pt x="401" y="413" on="0"/>
        <pt x="395" y="406" on="1"/>
        <pt x="397" y="404" on="0"/>
        <pt x="458" y="340" on="0"/>
        <pt x="484" y="295" on="0"/>
        <pt x="484" y="270" on="1"/>
        <pt x="484" y="163" on="0"/>
        <pt x="333" y="13" on="0"/>
        <pt x="226" y="13" on="1"/>
        <pt x="210" y="13" on="0"/>
        <pt x="202" y="14" on="1"/>
        <pt x="50" y="14" on="1"/>
        <pt x="50" y="790" on="1"/>
      </contour>
      <contour>
        <pt x="202" y="146" on="1"/>
        <pt x="214" y="143" on="0"/>
        <pt x="226" y="143" on="1"/>
        <pt x="271" y="143" on="0"/>
        <pt x="333" y="205" on="0"/>
        <pt x="333" y="249" on="1"/>
        <pt x="333" y="294" on="0"/>
        <pt x="271" y="356" on="0"/>
        <pt x="226" y="356" on="1"/>
        <pt x="214" y="356" on="0"/>
        <pt x="202" y="353" on="1"/>
      </contour>
      <contour>
        <pt x="202" y="464" on="1"/>
        <pt x="214" y="461" on="0"/>
        <pt x="226" y="461" on="1"/>
        <pt x="271" y="461" on="0"/>
        <pt x="333" y="523" on="0"/>
        <pt x="333" y="567" on="1"/>
        <pt x="333" y="612" on="0"/>
        <pt x="271" y="674" on="0"/>
        <pt x="226" y="674" on="1"/>
        <pt x="214" y="674" on="0"/>
        <pt x="202" y="671" on="1"/>
      </contour>
    </TTGlyph>
    <TTGlyph name="B.0" xMin="0" yMin="13" xMax="434" yMax="790">
      <contour>
        <pt x="152" y="790" on="1"/>
        <pt x="0" y="790" on="1"/>
        <pt x="0" y="14" on="1"/>
        <pt x="152" y="14" on="1"/>
        <pt x="160" y="13" on="0"/>
        <pt x="176" y="13" on="1"/>
        <pt x="283" y="13" on="0"/>
        <pt x="359" y="88" on="1"/>
        <pt x="434" y="163" on="0"/>
        <pt x="434" y="270" on="1"/>
        <pt x="434" y="295" on="0"/>
        <pt x="421" y="318" on="1"/>
        <pt x="408" y="340" on="0"/>
        <pt x="378" y="372" on="1"/>
        <pt x="347" y="404" on="0"/>
        <pt x="345" y="406" on="1"/>
        <pt x="351" y="413" on="0"/>
        <pt x="376" y="439" on="1"/>
        <pt x="400" y="465" on="0"/>
        <pt x="414" y="487" on="1"/>
        <pt x="428" y="509" on="0"/>
        <pt x="428" y="532" on="1"/>
        <pt x="428" y="639" on="0"/>
        <pt x="353" y="715" on="1"/>
        <pt x="277" y="790" on="0"/>
        <pt x="170" y="790" on="1"/>
        <pt x="158" y="790" on="0"/>
      </contour>
      <contour>
        <pt x="152" y="146" on="1"/>
        <pt x="152" y="353" on="1"/>
        <pt x="164" y="356" on="0"/>
        <pt x="176" y="356" on="1"/>
        <pt x="221" y="356" on="0"/>
        <pt x="252" y="325" on="1"/>
        <pt x="283" y="294" on="0"/>
        <pt x="283" y="249" on="1"/>
        <pt x="283" y="205" on="0"/>
        <pt x="252" y="174" on="1"/>
        <pt x="221" y="143" on="0"/>
        <pt x="176" y="143" on="1"/>
        <pt x="164" y="143" on="0"/>
      </contour>
      <contour>
        <pt x="152" y="464" on="1"/>
        <pt x="152" y="671" on="1"/>
        <pt x="164" y="674" on="0"/>
        <pt x="176" y="674" on="1"/>
        <pt x="221" y="674" on="0"/>
        <pt x="252" y="643" on="1"/>
        <pt x="283" y="612" on="0"/>
        <pt x="283" y="567" on="1"/>
        <pt x="283" y="523" on="0"/>
        <pt x="252" y="492" on="1"/>
        <pt x="221" y="461" on="0"/>
        <pt x="176" y="461" on="1"/>
        <pt x="164" y="461" on="0"/>
      </contour>
    </TTGlyph>
    <TTGlyph name="B.1" xMin="48" yMin="0" xMax="486" yMax="783">
      <contour>
        <pt x="220" y="778" on="1"/>
        <pt x="326" y="778" on="0"/>
        <pt x="401" y="703" on="1"/>
        <pt x="476" y="628" on="0"/>
        <pt x="476" y="522" on="1"/>
        <pt x="476" y="505" on="0"/>
        <pt x="466" y="487" on="1"/>
        <pt x="456" y="468" on="0"/>
        <pt x="446" y="457" on="1"/>
        <pt x="436" y="445" on="0"/>
        <pt x="419" y="426" on="1"/>
        <pt x="400" y="406" on="0"/>
        <pt x="393" y="398" on="1"/>
        <pt x="392" y="397" on="0"/>
        <pt x="392" y="396" on="1"/>
        <pt x="392" y="395" on="0"/>
        <pt x="393" y="394" on="1"/>
        <pt x="396" y="391" on="0"/>
        <pt x="426" y="360" on="1"/>
        <pt x="456" y="328" on="0"/>
        <pt x="469" y="306" on="1"/>
        <pt x="482" y="284" on="0"/>
        <pt x="482" y="260" on="1"/>
        <pt x="482" y="154" on="0"/>
        <pt x="407" y="80" on="1"/>
        <pt x="332" y="6" on="0"/>
        <pt x="226" y="6" on="1"/>
        <pt x="210" y="6" on="0"/>
        <pt x="202" y="6" on="1"/>
        <pt x="52" y="6" on="1"/>
        <pt x="52" y="778" on="1"/>
        <pt x="201" y="778" on="1"/>
        <pt x="201" y="777" on="0"/>
        <pt x="202" y="777" on="1"/>
        <pt x="205" y="777" on="0"/>
        <pt x="211" y="778" on="1"/>
        <pt x="217" y="778" on="0"/>
      </contour>
      <contour>
        <pt x="226" y="136" on="1"/>
        <pt x="215" y="136" on="0"/>
        <pt x="204" y="138" on="1"/>
        <pt x="204" y="341" on="1"/>
        <pt x="215" y="344" on="0"/>
        <pt x="226" y="344" on="1"/>
        <pt x="270" y="344" on="0"/>
        <pt x="300" y="314" on="1"/>
        <pt x="330" y="283" on="0"/>
        <pt x="330" y="239" on="1"/>
        <pt x="330" y="196" on="0"/>
        <pt x="300" y="166" on="1"/>
        <pt x="270" y="136" on="0"/>
      </contour>
      <contour>
        <pt x="200" y="136" on="1"/>
        <pt x="200" y="134" on="0"/>
        <pt x="201" y="134" on="1"/>
        <pt x="214" y="130" on="0"/>
        <pt x="226" y="130" on="1"/>
        <pt x="272" y="130" on="0"/>
        <pt x="304" y="162" on="1"/>
        <pt x="336" y="194" on="0"/>
        <pt x="336" y="239" on="1"/>
        <pt x="336" y="285" on="0"/>
        <pt x="304" y="317" on="1"/>
        <pt x="272" y="348" on="0"/>
        <pt x="226" y="348" on="1"/>
        <pt x="214" y="348" on="0"/>
        <pt x="201" y="345" on="1"/>
        <pt x="200" y="345" on="0"/>
        <pt x="200" y="343" on="1"/>
      </contour>
      <contour>
        <pt x="226" y="454" on="1"/>
        <pt x="215" y="454" on="0"/>
        <pt x="204" y="456" on="1"/>
        <pt x="204" y="659" on="1"/>
        <pt x="215" y="662" on="0"/>
        <pt x="226" y="662" on="1"/>
        <pt x="270" y="662" on="0"/>
        <pt x="300" y="632" on="1"/>
        <pt x="330" y="601" on="0"/>
        <pt x="330" y="557" on="1"/>
        <pt x="330" y="514" on="0"/>
        <pt x="300" y="484" on="1"/>
        <pt x="270" y="454" on="0"/>
      </contour>
      <contour>
        <pt x="200" y="454" on="1"/>
        <pt x="200" y="452" on="0"/>
        <pt x="201" y="452" on="1"/>
        <pt x="214" y="448" on="0"/>
        <pt x="226" y="448" on="1"/>
        <pt x="272" y="448" on="0"/>
        <pt x="304" y="480" on="1"/>
        <pt x="336" y="512" on="0"/>
        <pt x="336" y="557" on="1"/>
        <pt x="336" y="603" on="0"/>
        <pt x="304" y="635" on="1"/>
        <pt x="272" y="666" on="0"/>
        <pt x="226" y="666" on="1"/>
        <pt x="214" y="666" on="0"/>
        <pt x="201" y="663" on="1"/>
        <pt x="200" y="663" on="0"/>
        <pt x="200" y="661" on="1"/>
      </contour>
      <contour>
        <pt x="398" y="396" on="1"/>
        <pt x="404" y="403" on="0"/>
        <pt x="430" y="430" on="1"/>
        <pt x="455" y="456" on="0"/>
        <pt x="468" y="478" on="1"/>
        <pt x="480" y="499" on="0"/>
        <pt x="480" y="522" on="1"/>
        <pt x="480" y="630" on="0"/>
        <pt x="404" y="706" on="1"/>
        <pt x="328" y="782" on="0"/>
        <pt x="220" y="782" on="1"/>
        <pt x="220" y="783" on="0"/>
        <pt x="220" y="783" on="1"/>
        <pt x="209" y="783" on="0"/>
        <pt x="203" y="782" on="1"/>
        <pt x="203" y="782" on="0"/>
        <pt x="202" y="782" on="1"/>
        <pt x="50" y="782" on="1"/>
        <pt x="48" y="782" on="0"/>
        <pt x="48" y="780" on="1"/>
        <pt x="48" y="4" on="1"/>
        <pt x="48" y="2" on="0"/>
        <pt x="50" y="2" on="1"/>
        <pt x="202" y="2" on="1"/>
        <pt x="206" y="2" on="0"/>
        <pt x="214" y="1" on="1"/>
        <pt x="222" y="0" on="0"/>
        <pt x="226" y="0" on="1"/>
        <pt x="334" y="0" on="0"/>
        <pt x="410" y="76" on="1"/>
        <pt x="486" y="152" on="0"/>
        <pt x="486" y="260" on="1"/>
        <pt x="486" y="279" on="0"/>
        <pt x="476" y="300" on="1"/>
        <pt x="466" y="321" on="0"/>
        <pt x="455" y="334" on="1"/>
        <pt x="444" y="347" on="0"/>
        <pt x="425" y="368" on="1"/>
        <pt x="405" y="388" on="0"/>
      </contour>
    </TTGlyph>
    <TTGlyph name="B.2" xMin="50" yMin="3" xMax="484" yMax="780">
      <component glyphName="B.0" x="50" y="-10" flags="0x4"/>
    </TTGlyph>
    <TTGlyph name="C" xMin="50" yMin="-4" xMax="505" yMax="783">
      <contour>
        <pt x="432" y="622" on="1"/>
        <pt x="337" y="622" on="0"/>
        <pt x="203" y="485" on="0"/>
        <pt x="203" y="388" on="1"/>
        <pt x="203" y="290" on="0"/>
        <pt x="337" y="153" on="0"/>
        <pt x="432" y="153" on="1"/>
        <pt x="470" y="153" on="0"/>
        <pt x="505" y="165" on="1"/>
        <pt x="505" y="3" on="1"/>
        <pt x="469" y="-4" on="0"/>
        <pt x="432" y="-4" on="1"/>
        <pt x="274" y="-4" on="0"/>
        <pt x="50" y="227" on="0"/>
        <pt x="50" y="553" on="0"/>
        <pt x="274" y="783" on="0"/>
        <pt x="432" y="783" on="1"/>
        <pt x="469" y="783" on="0"/>
        <pt x="505" y="776" on="1"/>
        <pt x="505" y="610" on="1"/>
        <pt x="470" y="622" on="0"/>
      </contour>
    </TTGlyph>
    <TTGlyph name="C.0" xMin="0" yMin="-4" xMax="455" yMax="783">
      <contour>
        <pt x="382" y="622" on="1"/>
        <pt x="420" y="622" on="0"/>
        <pt x="455" y="610" on="1"/>
        <pt x="455" y="776" on="1"/>
        <pt x="419" y="783" on="0"/>
        <pt x="382" y="783" on="1"/>
        <pt x="224" y="783" on="0"/>
        <pt x="112" y="668" on="1"/>
        <pt x="0" y="553" on="0"/>
        <pt x="0" y="390" on="1"/>
        <pt x="0" y="227" on="0"/>
        <pt x="112" y="112" on="1"/>
        <pt x="224" y="-4" on="0"/>
        <pt x="382" y="-4" on="1"/>
        <pt x="419" y="-4" on="0"/>
        <pt x="455" y="3" on="1"/>
        <pt x="455" y="165" on="1"/>
        <pt x="420" y="153" on="0"/>
        <pt x="382" y="153" on="1"/>
        <pt x="287" y="153" on="0"/>
        <pt x="220" y="222" on="1"/>
        <pt x="153" y="290" on="0"/>
        <pt x="153" y="388" on="1"/>
        <pt x="153" y="485" on="0"/>
        <pt x="220" y="554" on="1"/>
        <pt x="287" y="622" on="0"/>
      </contour>
    </TTGlyph>
    <TTGlyph name="C.1" xMin="48" yMin="-16" xMax="508" yMax="776">
      <contour>
        <pt x="200" y="378" on="1"/>
        <pt x="200" y="279" on="0"/>
        <pt x="268" y="210" on="1"/>
        <pt x="336" y="140" on="0"/>
        <pt x="432" y="140" on="1"/>
        <pt x="468" y="140" on="0"/>
        <pt x="502" y="152" on="1"/>
        <pt x="502" y="-5" on="1"/>
        <pt x="468" y="-12" on="0"/>
        <pt x="432" y="-12" on="1"/>
        <pt x="329" y="-12" on="0"/>
        <pt x="242" y="41" on="1"/>
        <pt x="154" y="93" on="0"/>
        <pt x="103" y="183" on="1"/>
        <pt x="52" y="273" on="0"/>
        <pt x="52" y="380" on="1"/>
        <pt x="52" y="486" on="0"/>
        <pt x="103" y="576" on="1"/>
        <pt x="154" y="666" on="0"/>
        <pt x="242" y="718" on="1"/>
        <pt x="329" y="770" on="0"/>
        <pt x="432" y="770" on="1"/>
        <pt x="468" y="770" on="0"/>
        <pt x="502" y="764" on="1"/>
        <pt x="502" y="603" on="1"/>
        <pt x="468" y="614" on="0"/>
        <pt x="432" y="614" on="1"/>
        <pt x="336" y="614" on="0"/>
        <pt x="268" y="545" on="1"/>
        <pt x="200" y="476" on="0"/>
      </contour>
      <contour>
        <pt x="432" y="610" on="1"/>
        <pt x="469" y="610" on="0"/>
        <pt x="504" y="598" on="1"/>
        <pt x="505" y="597" on="0"/>
        <pt x="505" y="597" on="1"/>
        <pt x="508" y="597" on="0"/>
        <pt x="508" y="600" on="1"/>
        <pt x="508" y="766" on="1"/>
        <pt x="508" y="768" on="0"/>
        <pt x="505" y="768" on="1"/>
        <pt x="469" y="776" on="0"/>
        <pt x="432" y="776" on="1"/>
        <pt x="328" y="776" on="0"/>
        <pt x="239" y="723" on="1"/>
        <pt x="150" y="670" on="0"/>
        <pt x="99" y="579" on="1"/>
        <pt x="48" y="487" on="0"/>
        <pt x="48" y="380" on="1"/>
        <pt x="48" y="272" on="0"/>
        <pt x="99" y="181" on="1"/>
        <pt x="150" y="89" on="0"/>
        <pt x="239" y="37" on="1"/>
        <pt x="327" y="-16" on="0"/>
        <pt x="432" y="-16" on="1"/>
        <pt x="469" y="-16" on="0"/>
        <pt x="505" y="-9" on="1"/>
        <pt x="508" y="-9" on="0"/>
        <pt x="508" y="-7" on="1"/>
        <pt x="508" y="155" on="1"/>
        <pt x="508" y="158" on="0"/>
        <pt x="505" y="158" on="1"/>
        <pt x="505" y="158" on="0"/>
        <pt x="504" y="157" on="1"/>
        <pt x="469" y="146" on="0"/>
        <pt x="432" y="146" on="1"/>
        <pt x="338" y="146" on="0"/>
        <pt x="272" y="214" on="1"/>
        <pt x="206" y="281" on="0"/>
        <pt x="206" y="378" on="1"/>
        <pt x="206" y="474" on="0"/>
        <pt x="272" y="542" on="1"/>
        <pt x="338" y="610" on="0"/>
      </contour>
    </TTGlyph>
    <TTGlyph name="C.2" xMin="50" yMin="-14" xMax="505" yMax="773">
      <component glyphName="C.0" x="50" y="-10" flags="0x4"/>
    </TTGlyph>
    <TTGlyph name="Cacute" xMin="50" yMin="-4" xMax="614" yMax="1132">
      <component glyphName="acutecomb" x="469" y="317" flags="0x1004"/>
      <component glyphName="C" x="0" y="0" flags="0x1204"/>
    </TTGlyph>
    <TTGlyph name="Cacute.0" xMin="0" yMin="-4" xMax="564" yMax="1132">
      <contour>
        <pt x="382" y="843" on="1"/>
        <pt x="564" y="1025" on="1"/>
        <pt x="456" y="1132" on="1"/>
        <pt x="274" y="950" on="1"/>
      </contour>
      <contour>
        <pt x="382" y="622" on="1"/>
        <pt x="420" y="622" on="0"/>
        <pt x="455" y="610" on="1"/>
        <pt x="455" y="776" on="1"/>
        <pt x="419" y="783" on="0"/>
        <pt x="382" y="783" on="1"/>
        <pt x="224" y="783" on="0"/>
        <pt x="112" y="668" on="1"/>
        <pt x="0" y="553" on="0"/>
        <pt x="0" y="390" on="1"/>
        <pt x="0" y="227" on="0"/>
        <pt x="112" y="112" on="1"/>
        <pt x="224" y="-4" on="0"/>
        <pt x="382" y="-4" on="1"/>
        <pt x="419" y="-4" on="0"/>
        <pt x="455" y="3" on="1"/>
        <pt x="455" y="165" on="1"/>
        <pt x="420" y="153" on="0"/>
        <pt x="382" y="153" on="1"/>
        <pt x="287" y="153" on="0"/>
        <pt x="220" y="222" on="1"/>
        <pt x="153" y="290" on="0"/>
        <pt x="153" y="388" on="1"/>
        <pt x="153" y="485" on="0"/>
        <pt x="220" y="554" on="1"/>
        <pt x="287" y="622" on="0"/>
      </contour>
    </TTGlyph>
    <TTGlyph name="Cacute.1" xMin="48" yMin="-16" xMax="617" yMax="1125">
      <contour>
        <pt x="328" y="940" on="1"/>
        <pt x="506" y="1118" on="1"/>
        <pt x="610" y="1015" on="1"/>
        <pt x="432" y="837" on="1"/>
      </contour>
      <contour>
        <pt x="322" y="942" on="1"/>
        <pt x="321" y="941" on="0"/>
        <pt x="321" y="940" on="1"/>
        <pt x="321" y="939" on="0"/>
        <pt x="322" y="938" on="1"/>
        <pt x="430" y="831" on="1"/>
        <pt x="431" y="831" on="0"/>
        <pt x="432" y="831" on="1"/>
        <pt x="433" y="831" on="0"/>
        <pt x="434" y="831" on="1"/>
        <pt x="616" y="1013" on="1"/>
        <pt x="617" y="1014" on="0"/>
        <pt x="617" y="1015" on="1"/>
        <pt x="617" y="1016" on="0"/>
        <pt x="616" y="1017" on="1"/>
        <pt x="508" y="1124" on="1"/>
        <pt x="507" y="1125" on="0"/>
        <pt x="506" y="1125" on="1"/>
        <pt x="505" y="1125" on="0"/>
        <pt x="504" y="1124" on="1"/>
      </contour>
      <contour>
        <pt x="200" y="378" on="1"/>
        <pt x="200" y="279" on="0"/>
        <pt x="268" y="210" on="1"/>
        <pt x="336" y="140" on="0"/>
        <pt x="432" y="140" on="1"/>
        <pt x="468" y="140" on="0"/>
        <pt x="502" y="152" on="1"/>
        <pt x="502" y="-5" on="1"/>
        <pt x="468" y="-12" on="0"/>
        <pt x="432" y="-12" on="1"/>
        <pt x="329" y="-12" on="0"/>
        <pt x="242" y="41" on="1"/>
        <pt x="154" y="93" on="0"/>
        <pt x="103" y="183" on="1"/>
        <pt x="52" y="273" on="0"/>
        <pt x="52" y="380" on="1"/>
        <pt x="52" y="486" on="0"/>
        <pt x="103" y="576" on="1"/>
        <pt x="154" y="666" on="0"/>
        <pt x="242" y="718" on="1"/>
        <pt x="329" y="770" on="0"/>
        <pt x="432" y="770" on="1"/>
        <pt x="468" y="770" on="0"/>
        <pt x="502" y="764" on="1"/>
        <pt x="502" y="603" on="1"/>
        <pt x="468" y="614" on="0"/>
        <pt x="432" y="614" on="1"/>
        <pt x="336" y="614" on="0"/>
        <pt x="268" y="545" on="1"/>
        <pt x="200" y="476" on="0"/>
      </contour>
      <contour>
        <pt x="432" y="610" on="1"/>
        <pt x="469" y="610" on="0"/>
        <pt x="504" y="598" on="1"/>
        <pt x="505" y="597" on="0"/>
        <pt x="505" y="597" on="1"/>
        <pt x="508" y="597" on="0"/>
        <pt x="508" y="600" on="1"/>
        <pt x="508" y="766" on="1"/>
        <pt x="508" y="768" on="0"/>
        <pt x="505" y="768" on="1"/>
        <pt x="469" y="776" on="0"/>
        <pt x="432" y="776" on="1"/>
        <pt x="328" y="776" on="0"/>
        <pt x="239" y="723" on="1"/>
        <pt x="150" y="670" on="0"/>
        <pt x="99" y="579" on="1"/>
        <pt x="48" y="487" on="0"/>
        <pt x="48" y="380" on="1"/>
        <pt x="48" y="272" on="0"/>
        <pt x="99" y="181" on="1"/>
        <pt x="150" y="89" on="0"/>
        <pt x="239" y="37" on="1"/>
        <pt x="327" y="-16" on="0"/>
        <pt x="432" y="-16" on="1"/>
        <pt x="469" y="-16" on="0"/>
        <pt x="505" y="-9" on="1"/>
        <pt x="508" y="-9" on="0"/>
        <pt x="508" y="-7" on="1"/>
        <pt x="508" y="155" on="1"/>
        <pt x="508" y="158" on="0"/>
        <pt x="505" y="158" on="1"/>
        <pt x="505" y="158" on="0"/>
        <pt x="504" y="157" on="1"/>
        <pt x="469" y="146" on="0"/>
        <pt x="432" y="146" on="1"/>
        <pt x="338" y="146" on="0"/>
        <pt x="272" y="214" on="1"/>
        <pt x="206" y="281" on="0"/>
        <pt x="206" y="378" on="1"/>
        <pt x="206" y="474" on="0"/>
        <pt x="272" y="542" on="1"/>
        <pt x="338" y="610" on="0"/>
      </contour>
    </TTGlyph>
    <TTGlyph name="Cacute.2" xMin="50" yMin="-14" xMax="614" yMax="1122">
      <component glyphName="Cacute.0" x="50" y="-10" flags="0x4"/>
    </TTGlyph>
    <TTGlyph name="Ccaron" xMin="50" yMin="-4" xMax="532" yMax="1011">
      <component glyphName="uni030C" x="432" y="67" flags="0x1004"/>
      <component glyphName="C" x="0" y="0" flags="0x1204"/>
    </TTGlyph>
    <TTGlyph name="Ccaron.0" xMin="0" yMin="-4" xMax="482" yMax="1011">
      <contour>
        <pt x="282" y="1011" on="1"/>
        <pt x="353" y="843" on="1"/>
        <pt x="354" y="843" on="1"/>
        <pt x="429" y="843" on="1"/>
        <pt x="430" y="843" on="1"/>
        <pt x="482" y="1011" on="1"/>
        <pt x="406" y="1011" on="1"/>
        <pt x="386" y="903" on="1"/>
        <pt x="358" y="1011" on="1"/>
      </contour>
      <contour>
        <pt x="382" y="622" on="1"/>
        <pt x="420" y="622" on="0"/>
        <pt x="455" y="610" on="1"/>
        <pt x="455" y="776" on="1"/>
        <pt x="419" y="783" on="0"/>
        <pt x="382" y="783" on="1"/>
        <pt x="224" y="783" on="0"/>
        <pt x="112" y="668" on="1"/>
        <pt x="0" y="553" on="0"/>
        <pt x="0" y="390" on="1"/>
        <pt x="0" y="227" on="0"/>
        <pt x="112" y="112" on="1"/>
        <pt x="224" y="-4" on="0"/>
        <pt x="382" y="-4" on="1"/>
        <pt x="419" y="-4" on="0"/>
        <pt x="455" y="3" on="1"/>
        <pt x="455" y="165" on="1"/>
        <pt x="420" y="153" on="0"/>
        <pt x="382" y="153" on="1"/>
        <pt x="287" y="153" on="0"/>
        <pt x="220" y="222" on="1"/>
        <pt x="153" y="290" on="0"/>
        <pt x="153" y="388" on="1"/>
        <pt x="153" y="485" on="0"/>
        <pt x="220" y="554" on="1"/>
        <pt x="287" y="622" on="0"/>
      </contour>
    </TTGlyph>
    <TTGlyph name="Ccaron.1" xMin="48" yMin="-16" xMax="534" yMax="1003">
      <contour>
        <pt x="434" y="892" on="1"/>
        <pt x="434" y="891" on="0"/>
        <pt x="436" y="891" on="1"/>
        <pt x="438" y="891" on="0"/>
        <pt x="438" y="893" on="1"/>
        <pt x="458" y="999" on="1"/>
        <pt x="529" y="999" on="1"/>
        <pt x="478" y="835" on="1"/>
        <pt x="405" y="835" on="1"/>
        <pt x="336" y="999" on="1"/>
        <pt x="406" y="999" on="1"/>
      </contour>
      <contour>
        <pt x="332" y="1003" on="1"/>
        <pt x="330" y="1003" on="0"/>
        <pt x="330" y="1001" on="1"/>
        <pt x="330" y="1000" on="0"/>
        <pt x="330" y="1000" on="1"/>
        <pt x="401" y="832" on="1"/>
        <pt x="401" y="831" on="0"/>
        <pt x="403" y="831" on="1"/>
        <pt x="480" y="831" on="1"/>
        <pt x="482" y="831" on="0"/>
        <pt x="482" y="832" on="1"/>
        <pt x="534" y="1000" on="1"/>
        <pt x="534" y="1001" on="0"/>
        <pt x="534" y="1001" on="1"/>
        <pt x="534" y="1003" on="0"/>
        <pt x="532" y="1003" on="1"/>
        <pt x="456" y="1003" on="1"/>
        <pt x="454" y="1003" on="0"/>
        <pt x="454" y="1001" on="1"/>
        <pt x="436" y="905" on="1"/>
        <pt x="410" y="1002" on="1"/>
        <pt x="410" y="1003" on="0"/>
        <pt x="408" y="1003" on="1"/>
      </contour>
      <contour>
        <pt x="200" y="378" on="1"/>
        <pt x="200" y="279" on="0"/>
        <pt x="268" y="210" on="1"/>
        <pt x="336" y="140" on="0"/>
        <pt x="432" y="140" on="1"/>
        <pt x="468" y="140" on="0"/>
        <pt x="502" y="152" on="1"/>
        <pt x="502" y="-5" on="1"/>
        <pt x="468" y="-12" on="0"/>
        <pt x="432" y="-12" on="1"/>
        <pt x="329" y="-12" on="0"/>
        <pt x="242" y="41" on="1"/>
        <pt x="154" y="93" on="0"/>
        <pt x="103" y="183" on="1"/>
        <pt x="52" y="273" on="0"/>
        <pt x="52" y="380" on="1"/>
        <pt x="52" y="486" on="0"/>
        <pt x="103" y="576" on="1"/>
        <pt x="154" y="666" on="0"/>
        <pt x="242" y="718" on="1"/>
        <pt x="329" y="770" on="0"/>
        <pt x="432" y="770" on="1"/>
        <pt x="468" y="770" on="0"/>
        <pt x="502" y="764" on="1"/>
        <pt x="502" y="603" on="1"/>
        <pt x="468" y="614" on="0"/>
        <pt x="432" y="614" on="1"/>
        <pt x="336" y="614" on="0"/>
        <pt x="268" y="545" on="1"/>
        <pt x="200" y="476" on="0"/>
      </contour>
      <contour>
        <pt x="432" y="610" on="1"/>
        <pt x="469" y="610" on="0"/>
        <pt x="504" y="598" on="1"/>
        <pt x="505" y="597" on="0"/>
        <pt x="505" y="597" on="1"/>
        <pt x="508" y="597" on="0"/>
        <pt x="508" y="600" on="1"/>
        <pt x="508" y="766" on="1"/>
        <pt x="508" y="768" on="0"/>
        <pt x="505" y="768" on="1"/>
        <pt x="469" y="776" on="0"/>
        <pt x="432" y="776" on="1"/>
        <pt x="328" y="776" on="0"/>
        <pt x="239" y="723" on="1"/>
        <pt x="150" y="670" on="0"/>
        <pt x="99" y="579" on="1"/>
        <pt x="48" y="487" on="0"/>
        <pt x="48" y="380" on="1"/>
        <pt x="48" y="272" on="0"/>
        <pt x="99" y="181" on="1"/>
        <pt x="150" y="89" on="0"/>
        <pt x="239" y="37" on="1"/>
        <pt x="327" y="-16" on="0"/>
        <pt x="432" y="-16" on="1"/>
        <pt x="469" y="-16" on="0"/>
        <pt x="505" y="-9" on="1"/>
        <pt x="508" y="-9" on="0"/>
        <pt x="508" y="-7" on="1"/>
        <pt x="508" y="155" on="1"/>
        <pt x="508" y="158" on="0"/>
        <pt x="505" y="158" on="1"/>
        <pt x="505" y="158" on="0"/>
        <pt x="504" y="157" on="1"/>
        <pt x="469" y="146" on="0"/>
        <pt x="432" y="146" on="1"/>
        <pt x="338" y="146" on="0"/>
        <pt x="272" y="214" on="1"/>
        <pt x="206" y="281" on="0"/>
        <pt x="206" y="378" on="1"/>
        <pt x="206" y="474" on="0"/>
        <pt x="272" y="542" on="1"/>
        <pt x="338" y="610" on="0"/>
      </contour>
    </TTGlyph>
    <TTGlyph name="Ccaron.2" xMin="50" yMin="-14" xMax="532" yMax="1001">
      <component glyphName="Ccaron.0" x="50" y="-10" flags="0x4"/>
    </TTGlyph>
    <TTGlyph name="Ccedilla" xMin="50" yMin="-252" xMax="567" yMax="783">
      <component glyphName="uni0327" x="496" y="-194" flags="0x1004"/>
      <component glyphName="C" x="0" y="0" flags="0x1204"/>
    </TTGlyph>
    <TTGlyph name="Ccedilla.0" xMin="0" yMin="-252" xMax="517" yMax="783">
      <contour>
        <pt x="375" y="-252" on="1"/>
        <pt x="388" y="-252" on="1"/>
        <pt x="442" y="-252" on="0"/>
        <pt x="480" y="-214" on="1"/>
        <pt x="517" y="-177" on="0"/>
        <pt x="517" y="-124" on="1"/>
        <pt x="517" y="-70" on="0"/>
        <pt x="480" y="-32" on="1"/>
        <pt x="442" y="5" on="0"/>
        <pt x="388" y="5" on="1"/>
        <pt x="375" y="5" on="1"/>
        <pt x="375" y="-72" on="1"/>
        <pt x="383" y="-70" on="0"/>
        <pt x="388" y="-70" on="1"/>
        <pt x="410" y="-70" on="0"/>
        <pt x="426" y="-86" on="1"/>
        <pt x="442" y="-102" on="0"/>
        <pt x="442" y="-124" on="1"/>
        <pt x="442" y="-146" on="0"/>
        <pt x="427" y="-161" on="1"/>
        <pt x="411" y="-177" on="0"/>
        <pt x="388" y="-177" on="1"/>
        <pt x="383" y="-177" on="0"/>
        <pt x="375" y="-175" on="1"/>
      </contour>
      <contour>
        <pt x="382" y="622" on="1"/>
        <pt x="420" y="622" on="0"/>
        <pt x="455" y="610" on="1"/>
        <pt x="455" y="776" on="1"/>
        <pt x="419" y="783" on="0"/>
        <pt x="382" y="783" on="1"/>
        <pt x="224" y="783" on="0"/>
        <pt x="112" y="668" on="1"/>
        <pt x="0" y="553" on="0"/>
        <pt x="0" y="390" on="1"/>
        <pt x="0" y="227" on="0"/>
        <pt x="112" y="112" on="1"/>
        <pt x="224" y="-4" on="0"/>
        <pt x="382" y="-4" on="1"/>
        <pt x="419" y="-4" on="0"/>
        <pt x="455" y="3" on="1"/>
        <pt x="455" y="165" on="1"/>
        <pt x="420" y="153" on="0"/>
        <pt x="382" y="153" on="1"/>
        <pt x="287" y="153" on="0"/>
        <pt x="220" y="222" on="1"/>
        <pt x="153" y="290" on="0"/>
        <pt x="153" y="388" on="1"/>
        <pt x="153" y="485" on="0"/>
        <pt x="220" y="554" on="1"/>
        <pt x="287" y="622" on="0"/>
      </contour>
    </TTGlyph>
    <TTGlyph name="Ccedilla.1" xMin="48" yMin="-264" xMax="570" yMax="776">
      <contour>
        <pt x="428" y="-260" on="1"/>
        <pt x="428" y="-188" on="1"/>
        <pt x="434" y="-190" on="0"/>
        <pt x="438" y="-190" on="1"/>
        <pt x="462" y="-190" on="0"/>
        <pt x="478" y="-173" on="1"/>
        <pt x="494" y="-157" on="0"/>
        <pt x="494" y="-133" on="1"/>
        <pt x="494" y="-110" on="0"/>
        <pt x="478" y="-94" on="1"/>
        <pt x="462" y="-78" on="0"/>
        <pt x="438" y="-78" on="1"/>
        <pt x="434" y="-78" on="0"/>
        <pt x="428" y="-79" on="1"/>
        <pt x="428" y="-8" on="1"/>
        <pt x="438" y="-8" on="1"/>
        <pt x="491" y="-8" on="0"/>
        <pt x="528" y="-44" on="1"/>
        <pt x="564" y="-81" on="0"/>
        <pt x="564" y="-134" on="1"/>
        <pt x="564" y="-186" on="0"/>
        <pt x="528" y="-223" on="1"/>
        <pt x="491" y="-260" on="0"/>
        <pt x="438" y="-260" on="1"/>
      </contour>
      <contour>
        <pt x="422" y="-262" on="1"/>
        <pt x="422" y="-264" on="0"/>
        <pt x="425" y="-264" on="1"/>
        <pt x="438" y="-264" on="1"/>
        <pt x="493" y="-264" on="0"/>
        <pt x="532" y="-226" on="1"/>
        <pt x="570" y="-188" on="0"/>
        <pt x="570" y="-134" on="1"/>
        <pt x="570" y="-79" on="0"/>
        <pt x="532" y="-40" on="1"/>
        <pt x="493" y="-2" on="0"/>
        <pt x="438" y="-2" on="1"/>
        <pt x="425" y="-2" on="1"/>
        <pt x="422" y="-2" on="0"/>
        <pt x="422" y="-5" on="1"/>
        <pt x="422" y="-82" on="1"/>
        <pt x="422" y="-84" on="0"/>
        <pt x="425" y="-84" on="1"/>
        <pt x="425" y="-84" on="0"/>
        <pt x="426" y="-84" on="1"/>
        <pt x="433" y="-82" on="0"/>
        <pt x="438" y="-82" on="1"/>
        <pt x="459" y="-82" on="0"/>
        <pt x="475" y="-97" on="1"/>
        <pt x="490" y="-113" on="0"/>
        <pt x="490" y="-134" on="1"/>
        <pt x="490" y="-155" on="0"/>
        <pt x="475" y="-169" on="1"/>
        <pt x="460" y="-184" on="0"/>
        <pt x="438" y="-184" on="1"/>
        <pt x="433" y="-184" on="0"/>
        <pt x="426" y="-183" on="1"/>
        <pt x="425" y="-182" on="0"/>
        <pt x="425" y="-182" on="1"/>
        <pt x="422" y="-182" on="0"/>
        <pt x="422" y="-185" on="1"/>
      </contour>
      <contour>
        <pt x="200" y="378" on="1"/>
        <pt x="200" y="279" on="0"/>
        <pt x="268" y="210" on="1"/>
        <pt x="336" y="140" on="0"/>
        <pt x="432" y="140" on="1"/>
        <pt x="468" y="140" on="0"/>
        <pt x="502" y="152" on="1"/>
        <pt x="502" y="-5" on="1"/>
        <pt x="468" y="-12" on="0"/>
        <pt x="432" y="-12" on="1"/>
        <pt x="329" y="-12" on="0"/>
        <pt x="242" y="41" on="1"/>
        <pt x="154" y="93" on="0"/>
        <pt x="103" y="183" on="1"/>
        <pt x="52" y="273" on="0"/>
        <pt x="52" y="380" on="1"/>
        <pt x="52" y="486" on="0"/>
        <pt x="103" y="576" on="1"/>
        <pt x="154" y="666" on="0"/>
        <pt x="242" y="718" on="1"/>
        <pt x="329" y="770" on="0"/>
        <pt x="432" y="770" on="1"/>
        <pt x="468" y="770" on="0"/>
        <pt x="502" y="764" on="1"/>
        <pt x="502" y="603" on="1"/>
        <pt x="468" y="614" on="0"/>
        <pt x="432" y="614" on="1"/>
        <pt x="336" y="614" on="0"/>
        <pt x="268" y="545" on="1"/>
        <pt x="200" y="476" on="0"/>
      </contour>
      <contour>
        <pt x="432" y="610" on="1"/>
        <pt x="469" y="610" on="0"/>
        <pt x="504" y="598" on="1"/>
        <pt x="505" y="597" on="0"/>
        <pt x="505" y="597" on="1"/>
        <pt x="508" y="597" on="0"/>
        <pt x="508" y="600" on="1"/>
        <pt x="508" y="766" on="1"/>
        <pt x="508" y="768" on="0"/>
        <pt x="505" y="768" on="1"/>
        <pt x="469" y="776" on="0"/>
        <pt x="432" y="776" on="1"/>
        <pt x="328" y="776" on="0"/>
        <pt x="239" y="723" on="1"/>
        <pt x="150" y="670" on="0"/>
        <pt x="99" y="579" on="1"/>
        <pt x="48" y="487" on="0"/>
        <pt x="48" y="380" on="1"/>
        <pt x="48" y="272" on="0"/>
        <pt x="99" y="181" on="1"/>
        <pt x="150" y="89" on="0"/>
        <pt x="239" y="37" on="1"/>
        <pt x="327" y="-16" on="0"/>
        <pt x="432" y="-16" on="1"/>
        <pt x="469" y="-16" on="0"/>
        <pt x="505" y="-9" on="1"/>
        <pt x="508" y="-9" on="0"/>
        <pt x="508" y="-7" on="1"/>
        <pt x="508" y="155" on="1"/>
        <pt x="508" y="158" on="0"/>
        <pt x="505" y="158" on="1"/>
        <pt x="505" y="158" on="0"/>
        <pt x="504" y="157" on="1"/>
        <pt x="469" y="146" on="0"/>
        <pt x="432" y="146" on="1"/>
        <pt x="338" y="146" on="0"/>
        <pt x="272" y="214" on="1"/>
        <pt x="206" y="281" on="0"/>
        <pt x="206" y="378" on="1"/>
        <pt x="206" y="474" on="0"/>
        <pt x="272" y="542" on="1"/>
        <pt x="338" y="610" on="0"/>
      </contour>
    </TTGlyph>
    <TTGlyph name="Ccedilla.2" xMin="50" yMin="-262" xMax="567" yMax="773">
      <component glyphName="Ccedilla.0" x="50" y="-10" flags="0x4"/>
    </TTGlyph>
    <TTGlyph name="Ccircumflex" xMin="50" yMin="-4" xMax="532" yMax="1010">
      <component glyphName="uni0302" x="432" y="66" flags="0x1004"/>
      <component glyphName="C" x="0" y="0" flags="0x1204"/>
    </TTGlyph>
    <TTGlyph name="Ccircumflex.0" xMin="0" yMin="-4" xMax="482" yMax="1010">
      <contour>
        <pt x="282" y="842" on="1"/>
        <pt x="358" y="842" on="1"/>
        <pt x="386" y="950" on="1"/>
        <pt x="406" y="842" on="1"/>
        <pt x="482" y="842" on="1"/>
        <pt x="430" y="1010" on="1"/>
        <pt x="429" y="1010" on="1"/>
        <pt x="354" y="1010" on="1"/>
        <pt x="353" y="1010" on="1"/>
      </contour>
      <contour>
        <pt x="382" y="622" on="1"/>
        <pt x="420" y="622" on="0"/>
        <pt x="455" y="610" on="1"/>
        <pt x="455" y="776" on="1"/>
        <pt x="419" y="783" on="0"/>
        <pt x="382" y="783" on="1"/>
        <pt x="224" y="783" on="0"/>
        <pt x="112" y="668" on="1"/>
        <pt x="0" y="553" on="0"/>
        <pt x="0" y="390" on="1"/>
        <pt x="0" y="227" on="0"/>
        <pt x="112" y="112" on="1"/>
        <pt x="224" y="-4" on="0"/>
        <pt x="382" y="-4" on="1"/>
        <pt x="419" y="-4" on="0"/>
        <pt x="455" y="3" on="1"/>
        <pt x="455" y="165" on="1"/>
        <pt x="420" y="153" on="0"/>
        <pt x="382" y="153" on="1"/>
        <pt x="287" y="153" on="0"/>
        <pt x="220" y="222" on="1"/>
        <pt x="153" y="290" on="0"/>
        <pt x="153" y="388" on="1"/>
        <pt x="153" y="485" on="0"/>
        <pt x="220" y="554" on="1"/>
        <pt x="287" y="622" on="0"/>
      </contour>
    </TTGlyph>
    <TTGlyph name="Ccircumflex.1" xMin="48" yMin="-16" xMax="535" yMax="1002">
      <contour>
        <pt x="438" y="940" on="1"/>
        <pt x="438" y="942" on="0"/>
        <pt x="436" y="942" on="1"/>
        <pt x="434" y="942" on="0"/>
        <pt x="433" y="940" on="1"/>
        <pt x="406" y="835" on="1"/>
        <pt x="335" y="835" on="1"/>
        <pt x="405" y="997" on="1"/>
        <pt x="478" y="997" on="1"/>
        <pt x="529" y="835" on="1"/>
        <pt x="459" y="835" on="1"/>
      </contour>
      <contour>
        <pt x="403" y="1002" on="1"/>
        <pt x="401" y="1002" on="0"/>
        <pt x="401" y="1000" on="1"/>
        <pt x="329" y="833" on="1"/>
        <pt x="329" y="833" on="0"/>
        <pt x="329" y="832" on="1"/>
        <pt x="329" y="830" on="0"/>
        <pt x="332" y="830" on="1"/>
        <pt x="408" y="830" on="1"/>
        <pt x="409" y="830" on="0"/>
        <pt x="410" y="832" on="1"/>
        <pt x="435" y="928" on="1"/>
        <pt x="454" y="832" on="1"/>
        <pt x="454" y="830" on="0"/>
        <pt x="456" y="830" on="1"/>
        <pt x="532" y="830" on="1"/>
        <pt x="535" y="830" on="0"/>
        <pt x="535" y="832" on="1"/>
        <pt x="535" y="833" on="0"/>
        <pt x="535" y="833" on="1"/>
        <pt x="482" y="1000" on="1"/>
        <pt x="481" y="1002" on="0"/>
        <pt x="480" y="1002" on="1"/>
      </contour>
      <contour>
        <pt x="200" y="378" on="1"/>
        <pt x="200" y="279" on="0"/>
        <pt x="268" y="210" on="1"/>
        <pt x="336" y="140" on="0"/>
        <pt x="432" y="140" on="1"/>
        <pt x="468" y="140" on="0"/>
        <pt x="502" y="152" on="1"/>
        <pt x="502" y="-5" on="1"/>
        <pt x="468" y="-12" on="0"/>
        <pt x="432" y="-12" on="1"/>
        <pt x="329" y="-12" on="0"/>
        <pt x="242" y="41" on="1"/>
        <pt x="154" y="93" on="0"/>
        <pt x="103" y="183" on="1"/>
        <pt x="52" y="273" on="0"/>
        <pt x="52" y="380" on="1"/>
        <pt x="52" y="486" on="0"/>
        <pt x="103" y="576" on="1"/>
        <pt x="154" y="666" on="0"/>
        <pt x="242" y="718" on="1"/>
        <pt x="329" y="770" on="0"/>
        <pt x="432" y="770" on="1"/>
        <pt x="468" y="770" on="0"/>
        <pt x="502" y="764" on="1"/>
        <pt x="502" y="603" on="1"/>
        <pt x="468" y="614" on="0"/>
        <pt x="432" y="614" on="1"/>
        <pt x="336" y="614" on="0"/>
        <pt x="268" y="545" on="1"/>
        <pt x="200" y="476" on="0"/>
      </contour>
      <contour>
        <pt x="432" y="610" on="1"/>
        <pt x="469" y="610" on="0"/>
        <pt x="504" y="598" on="1"/>
        <pt x="505" y="597" on="0"/>
        <pt x="505" y="597" on="1"/>
        <pt x="508" y="597" on="0"/>
        <pt x="508" y="600" on="1"/>
        <pt x="508" y="766" on="1"/>
        <pt x="508" y="768" on="0"/>
        <pt x="505" y="768" on="1"/>
        <pt x="469" y="776" on="0"/>
        <pt x="432" y="776" on="1"/>
        <pt x="328" y="776" on="0"/>
        <pt x="239" y="723" on="1"/>
        <pt x="150" y="670" on="0"/>
        <pt x="99" y="579" on="1"/>
        <pt x="48" y="487" on="0"/>
        <pt x="48" y="380" on="1"/>
        <pt x="48" y="272" on="0"/>
        <pt x="99" y="181" on="1"/>
        <pt x="150" y="89" on="0"/>
        <pt x="239" y="37" on="1"/>
        <pt x="327" y="-16" on="0"/>
        <pt x="432" y="-16" on="1"/>
        <pt x="469" y="-16" on="0"/>
        <pt x="505" y="-9" on="1"/>
        <pt x="508" y="-9" on="0"/>
        <pt x="508" y="-7" on="1"/>
        <pt x="508" y="155" on="1"/>
        <pt x="508" y="158" on="0"/>
        <pt x="505" y="158" on="1"/>
        <pt x="505" y="158" on="0"/>
        <pt x="504" y="157" on="1"/>
        <pt x="469" y="146" on="0"/>
        <pt x="432" y="146" on="1"/>
        <pt x="338" y="146" on="0"/>
        <pt x="272" y="214" on="1"/>
        <pt x="206" y="281" on="0"/>
        <pt x="206" y="378" on="1"/>
        <pt x="206" y="474" on="0"/>
        <pt x="272" y="542" on="1"/>
        <pt x="338" y="610" on="0"/>
      </contour>
    </TTGlyph>
    <TTGlyph name="Ccircumflex.2" xMin="50" yMin="-14" xMax="532" yMax="1000">
      <component glyphName="Ccircumflex.0" x="50" y="-10" flags="0x4"/>
    </TTGlyph>
    <TTGlyph name="Cdotaccent" xMin="50" yMin="-4" xMax="505" yMax="985">
      <component glyphName="uni0307" x="384" y="335" flags="0x1004"/>
      <component glyphName="C" x="0" y="0" flags="0x1204"/>
    </TTGlyph>
    <TTGlyph name="Cdotaccent.0" xMin="0" yMin="-4" xMax="455" yMax="985">
      <contour>
        <pt x="258" y="843" on="1"/>
        <pt x="410" y="843" on="1"/>
        <pt x="410" y="985" on="1"/>
        <pt x="258" y="985" on="1"/>
      </contour>
      <contour>
        <pt x="382" y="622" on="1"/>
        <pt x="420" y="622" on="0"/>
        <pt x="455" y="610" on="1"/>
        <pt x="455" y="776" on="1"/>
        <pt x="419" y="783" on="0"/>
        <pt x="382" y="783" on="1"/>
        <pt x="224" y="783" on="0"/>
        <pt x="112" y="668" on="1"/>
        <pt x="0" y="553" on="0"/>
        <pt x="0" y="390" on="1"/>
        <pt x="0" y="227" on="0"/>
        <pt x="112" y="112" on="1"/>
        <pt x="224" y="-4" on="0"/>
        <pt x="382" y="-4" on="1"/>
        <pt x="419" y="-4" on="0"/>
        <pt x="455" y="3" on="1"/>
        <pt x="455" y="165" on="1"/>
        <pt x="420" y="153" on="0"/>
        <pt x="382" y="153" on="1"/>
        <pt x="287" y="153" on="0"/>
        <pt x="220" y="222" on="1"/>
        <pt x="153" y="290" on="0"/>
        <pt x="153" y="388" on="1"/>
        <pt x="153" y="485" on="0"/>
        <pt x="220" y="554" on="1"/>
        <pt x="287" y="622" on="0"/>
      </contour>
    </TTGlyph>
    <TTGlyph name="Cdotaccent.1" xMin="48" yMin="-16" xMax="508" yMax="977">
      <contour>
        <pt x="310" y="973" on="1"/>
        <pt x="458" y="973" on="1"/>
        <pt x="458" y="835" on="1"/>
        <pt x="310" y="835" on="1"/>
      </contour>
      <contour>
        <pt x="306" y="833" on="1"/>
        <pt x="306" y="831" on="0"/>
        <pt x="308" y="831" on="1"/>
        <pt x="460" y="831" on="1"/>
        <pt x="462" y="831" on="0"/>
        <pt x="462" y="833" on="1"/>
        <pt x="462" y="975" on="1"/>
        <pt x="462" y="977" on="0"/>
        <pt x="460" y="977" on="1"/>
        <pt x="308" y="977" on="1"/>
        <pt x="306" y="977" on="0"/>
        <pt x="306" y="975" on="1"/>
      </contour>
      <contour>
        <pt x="200" y="378" on="1"/>
        <pt x="200" y="279" on="0"/>
        <pt x="268" y="210" on="1"/>
        <pt x="336" y="140" on="0"/>
        <pt x="432" y="140" on="1"/>
        <pt x="468" y="140" on="0"/>
        <pt x="502" y="152" on="1"/>
        <pt x="502" y="-5" on="1"/>
        <pt x="468" y="-12" on="0"/>
        <pt x="432" y="-12" on="1"/>
        <pt x="329" y="-12" on="0"/>
        <pt x="242" y="41" on="1"/>
        <pt x="154" y="93" on="0"/>
        <pt x="103" y="183" on="1"/>
        <pt x="52" y="273" on="0"/>
        <pt x="52" y="380" on="1"/>
        <pt x="52" y="486" on="0"/>
        <pt x="103" y="576" on="1"/>
        <pt x="154" y="666" on="0"/>
        <pt x="242" y="718" on="1"/>
        <pt x="329" y="770" on="0"/>
        <pt x="432" y="770" on="1"/>
        <pt x="468" y="770" on="0"/>
        <pt x="502" y="764" on="1"/>
        <pt x="502" y="603" on="1"/>
        <pt x="468" y="614" on="0"/>
        <pt x="432" y="614" on="1"/>
        <pt x="336" y="614" on="0"/>
        <pt x="268" y="545" on="1"/>
        <pt x="200" y="476" on="0"/>
      </contour>
      <contour>
        <pt x="432" y="610" on="1"/>
        <pt x="469" y="610" on="0"/>
        <pt x="504" y="598" on="1"/>
        <pt x="505" y="597" on="0"/>
        <pt x="505" y="597" on="1"/>
        <pt x="508" y="597" on="0"/>
        <pt x="508" y="600" on="1"/>
        <pt x="508" y="766" on="1"/>
        <pt x="508" y="768" on="0"/>
        <pt x="505" y="768" on="1"/>
        <pt x="469" y="776" on="0"/>
        <pt x="432" y="776" on="1"/>
        <pt x="328" y="776" on="0"/>
        <pt x="239" y="723" on="1"/>
        <pt x="150" y="670" on="0"/>
        <pt x="99" y="579" on="1"/>
        <pt x="48" y="487" on="0"/>
        <pt x="48" y="380" on="1"/>
        <pt x="48" y="272" on="0"/>
        <pt x="99" y="181" on="1"/>
        <pt x="150" y="89" on="0"/>
        <pt x="239" y="37" on="1"/>
        <pt x="327" y="-16" on="0"/>
        <pt x="432" y="-16" on="1"/>
        <pt x="469" y="-16" on="0"/>
        <pt x="505" y="-9" on="1"/>
        <pt x="508" y="-9" on="0"/>
        <pt x="508" y="-7" on="1"/>
        <pt x="508" y="155" on="1"/>
        <pt x="508" y="158" on="0"/>
        <pt x="505" y="158" on="1"/>
        <pt x="505" y="158" on="0"/>
        <pt x="504" y="157" on="1"/>
        <pt x="469" y="146" on="0"/>
        <pt x="432" y="146" on="1"/>
        <pt x="338" y="146" on="0"/>
        <pt x="272" y="214" on="1"/>
        <pt x="206" y="281" on="0"/>
        <pt x="206" y="378" on="1"/>
        <pt x="206" y="474" on="0"/>
        <pt x="272" y="542" on="1"/>
        <pt x="338" y="610" on="0"/>
      </contour>
    </TTGlyph>
    <TTGlyph name="Cdotaccent.2" xMin="50" yMin="-14" xMax="505" yMax="975">
      <component glyphName="Cdotaccent.0" x="50" y="-10" flags="0x4"/>
    </TTGlyph>
    <TTGlyph name="D" xMin="50" yMin="-4" xMax="580" yMax="783">
      <contour>
        <pt x="50" y="778" on="1"/>
        <pt x="65" y="773" on="0"/>
        <pt x="183" y="783" on="0"/>
        <pt x="198" y="783" on="1"/>
        <pt x="356" y="783" on="0"/>
        <pt x="580" y="553" on="0"/>
        <pt x="580" y="390" on="1"/>
        <pt x="580" y="283" on="0"/>
        <pt x="479" y="103" on="0"/>
        <pt x="305" y="-3" on="0"/>
        <pt x="202" y="-4" on="1"/>
        <pt x="50" y="-4" on="1"/>
      </contour>
      <contour>
        <pt x="202" y="153" on="1"/>
        <pt x="296" y="155" on="0"/>
        <pt x="427" y="292" on="0"/>
        <pt x="427" y="388" on="1"/>
        <pt x="427" y="484" on="0"/>
        <pt x="296" y="620" on="0"/>
        <pt x="202" y="622" on="1"/>
      </contour>
    </TTGlyph>
    <TTGlyph name="D.0" xMin="0" yMin="-4" xMax="530" yMax="783">
      <contour>
        <pt x="0" y="778" on="1"/>
        <pt x="0" y="-4" on="1"/>
        <pt x="152" y="-4" on="1"/>
        <pt x="255" y="-3" on="0"/>
        <pt x="342" y="50" on="1"/>
        <pt x="429" y="103" on="0"/>
        <pt x="480" y="193" on="1"/>
        <pt x="530" y="283" on="0"/>
        <pt x="530" y="390" on="1"/>
        <pt x="530" y="553" on="0"/>
        <pt x="418" y="668" on="1"/>
        <pt x="306" y="783" on="0"/>
        <pt x="148" y="783" on="1"/>
        <pt x="133" y="783" on="0"/>
        <pt x="74" y="778" on="1"/>
        <pt x="15" y="773" on="0"/>
      </contour>
      <contour>
        <pt x="152" y="153" on="1"/>
        <pt x="152" y="622" on="1"/>
        <pt x="246" y="620" on="0"/>
        <pt x="312" y="552" on="1"/>
        <pt x="377" y="484" on="0"/>
        <pt x="377" y="388" on="1"/>
        <pt x="377" y="292" on="0"/>
        <pt x="312" y="224" on="1"/>
        <pt x="246" y="155" on="0"/>
      </contour>
    </TTGlyph>
    <TTGlyph name="D.1" xMin="48" yMin="-16" xMax="582" yMax="776">
      <contour>
        <pt x="198" y="770" on="1"/>
        <pt x="301" y="770" on="0"/>
        <pt x="389" y="718" on="1"/>
        <pt x="476" y="666" on="0"/>
        <pt x="527" y="576" on="1"/>
        <pt x="578" y="486" on="0"/>
        <pt x="578" y="380" on="1"/>
        <pt x="578" y="274" on="0"/>
        <pt x="528" y="185" on="1"/>
        <pt x="477" y="95" on="0"/>
        <pt x="391" y="43" on="1"/>
        <pt x="304" y="-10" on="0"/>
        <pt x="202" y="-11" on="1"/>
        <pt x="52" y="-11" on="1"/>
        <pt x="52" y="765" on="1"/>
        <pt x="67" y="763" on="0"/>
        <pt x="84" y="763" on="1"/>
        <pt x="103" y="763" on="0"/>
        <pt x="141" y="767" on="1"/>
        <pt x="179" y="770" on="0"/>
      </contour>
      <contour>
        <pt x="84" y="768" on="1"/>
        <pt x="66" y="768" on="0"/>
        <pt x="50" y="770" on="1"/>
        <pt x="48" y="770" on="0"/>
        <pt x="48" y="768" on="1"/>
        <pt x="48" y="-14" on="1"/>
        <pt x="48" y="-16" on="0"/>
        <pt x="50" y="-16" on="1"/>
        <pt x="202" y="-16" on="1"/>
        <pt x="306" y="-15" on="0"/>
        <pt x="394" y="38" on="1"/>
        <pt x="481" y="91" on="0"/>
        <pt x="532" y="182" on="1"/>
        <pt x="582" y="273" on="0"/>
        <pt x="582" y="380" on="1"/>
        <pt x="582" y="487" on="0"/>
        <pt x="531" y="579" on="1"/>
        <pt x="480" y="670" on="0"/>
        <pt x="391" y="723" on="1"/>
        <pt x="302" y="776" on="0"/>
        <pt x="198" y="776" on="1"/>
        <pt x="179" y="776" on="0"/>
        <pt x="141" y="772" on="1"/>
        <pt x="103" y="768" on="0"/>
      </contour>
      <contour>
        <pt x="424" y="378" on="1"/>
        <pt x="424" y="283" on="0"/>
        <pt x="360" y="216" on="1"/>
        <pt x="296" y="148" on="0"/>
        <pt x="204" y="146" on="1"/>
        <pt x="204" y="609" on="1"/>
        <pt x="296" y="607" on="0"/>
        <pt x="360" y="540" on="1"/>
        <pt x="424" y="472" on="0"/>
      </contour>
      <contour>
        <pt x="200" y="143" on="1"/>
        <pt x="200" y="141" on="0"/>
        <pt x="202" y="141" on="1"/>
        <pt x="297" y="142" on="0"/>
        <pt x="364" y="212" on="1"/>
        <pt x="430" y="281" on="0"/>
        <pt x="430" y="378" on="1"/>
        <pt x="430" y="475" on="0"/>
        <pt x="364" y="544" on="1"/>
        <pt x="297" y="613" on="0"/>
        <pt x="202" y="614" on="1"/>
        <pt x="200" y="614" on="0"/>
        <pt x="200" y="612" on="1"/>
      </contour>
    </TTGlyph>
    <TTGlyph name="D.2" xMin="50" yMin="-14" xMax="580" yMax="773">
      <component glyphName="D.0" x="50" y="-10" flags="0x4"/>
    </TTGlyph>
    <TTGlyph name="Dcaron" xMin="50" yMin="-4" xMax="580" yMax="1011">
      <component glyphName="uni030C" x="315" y="67" flags="0x1004"/>
      <component glyphName="D" x="0" y="0" flags="0x1204"/>
    </TTGlyph>
    <TTGlyph name="Dcaron.0" xMin="0" yMin="-4" xMax="530" yMax="1011">
      <contour>
        <pt x="165" y="1011" on="1"/>
        <pt x="236" y="843" on="1"/>
        <pt x="237" y="843" on="1"/>
        <pt x="312" y="843" on="1"/>
        <pt x="313" y="843" on="1"/>
        <pt x="365" y="1011" on="1"/>
        <pt x="289" y="1011" on="1"/>
        <pt x="269" y="903" on="1"/>
        <pt x="241" y="1011" on="1"/>
      </contour>
      <contour>
        <pt x="0" y="778" on="1"/>
        <pt x="0" y="-4" on="1"/>
        <pt x="152" y="-4" on="1"/>
        <pt x="255" y="-3" on="0"/>
        <pt x="342" y="50" on="1"/>
        <pt x="429" y="103" on="0"/>
        <pt x="480" y="193" on="1"/>
        <pt x="530" y="283" on="0"/>
        <pt x="530" y="390" on="1"/>
        <pt x="530" y="553" on="0"/>
        <pt x="418" y="668" on="1"/>
        <pt x="306" y="783" on="0"/>
        <pt x="148" y="783" on="1"/>
        <pt x="133" y="783" on="0"/>
        <pt x="74" y="778" on="1"/>
        <pt x="15" y="773" on="0"/>
      </contour>
      <contour>
        <pt x="152" y="153" on="1"/>
        <pt x="152" y="622" on="1"/>
        <pt x="246" y="620" on="0"/>
        <pt x="312" y="552" on="1"/>
        <pt x="377" y="484" on="0"/>
        <pt x="377" y="388" on="1"/>
        <pt x="377" y="292" on="0"/>
        <pt x="312" y="224" on="1"/>
        <pt x="246" y="155" on="0"/>
      </contour>
    </TTGlyph>
    <TTGlyph name="Dcaron.1" xMin="48" yMin="-16" xMax="582" yMax="1003">
      <contour>
        <pt x="317" y="892" on="1"/>
        <pt x="317" y="891" on="0"/>
        <pt x="319" y="891" on="1"/>
        <pt x="321" y="891" on="0"/>
        <pt x="321" y="893" on="1"/>
        <pt x="341" y="999" on="1"/>
        <pt x="412" y="999" on="1"/>
        <pt x="361" y="835" on="1"/>
        <pt x="288" y="835" on="1"/>
        <pt x="219" y="999" on="1"/>
        <pt x="289" y="999" on="1"/>
      </contour>
      <contour>
        <pt x="215" y="1003" on="1"/>
        <pt x="213" y="1003" on="0"/>
        <pt x="213" y="1001" on="1"/>
        <pt x="213" y="1000" on="0"/>
        <pt x="213" y="1000" on="1"/>
        <pt x="284" y="832" on="1"/>
        <pt x="284" y="831" on="0"/>
        <pt x="286" y="831" on="1"/>
        <pt x="363" y="831" on="1"/>
        <pt x="365" y="831" on="0"/>
        <pt x="365" y="832" on="1"/>
        <pt x="417" y="1000" on="1"/>
        <pt x="417" y="1001" on="0"/>
        <pt x="417" y="1001" on="1"/>
        <pt x="417" y="1003" on="0"/>
        <pt x="415" y="1003" on="1"/>
        <pt x="339" y="1003" on="1"/>
        <pt x="337" y="1003" on="0"/>
        <pt x="337" y="1001" on="1"/>
        <pt x="319" y="905" on="1"/>
        <pt x="293" y="1002" on="1"/>
        <pt x="293" y="1003" on="0"/>
        <pt x="291" y="1003" on="1"/>
      </contour>
      <contour>
        <pt x="198" y="770" on="1"/>
        <pt x="301" y="770" on="0"/>
        <pt x="389" y="718" on="1"/>
        <pt x="476" y="666" on="0"/>
        <pt x="527" y="576" on="1"/>
        <pt x="578" y="486" on="0"/>
        <pt x="578" y="380" on="1"/>
        <pt x="578" y="274" on="0"/>
        <pt x="528" y="185" on="1"/>
        <pt x="477" y="95" on="0"/>
        <pt x="391" y="43" on="1"/>
        <pt x="304" y="-10" on="0"/>
        <pt x="202" y="-11" on="1"/>
        <pt x="52" y="-11" on="1"/>
        <pt x="52" y="765" on="1"/>
        <pt x="67" y="763" on="0"/>
        <pt x="84" y="763" on="1"/>
        <pt x="103" y="763" on="0"/>
        <pt x="141" y="767" on="1"/>
        <pt x="179" y="770" on="0"/>
      </contour>
      <contour>
        <pt x="84" y="768" on="1"/>
        <pt x="66" y="768" on="0"/>
        <pt x="50" y="770" on="1"/>
        <pt x="48" y="770" on="0"/>
        <pt x="48" y="768" on="1"/>
        <pt x="48" y="-14" on="1"/>
        <pt x="48" y="-16" on="0"/>
        <pt x="50" y="-16" on="1"/>
        <pt x="202" y="-16" on="1"/>
        <pt x="306" y="-15" on="0"/>
        <pt x="394" y="38" on="1"/>
        <pt x="481" y="91" on="0"/>
        <pt x="532" y="182" on="1"/>
        <pt x="582" y="273" on="0"/>
        <pt x="582" y="380" on="1"/>
        <pt x="582" y="487" on="0"/>
        <pt x="531" y="579" on="1"/>
        <pt x="480" y="670" on="0"/>
        <pt x="391" y="723" on="1"/>
        <pt x="302" y="776" on="0"/>
        <pt x="198" y="776" on="1"/>
        <pt x="179" y="776" on="0"/>
        <pt x="141" y="772" on="1"/>
        <pt x="103" y="768" on="0"/>
      </contour>
      <contour>
        <pt x="424" y="378" on="1"/>
        <pt x="424" y="283" on="0"/>
        <pt x="360" y="216" on="1"/>
        <pt x="296" y="148" on="0"/>
        <pt x="204" y="146" on="1"/>
        <pt x="204" y="609" on="1"/>
        <pt x="296" y="607" on="0"/>
        <pt x="360" y="540" on="1"/>
        <pt x="424" y="472" on="0"/>
      </contour>
      <contour>
        <pt x="200" y="143" on="1"/>
        <pt x="200" y="141" on="0"/>
        <pt x="202" y="141" on="1"/>
        <pt x="297" y="142" on="0"/>
        <pt x="364" y="212" on="1"/>
        <pt x="430" y="281" on="0"/>
        <pt x="430" y="378" on="1"/>
        <pt x="430" y="475" on="0"/>
        <pt x="364" y="544" on="1"/>
        <pt x="297" y="613" on="0"/>
        <pt x="202" y="614" on="1"/>
        <pt x="200" y="614" on="0"/>
        <pt x="200" y="612" on="1"/>
      </contour>
    </TTGlyph>
    <TTGlyph name="Dcaron.2" xMin="50" yMin="-14" xMax="580" yMax="1001">
      <component glyphName="Dcaron.0" x="50" y="-10" flags="0x4"/>
    </TTGlyph>
    <TTGlyph name="Dcroat" xMin="50" yMin="-4" xMax="640" yMax="783">
      <component glyphName="Eth" x="0" y="0" flags="0x1204"/>
    </TTGlyph>
    <TTGlyph name="Dcroat.0" xMin="50" yMin="-14" xMax="640" yMax="773">
      <component glyphName="Eth.0" x="50" y="-10" flags="0x4"/>
    </TTGlyph>
    <TTGlyph name="E" xMin="50" yMin="7" xMax="618" yMax="788">
      <contour>
        <pt x="509" y="495" on="1"/>
        <pt x="510" y="343" on="1"/>
        <pt x="202" y="343" on="1"/>
        <pt x="202" y="159" on="1"/>
        <pt x="617" y="159" on="1"/>
        <pt x="618" y="7" on="1"/>
        <pt x="51" y="7" on="1"/>
        <pt x="51" y="8" on="1"/>
        <pt x="50" y="8" on="1"/>
        <pt x="50" y="784" on="1"/>
        <pt x="50" y="788" on="1"/>
        <pt x="617" y="788" on="1"/>
        <pt x="618" y="636" on="1"/>
        <pt x="202" y="636" on="1"/>
        <pt x="202" y="495" on="1"/>
      </contour>
    </TTGlyph>
    <TTGlyph name="E.0" xMin="0" yMin="7" xMax="568" yMax="788">
      <contour>
        <pt x="459" y="495" on="1"/>
        <pt x="152" y="495" on="1"/>
        <pt x="152" y="636" on="1"/>
        <pt x="568" y="636" on="1"/>
        <pt x="567" y="788" on="1"/>
        <pt x="0" y="788" on="1"/>
        <pt x="0" y="784" on="1"/>
        <pt x="0" y="8" on="1"/>
        <pt x="1" y="8" on="1"/>
        <pt x="1" y="7" on="1"/>
        <pt x="568" y="7" on="1"/>
        <pt x="567" y="159" on="1"/>
        <pt x="152" y="159" on="1"/>
        <pt x="152" y="343" on="1"/>
        <pt x="460" y="343" on="1"/>
      </contour>
    </TTGlyph>
    <TTGlyph name="E.1" xMin="48" yMin="-6" xMax="620" yMax="780">
      <contour>
        <pt x="202" y="482" on="1"/>
        <pt x="507" y="482" on="1"/>
        <pt x="507" y="336" on="1"/>
        <pt x="202" y="336" on="1"/>
        <pt x="200" y="336" on="0"/>
        <pt x="200" y="333" on="1"/>
        <pt x="200" y="149" on="1"/>
        <pt x="200" y="146" on="0"/>
        <pt x="202" y="146" on="1"/>
        <pt x="615" y="146" on="1"/>
        <pt x="615" y="0" on="1"/>
        <pt x="53" y="0" on="1"/>
        <pt x="53" y="0" on="0"/>
        <pt x="52" y="0" on="1"/>
        <pt x="52" y="774" on="1"/>
        <pt x="53" y="774" on="0"/>
        <pt x="53" y="774" on="1"/>
        <pt x="53" y="774" on="0"/>
        <pt x="53" y="775" on="1"/>
        <pt x="53" y="775" on="0"/>
        <pt x="53" y="776" on="1"/>
        <pt x="615" y="776" on="1"/>
        <pt x="615" y="628" on="1"/>
        <pt x="202" y="628" on="1"/>
        <pt x="200" y="628" on="0"/>
        <pt x="200" y="626" on="1"/>
        <pt x="200" y="485" on="1"/>
        <pt x="200" y="482" on="0"/>
      </contour>
      <contour>
        <pt x="510" y="330" on="1"/>
        <pt x="512" y="330" on="0"/>
        <pt x="512" y="333" on="1"/>
        <pt x="511" y="485" on="1"/>
        <pt x="511" y="488" on="0"/>
        <pt x="509" y="488" on="1"/>
        <pt x="204" y="488" on="1"/>
        <pt x="204" y="624" on="1"/>
        <pt x="618" y="624" on="1"/>
        <pt x="620" y="624" on="0"/>
        <pt x="620" y="626" on="1"/>
        <pt x="619" y="778" on="1"/>
        <pt x="619" y="780" on="0"/>
        <pt x="617" y="780" on="1"/>
        <pt x="50" y="780" on="1"/>
        <pt x="48" y="780" on="0"/>
        <pt x="48" y="778" on="1"/>
        <pt x="48" y="774" on="0"/>
        <pt x="48" y="774" on="1"/>
        <pt x="48" y="-2" on="1"/>
        <pt x="48" y="-3" on="0"/>
        <pt x="49" y="-4" on="1"/>
        <pt x="50" y="-6" on="0"/>
        <pt x="51" y="-6" on="1"/>
        <pt x="618" y="-6" on="1"/>
        <pt x="620" y="-6" on="0"/>
        <pt x="620" y="-3" on="1"/>
        <pt x="619" y="149" on="1"/>
        <pt x="619" y="152" on="0"/>
        <pt x="617" y="152" on="1"/>
        <pt x="204" y="152" on="1"/>
        <pt x="204" y="330" on="1"/>
      </contour>
    </TTGlyph>
    <TTGlyph name="E.2" xMin="50" yMin="-3" xMax="618" yMax="778">
      <component glyphName="E.0" x="50" y="-10" flags="0x4"/>
    </TTGlyph>
    <TTGlyph name="Eacute" xMin="50" yMin="7" xMax="618" yMax="1137">
      <component glyphName="acutecomb" x="370" y="322" flags="0x1004"/>
      <component glyphName="E" x="0" y="0" flags="0x1204"/>
    </TTGlyph>
    <TTGlyph name="Eacute.0" xMin="0" yMin="7" xMax="568" yMax="1137">
      <contour>
        <pt x="283" y="848" on="1"/>
        <pt x="465" y="1030" on="1"/>
        <pt x="357" y="1137" on="1"/>
        <pt x="175" y="955" on="1"/>
      </contour>
      <contour>
        <pt x="459" y="495" on="1"/>
        <pt x="152" y="495" on="1"/>
        <pt x="152" y="636" on="1"/>
        <pt x="568" y="636" on="1"/>
        <pt x="567" y="788" on="1"/>
        <pt x="0" y="788" on="1"/>
        <pt x="0" y="784" on="1"/>
        <pt x="0" y="8" on="1"/>
        <pt x="1" y="8" on="1"/>
        <pt x="1" y="7" on="1"/>
        <pt x="568" y="7" on="1"/>
        <pt x="567" y="159" on="1"/>
        <pt x="152" y="159" on="1"/>
        <pt x="152" y="343" on="1"/>
        <pt x="460" y="343" on="1"/>
      </contour>
    </TTGlyph>
    <TTGlyph name="Eacute.1" xMin="48" yMin="-6" xMax="620" yMax="1130">
      <contour>
        <pt x="229" y="945" on="1"/>
        <pt x="407" y="1123" on="1"/>
        <pt x="511" y="1020" on="1"/>
        <pt x="333" y="842" on="1"/>
      </contour>
      <contour>
        <pt x="223" y="947" on="1"/>
        <pt x="222" y="946" on="0"/>
        <pt x="222" y="945" on="1"/>
        <pt x="222" y="944" on="0"/>
        <pt x="223" y="943" on="1"/>
        <pt x="331" y="836" on="1"/>
        <pt x="332" y="836" on="0"/>
        <pt x="333" y="836" on="1"/>
        <pt x="334" y="836" on="0"/>
        <pt x="335" y="836" on="1"/>
        <pt x="517" y="1018" on="1"/>
        <pt x="518" y="1019" on="0"/>
        <pt x="518" y="1020" on="1"/>
        <pt x="518" y="1021" on="0"/>
        <pt x="517" y="1022" on="1"/>
        <pt x="409" y="1129" on="1"/>
        <pt x="408" y="1130" on="0"/>
        <pt x="407" y="1130" on="1"/>
        <pt x="406" y="1130" on="0"/>
        <pt x="405" y="1129" on="1"/>
      </contour>
      <contour>
        <pt x="202" y="482" on="1"/>
        <pt x="507" y="482" on="1"/>
        <pt x="507" y="336" on="1"/>
        <pt x="202" y="336" on="1"/>
        <pt x="200" y="336" on="0"/>
        <pt x="200" y="333" on="1"/>
        <pt x="200" y="149" on="1"/>
        <pt x="200" y="146" on="0"/>
        <pt x="202" y="146" on="1"/>
        <pt x="615" y="146" on="1"/>
        <pt x="615" y="0" on="1"/>
        <pt x="53" y="0" on="1"/>
        <pt x="53" y="0" on="0"/>
        <pt x="52" y="0" on="1"/>
        <pt x="52" y="774" on="1"/>
        <pt x="53" y="774" on="0"/>
        <pt x="53" y="774" on="1"/>
        <pt x="53" y="774" on="0"/>
        <pt x="53" y="775" on="1"/>
        <pt x="53" y="775" on="0"/>
        <pt x="53" y="776" on="1"/>
        <pt x="615" y="776" on="1"/>
        <pt x="615" y="628" on="1"/>
        <pt x="202" y="628" on="1"/>
        <pt x="200" y="628" on="0"/>
        <pt x="200" y="626" on="1"/>
        <pt x="200" y="485" on="1"/>
        <pt x="200" y="482" on="0"/>
      </contour>
      <contour>
        <pt x="510" y="330" on="1"/>
        <pt x="512" y="330" on="0"/>
        <pt x="512" y="333" on="1"/>
        <pt x="511" y="485" on="1"/>
        <pt x="511" y="488" on="0"/>
        <pt x="509" y="488" on="1"/>
        <pt x="204" y="488" on="1"/>
        <pt x="204" y="624" on="1"/>
        <pt x="618" y="624" on="1"/>
        <pt x="620" y="624" on="0"/>
        <pt x="620" y="626" on="1"/>
        <pt x="619" y="778" on="1"/>
        <pt x="619" y="780" on="0"/>
        <pt x="617" y="780" on="1"/>
        <pt x="50" y="780" on="1"/>
        <pt x="48" y="780" on="0"/>
        <pt x="48" y="778" on="1"/>
        <pt x="48" y="774" on="0"/>
        <pt x="48" y="774" on="1"/>
        <pt x="48" y="-2" on="1"/>
        <pt x="48" y="-3" on="0"/>
        <pt x="49" y="-4" on="1"/>
        <pt x="50" y="-6" on="0"/>
        <pt x="51" y="-6" on="1"/>
        <pt x="618" y="-6" on="1"/>
        <pt x="620" y="-6" on="0"/>
        <pt x="620" y="-3" on="1"/>
        <pt x="619" y="149" on="1"/>
        <pt x="619" y="152" on="0"/>
        <pt x="617" y="152" on="1"/>
        <pt x="204" y="152" on="1"/>
        <pt x="204" y="330" on="1"/>
      </contour>
    </TTGlyph>
    <TTGlyph name="Eacute.2" xMin="50" yMin="-3" xMax="618" yMax="1127">
      <component glyphName="Eacute.0" x="50" y="-10" flags="0x4"/>
    </TTGlyph>
    <TTGlyph name="Ebreve" xMin="50" yMin="7" xMax="618" yMax="972">
      <component glyphName="uni0306" x="334" y="30" flags="0x1004"/>
      <component glyphName="E" x="0" y="0" flags="0x1204"/>
    </TTGlyph>
    <TTGlyph name="Ebreve.0" xMin="0" yMin="7" xMax="568" yMax="972">
      <contour>
        <pt x="412" y="972" on="1"/>
        <pt x="336" y="972" on="1"/>
        <pt x="338" y="964" on="0"/>
        <pt x="338" y="958" on="1"/>
        <pt x="338" y="936" on="0"/>
        <pt x="323" y="920" on="1"/>
        <pt x="307" y="904" on="0"/>
        <pt x="285" y="904" on="1"/>
        <pt x="262" y="904" on="0"/>
        <pt x="246" y="920" on="1"/>
        <pt x="230" y="936" on="0"/>
        <pt x="230" y="958" on="1"/>
        <pt x="230" y="964" on="0"/>
        <pt x="232" y="972" on="1"/>
        <pt x="156" y="972" on="1"/>
        <pt x="156" y="958" on="1"/>
        <pt x="156" y="904" on="0"/>
        <pt x="193" y="867" on="1"/>
        <pt x="230" y="830" on="0"/>
        <pt x="284" y="830" on="1"/>
        <pt x="338" y="830" on="0"/>
        <pt x="375" y="868" on="1"/>
        <pt x="412" y="905" on="0"/>
        <pt x="412" y="958" on="1"/>
        <pt x="412" y="972" on="0"/>
      </contour>
      <contour>
        <pt x="459" y="495" on="1"/>
        <pt x="152" y="495" on="1"/>
        <pt x="152" y="636" on="1"/>
        <pt x="568" y="636" on="1"/>
        <pt x="567" y="788" on="1"/>
        <pt x="0" y="788" on="1"/>
        <pt x="0" y="784" on="1"/>
        <pt x="0" y="8" on="1"/>
        <pt x="1" y="8" on="1"/>
        <pt x="1" y="7" on="1"/>
        <pt x="568" y="7" on="1"/>
        <pt x="567" y="159" on="1"/>
        <pt x="152" y="159" on="1"/>
        <pt x="152" y="343" on="1"/>
        <pt x="460" y="343" on="1"/>
      </contour>
    </TTGlyph>
    <TTGlyph name="Ebreve.1" xMin="48" yMin="-6" xMax="620" yMax="964">
      <contour>
        <pt x="208" y="959" on="1"/>
        <pt x="279" y="959" on="1"/>
        <pt x="278" y="953" on="0"/>
        <pt x="278" y="948" on="1"/>
        <pt x="278" y="925" on="0"/>
        <pt x="295" y="909" on="1"/>
        <pt x="311" y="892" on="0"/>
        <pt x="335" y="892" on="1"/>
        <pt x="358" y="892" on="0"/>
        <pt x="374" y="909" on="1"/>
        <pt x="390" y="925" on="0"/>
        <pt x="390" y="948" on="1"/>
        <pt x="390" y="953" on="0"/>
        <pt x="389" y="959" on="1"/>
        <pt x="460" y="959" on="1"/>
        <pt x="460" y="948" on="1"/>
        <pt x="460" y="896" on="0"/>
        <pt x="424" y="859" on="1"/>
        <pt x="387" y="822" on="0"/>
        <pt x="335" y="822" on="1"/>
        <pt x="282" y="822" on="0"/>
        <pt x="245" y="859" on="1"/>
        <pt x="208" y="896" on="0"/>
        <pt x="208" y="948" on="1"/>
      </contour>
      <contour>
        <pt x="465" y="962" on="1"/>
        <pt x="465" y="964" on="0"/>
        <pt x="462" y="964" on="1"/>
        <pt x="386" y="964" on="1"/>
        <pt x="383" y="964" on="0"/>
        <pt x="383" y="962" on="1"/>
        <pt x="383" y="961" on="0"/>
        <pt x="383" y="961" on="1"/>
        <pt x="385" y="953" on="0"/>
        <pt x="385" y="948" on="1"/>
        <pt x="385" y="927" on="0"/>
        <pt x="371" y="912" on="1"/>
        <pt x="356" y="897" on="0"/>
        <pt x="335" y="897" on="1"/>
        <pt x="313" y="897" on="0"/>
        <pt x="298" y="912" on="1"/>
        <pt x="283" y="927" on="0"/>
        <pt x="283" y="948" on="1"/>
        <pt x="283" y="953" on="0"/>
        <pt x="285" y="961" on="1"/>
        <pt x="285" y="961" on="0"/>
        <pt x="285" y="962" on="1"/>
        <pt x="285" y="964" on="0"/>
        <pt x="282" y="964" on="1"/>
        <pt x="206" y="964" on="1"/>
        <pt x="203" y="964" on="0"/>
        <pt x="203" y="962" on="1"/>
        <pt x="203" y="948" on="1"/>
        <pt x="203" y="893" on="0"/>
        <pt x="241" y="855" on="1"/>
        <pt x="279" y="817" on="0"/>
        <pt x="334" y="817" on="1"/>
        <pt x="389" y="817" on="0"/>
        <pt x="427" y="856" on="1"/>
        <pt x="465" y="894" on="0"/>
        <pt x="465" y="948" on="1"/>
      </contour>
      <contour>
        <pt x="202" y="482" on="1"/>
        <pt x="507" y="482" on="1"/>
        <pt x="507" y="336" on="1"/>
        <pt x="202" y="336" on="1"/>
        <pt x="200" y="336" on="0"/>
        <pt x="200" y="333" on="1"/>
        <pt x="200" y="149" on="1"/>
        <pt x="200" y="146" on="0"/>
        <pt x="202" y="146" on="1"/>
        <pt x="615" y="146" on="1"/>
        <pt x="615" y="0" on="1"/>
        <pt x="53" y="0" on="1"/>
        <pt x="53" y="0" on="0"/>
        <pt x="52" y="0" on="1"/>
        <pt x="52" y="774" on="1"/>
        <pt x="53" y="774" on="0"/>
        <pt x="53" y="774" on="1"/>
        <pt x="53" y="774" on="0"/>
        <pt x="53" y="775" on="1"/>
        <pt x="53" y="775" on="0"/>
        <pt x="53" y="776" on="1"/>
        <pt x="615" y="776" on="1"/>
        <pt x="615" y="628" on="1"/>
        <pt x="202" y="628" on="1"/>
        <pt x="200" y="628" on="0"/>
        <pt x="200" y="626" on="1"/>
        <pt x="200" y="485" on="1"/>
        <pt x="200" y="482" on="0"/>
      </contour>
      <contour>
        <pt x="510" y="330" on="1"/>
        <pt x="512" y="330" on="0"/>
        <pt x="512" y="333" on="1"/>
        <pt x="511" y="485" on="1"/>
        <pt x="511" y="488" on="0"/>
        <pt x="509" y="488" on="1"/>
        <pt x="204" y="488" on="1"/>
        <pt x="204" y="624" on="1"/>
        <pt x="618" y="624" on="1"/>
        <pt x="620" y="624" on="0"/>
        <pt x="620" y="626" on="1"/>
        <pt x="619" y="778" on="1"/>
        <pt x="619" y="780" on="0"/>
        <pt x="617" y="780" on="1"/>
        <pt x="50" y="780" on="1"/>
        <pt x="48" y="780" on="0"/>
        <pt x="48" y="778" on="1"/>
        <pt x="48" y="774" on="0"/>
        <pt x="48" y="774" on="1"/>
        <pt x="48" y="-2" on="1"/>
        <pt x="48" y="-3" on="0"/>
        <pt x="49" y="-4" on="1"/>
        <pt x="50" y="-6" on="0"/>
        <pt x="51" y="-6" on="1"/>
        <pt x="618" y="-6" on="1"/>
        <pt x="620" y="-6" on="0"/>
        <pt x="620" y="-3" on="1"/>
        <pt x="619" y="149" on="1"/>
        <pt x="619" y="152" on="0"/>
        <pt x="617" y="152" on="1"/>
        <pt x="204" y="152" on="1"/>
        <pt x="204" y="330" on="1"/>
      </contour>
    </TTGlyph>
    <TTGlyph name="Ebreve.2" xMin="50" yMin="-3" xMax="618" yMax="962">
      <component glyphName="Ebreve.0" x="50" y="-10" flags="0x4"/>
    </TTGlyph>
    <TTGlyph name="Ecaron" xMin="50" yMin="7" xMax="618" yMax="1016">
      <component glyphName="uni030C" x="334" y="72" flags="0x1004"/>
      <component glyphName="E" x="0" y="0" flags="0x1204"/>
    </TTGlyph>
    <TTGlyph name="Ecaron.0" xMin="0" yMin="7" xMax="568" yMax="1016">
      <contour>
        <pt x="184" y="1016" on="1"/>
        <pt x="255" y="848" on="1"/>
        <pt x="256" y="848" on="1"/>
        <pt x="331" y="848" on="1"/>
        <pt x="332" y="848" on="1"/>
        <pt x="384" y="1016" on="1"/>
        <pt x="308" y="1016" on="1"/>
        <pt x="288" y="908" on="1"/>
        <pt x="260" y="1016" on="1"/>
      </contour>
      <contour>
        <pt x="459" y="495" on="1"/>
        <pt x="152" y="495" on="1"/>
        <pt x="152" y="636" on="1"/>
        <pt x="568" y="636" on="1"/>
        <pt x="567" y="788" on="1"/>
        <pt x="0" y="788" on="1"/>
        <pt x="0" y="784" on="1"/>
        <pt x="0" y="8" on="1"/>
        <pt x="1" y="8" on="1"/>
        <pt x="1" y="7" on="1"/>
        <pt x="568" y="7" on="1"/>
        <pt x="567" y="159" on="1"/>
        <pt x="152" y="159" on="1"/>
        <pt x="152" y="343" on="1"/>
        <pt x="460" y="343" on="1"/>
      </contour>
    </TTGlyph>
    <TTGlyph name="Ecaron.1" xMin="48" yMin="-6" xMax="620" yMax="1008">
      <contour>
        <pt x="336" y="897" on="1"/>
        <pt x="336" y="896" on="0"/>
        <pt x="338" y="896" on="1"/>
        <pt x="340" y="896" on="0"/>
        <pt x="340" y="898" on="1"/>
        <pt x="360" y="1004" on="1"/>
        <pt x="431" y="1004" on="1"/>
        <pt x="380" y="840" on="1"/>
        <pt x="307" y="840" on="1"/>
        <pt x="238" y="1004" on="1"/>
        <pt x="308" y="1004" on="1"/>
      </contour>
      <contour>
        <pt x="234" y="1008" on="1"/>
        <pt x="232" y="1008" on="0"/>
        <pt x="232" y="1006" on="1"/>
        <pt x="232" y="1005" on="0"/>
        <pt x="232" y="1005" on="1"/>
        <pt x="303" y="837" on="1"/>
        <pt x="303" y="836" on="0"/>
        <pt x="305" y="836" on="1"/>
        <pt x="382" y="836" on="1"/>
        <pt x="384" y="836" on="0"/>
        <pt x="384" y="837" on="1"/>
        <pt x="436" y="1005" on="1"/>
        <pt x="436" y="1006" on="0"/>
        <pt x="436" y="1006" on="1"/>
        <pt x="436" y="1008" on="0"/>
        <pt x="434" y="1008" on="1"/>
        <pt x="358" y="1008" on="1"/>
        <pt x="356" y="1008" on="0"/>
        <pt x="356" y="1006" on="1"/>
        <pt x="338" y="910" on="1"/>
        <pt x="312" y="1007" on="1"/>
        <pt x="312" y="1008" on="0"/>
        <pt x="310" y="1008" on="1"/>
      </contour>
      <contour>
        <pt x="202" y="482" on="1"/>
        <pt x="507" y="482" on="1"/>
        <pt x="507" y="336" on="1"/>
        <pt x="202" y="336" on="1"/>
        <pt x="200" y="336" on="0"/>
        <pt x="200" y="333" on="1"/>
        <pt x="200" y="149" on="1"/>
        <pt x="200" y="146" on="0"/>
        <pt x="202" y="146" on="1"/>
        <pt x="615" y="146" on="1"/>
        <pt x="615" y="0" on="1"/>
        <pt x="53" y="0" on="1"/>
        <pt x="53" y="0" on="0"/>
        <pt x="52" y="0" on="1"/>
        <pt x="52" y="774" on="1"/>
        <pt x="53" y="774" on="0"/>
        <pt x="53" y="774" on="1"/>
        <pt x="53" y="774" on="0"/>
        <pt x="53" y="775" on="1"/>
        <pt x="53" y="775" on="0"/>
        <pt x="53" y="776" on="1"/>
        <pt x="615" y="776" on="1"/>
        <pt x="615" y="628" on="1"/>
        <pt x="202" y="628" on="1"/>
        <pt x="200" y="628" on="0"/>
        <pt x="200" y="626" on="1"/>
        <pt x="200" y="485" on="1"/>
        <pt x="200" y="482" on="0"/>
      </contour>
      <contour>
        <pt x="510" y="330" on="1"/>
        <pt x="512" y="330" on="0"/>
        <pt x="512" y="333" on="1"/>
        <pt x="511" y="485" on="1"/>
        <pt x="511" y="488" on="0"/>
        <pt x="509" y="488" on="1"/>
        <pt x="204" y="488" on="1"/>
        <pt x="204" y="624" on="1"/>
        <pt x="618" y="624" on="1"/>
        <pt x="620" y="624" on="0"/>
        <pt x="620" y="626" on="1"/>
        <pt x="619" y="778" on="1"/>
        <pt x="619" y="780" on="0"/>
        <pt x="617" y="780" on="1"/>
        <pt x="50" y="780" on="1"/>
        <pt x="48" y="780" on="0"/>
        <pt x="48" y="778" on="1"/>
        <pt x="48" y="774" on="0"/>
        <pt x="48" y="774" on="1"/>
        <pt x="48" y="-2" on="1"/>
        <pt x="48" y="-3" on="0"/>
        <pt x="49" y="-4" on="1"/>
        <pt x="50" y="-6" on="0"/>
        <pt x="51" y="-6" on="1"/>
        <pt x="618" y="-6" on="1"/>
        <pt x="620" y="-6" on="0"/>
        <pt x="620" y="-3" on="1"/>
        <pt x="619" y="149" on="1"/>
        <pt x="619" y="152" on="0"/>
        <pt x="617" y="152" on="1"/>
        <pt x="204" y="152" on="1"/>
        <pt x="204" y="330" on="1"/>
      </contour>
    </TTGlyph>
    <TTGlyph name="Ecaron.2" xMin="50" yMin="-3" xMax="618" yMax="1006">
      <component glyphName="Ecaron.0" x="50" y="-10" flags="0x4"/>
    </TTGlyph>
    <TTGlyph name="Ecircumflex" xMin="50" yMin="7" xMax="618" yMax="1016">
      <component glyphName="uni0302" x="334" y="72" flags="0x1004"/>
      <component glyphName="E" x="0" y="0" flags="0x1204"/>
    </TTGlyph>
    <TTGlyph name="Ecircumflex.0" xMin="0" yMin="7" xMax="568" yMax="1016">
      <contour>
        <pt x="184" y="848" on="1"/>
        <pt x="260" y="848" on="1"/>
        <pt x="288" y="956" on="1"/>
        <pt x="308" y="848" on="1"/>
        <pt x="384" y="848" on="1"/>
        <pt x="332" y="1016" on="1"/>
        <pt x="331" y="1016" on="1"/>
        <pt x="256" y="1016" on="1"/>
        <pt x="255" y="1016" on="1"/>
      </contour>
      <contour>
        <pt x="459" y="495" on="1"/>
        <pt x="152" y="495" on="1"/>
        <pt x="152" y="636" on="1"/>
        <pt x="568" y="636" on="1"/>
        <pt x="567" y="788" on="1"/>
        <pt x="0" y="788" on="1"/>
        <pt x="0" y="784" on="1"/>
        <pt x="0" y="8" on="1"/>
        <pt x="1" y="8" on="1"/>
        <pt x="1" y="7" on="1"/>
        <pt x="568" y="7" on="1"/>
        <pt x="567" y="159" on="1"/>
        <pt x="152" y="159" on="1"/>
        <pt x="152" y="343" on="1"/>
        <pt x="460" y="343" on="1"/>
      </contour>
    </TTGlyph>
    <TTGlyph name="Ecircumflex.1" xMin="48" yMin="-6" xMax="620" yMax="1008">
      <contour>
        <pt x="340" y="946" on="1"/>
        <pt x="340" y="948" on="0"/>
        <pt x="338" y="948" on="1"/>
        <pt x="336" y="948" on="0"/>
        <pt x="335" y="946" on="1"/>
        <pt x="308" y="841" on="1"/>
        <pt x="237" y="841" on="1"/>
        <pt x="307" y="1003" on="1"/>
        <pt x="380" y="1003" on="1"/>
        <pt x="431" y="841" on="1"/>
        <pt x="361" y="841" on="1"/>
      </contour>
      <contour>
        <pt x="305" y="1008" on="1"/>
        <pt x="303" y="1008" on="0"/>
        <pt x="303" y="1006" on="1"/>
        <pt x="231" y="839" on="1"/>
        <pt x="231" y="839" on="0"/>
        <pt x="231" y="838" on="1"/>
        <pt x="231" y="836" on="0"/>
        <pt x="234" y="836" on="1"/>
        <pt x="310" y="836" on="1"/>
        <pt x="311" y="836" on="0"/>
        <pt x="312" y="838" on="1"/>
        <pt x="337" y="934" on="1"/>
        <pt x="356" y="838" on="1"/>
        <pt x="356" y="836" on="0"/>
        <pt x="358" y="836" on="1"/>
        <pt x="434" y="836" on="1"/>
        <pt x="437" y="836" on="0"/>
        <pt x="437" y="838" on="1"/>
        <pt x="437" y="839" on="0"/>
        <pt x="437" y="839" on="1"/>
        <pt x="384" y="1006" on="1"/>
        <pt x="383" y="1008" on="0"/>
        <pt x="382" y="1008" on="1"/>
      </contour>
      <contour>
        <pt x="202" y="482" on="1"/>
        <pt x="507" y="482" on="1"/>
        <pt x="507" y="336" on="1"/>
        <pt x="202" y="336" on="1"/>
        <pt x="200" y="336" on="0"/>
        <pt x="200" y="333" on="1"/>
        <pt x="200" y="149" on="1"/>
        <pt x="200" y="146" on="0"/>
        <pt x="202" y="146" on="1"/>
        <pt x="615" y="146" on="1"/>
        <pt x="615" y="0" on="1"/>
        <pt x="53" y="0" on="1"/>
        <pt x="53" y="0" on="0"/>
        <pt x="52" y="0" on="1"/>
        <pt x="52" y="774" on="1"/>
        <pt x="53" y="774" on="0"/>
        <pt x="53" y="774" on="1"/>
        <pt x="53" y="774" on="0"/>
        <pt x="53" y="775" on="1"/>
        <pt x="53" y="775" on="0"/>
        <pt x="53" y="776" on="1"/>
        <pt x="615" y="776" on="1"/>
        <pt x="615" y="628" on="1"/>
        <pt x="202" y="628" on="1"/>
        <pt x="200" y="628" on="0"/>
        <pt x="200" y="626" on="1"/>
        <pt x="200" y="485" on="1"/>
        <pt x="200" y="482" on="0"/>
      </contour>
      <contour>
        <pt x="510" y="330" on="1"/>
        <pt x="512" y="330" on="0"/>
        <pt x="512" y="333" on="1"/>
        <pt x="511" y="485" on="1"/>
        <pt x="511" y="488" on="0"/>
        <pt x="509" y="488" on="1"/>
        <pt x="204" y="488" on="1"/>
        <pt x="204" y="624" on="1"/>
        <pt x="618" y="624" on="1"/>
        <pt x="620" y="624" on="0"/>
        <pt x="620" y="626" on="1"/>
        <pt x="619" y="778" on="1"/>
        <pt x="619" y="780" on="0"/>
        <pt x="617" y="780" on="1"/>
        <pt x="50" y="780" on="1"/>
        <pt x="48" y="780" on="0"/>
        <pt x="48" y="778" on="1"/>
        <pt x="48" y="774" on="0"/>
        <pt x="48" y="774" on="1"/>
        <pt x="48" y="-2" on="1"/>
        <pt x="48" y="-3" on="0"/>
        <pt x="49" y="-4" on="1"/>
        <pt x="50" y="-6" on="0"/>
        <pt x="51" y="-6" on="1"/>
        <pt x="618" y="-6" on="1"/>
        <pt x="620" y="-6" on="0"/>
        <pt x="620" y="-3" on="1"/>
        <pt x="619" y="149" on="1"/>
        <pt x="619" y="152" on="0"/>
        <pt x="617" y="152" on="1"/>
        <pt x="204" y="152" on="1"/>
        <pt x="204" y="330" on="1"/>
      </contour>
    </TTGlyph>
    <TTGlyph name="Ecircumflex.2" xMin="50" yMin="-3" xMax="618" yMax="1006">
      <component glyphName="Ecircumflex.0" x="50" y="-10" flags="0x4"/>
    </TTGlyph>
    <TTGlyph name="Edieresis" xMin="50" yMin="7" xMax="618" yMax="990">
      <component glyphName="uni0308" x="334" y="340" flags="0x1004"/>
      <component glyphName="E" x="0" y="0" flags="0x1204"/>
    </TTGlyph>
    <TTGlyph name="Edieresis.0" xMin="0" yMin="7" xMax="568" yMax="990">
      <contour>
        <pt x="308" y="848" on="1"/>
        <pt x="460" y="848" on="1"/>
        <pt x="460" y="990" on="1"/>
        <pt x="308" y="990" on="1"/>
      </contour>
      <contour>
        <pt x="108" y="848" on="1"/>
        <pt x="260" y="848" on="1"/>
        <pt x="260" y="990" on="1"/>
        <pt x="108" y="990" on="1"/>
      </contour>
      <contour>
        <pt x="459" y="495" on="1"/>
        <pt x="152" y="495" on="1"/>
        <pt x="152" y="636" on="1"/>
        <pt x="568" y="636" on="1"/>
        <pt x="567" y="788" on="1"/>
        <pt x="0" y="788" on="1"/>
        <pt x="0" y="784" on="1"/>
        <pt x="0" y="8" on="1"/>
        <pt x="1" y="8" on="1"/>
        <pt x="1" y="7" on="1"/>
        <pt x="568" y="7" on="1"/>
        <pt x="567" y="159" on="1"/>
        <pt x="152" y="159" on="1"/>
        <pt x="152" y="343" on="1"/>
        <pt x="460" y="343" on="1"/>
      </contour>
    </TTGlyph>
    <TTGlyph name="Edieresis.1" xMin="48" yMin="-6" xMax="620" yMax="982">
      <contour>
        <pt x="360" y="978" on="1"/>
        <pt x="508" y="978" on="1"/>
        <pt x="508" y="840" on="1"/>
        <pt x="360" y="840" on="1"/>
      </contour>
      <contour>
        <pt x="356" y="838" on="1"/>
        <pt x="356" y="836" on="0"/>
        <pt x="358" y="836" on="1"/>
        <pt x="510" y="836" on="1"/>
        <pt x="512" y="836" on="0"/>
        <pt x="512" y="838" on="1"/>
        <pt x="512" y="980" on="1"/>
        <pt x="512" y="982" on="0"/>
        <pt x="510" y="982" on="1"/>
        <pt x="358" y="982" on="1"/>
        <pt x="356" y="982" on="0"/>
        <pt x="356" y="980" on="1"/>
      </contour>
      <contour>
        <pt x="160" y="978" on="1"/>
        <pt x="308" y="978" on="1"/>
        <pt x="308" y="840" on="1"/>
        <pt x="160" y="840" on="1"/>
      </contour>
      <contour>
        <pt x="156" y="838" on="1"/>
        <pt x="156" y="836" on="0"/>
        <pt x="158" y="836" on="1"/>
        <pt x="310" y="836" on="1"/>
        <pt x="312" y="836" on="0"/>
        <pt x="312" y="838" on="1"/>
        <pt x="312" y="980" on="1"/>
        <pt x="312" y="982" on="0"/>
        <pt x="310" y="982" on="1"/>
        <pt x="158" y="982" on="1"/>
        <pt x="156" y="982" on="0"/>
        <pt x="156" y="980" on="1"/>
      </contour>
      <contour>
        <pt x="202" y="482" on="1"/>
        <pt x="507" y="482" on="1"/>
        <pt x="507" y="336" on="1"/>
        <pt x="202" y="336" on="1"/>
        <pt x="200" y="336" on="0"/>
        <pt x="200" y="333" on="1"/>
        <pt x="200" y="149" on="1"/>
        <pt x="200" y="146" on="0"/>
        <pt x="202" y="146" on="1"/>
        <pt x="615" y="146" on="1"/>
        <pt x="615" y="0" on="1"/>
        <pt x="53" y="0" on="1"/>
        <pt x="53" y="0" on="0"/>
        <pt x="52" y="0" on="1"/>
        <pt x="52" y="774" on="1"/>
        <pt x="53" y="774" on="0"/>
        <pt x="53" y="774" on="1"/>
        <pt x="53" y="774" on="0"/>
        <pt x="53" y="775" on="1"/>
        <pt x="53" y="775" on="0"/>
        <pt x="53" y="776" on="1"/>
        <pt x="615" y="776" on="1"/>
        <pt x="615" y="628" on="1"/>
        <pt x="202" y="628" on="1"/>
        <pt x="200" y="628" on="0"/>
        <pt x="200" y="626" on="1"/>
        <pt x="200" y="485" on="1"/>
        <pt x="200" y="482" on="0"/>
      </contour>
      <contour>
        <pt x="510" y="330" on="1"/>
        <pt x="512" y="330" on="0"/>
        <pt x="512" y="333" on="1"/>
        <pt x="511" y="485" on="1"/>
        <pt x="511" y="488" on="0"/>
        <pt x="509" y="488" on="1"/>
        <pt x="204" y="488" on="1"/>
        <pt x="204" y="624" on="1"/>
        <pt x="618" y="624" on="1"/>
        <pt x="620" y="624" on="0"/>
        <pt x="620" y="626" on="1"/>
        <pt x="619" y="778" on="1"/>
        <pt x="619" y="780" on="0"/>
        <pt x="617" y="780" on="1"/>
        <pt x="50" y="780" on="1"/>
        <pt x="48" y="780" on="0"/>
        <pt x="48" y="778" on="1"/>
        <pt x="48" y="774" on="0"/>
        <pt x="48" y="774" on="1"/>
        <pt x="48" y="-2" on="1"/>
        <pt x="48" y="-3" on="0"/>
        <pt x="49" y="-4" on="1"/>
        <pt x="50" y="-6" on="0"/>
        <pt x="51" y="-6" on="1"/>
        <pt x="618" y="-6" on="1"/>
        <pt x="620" y="-6" on="0"/>
        <pt x="620" y="-3" on="1"/>
        <pt x="619" y="149" on="1"/>
        <pt x="619" y="152" on="0"/>
        <pt x="617" y="152" on="1"/>
        <pt x="204" y="152" on="1"/>
        <pt x="204" y="330" on="1"/>
      </contour>
    </TTGlyph>
    <TTGlyph name="Edieresis.2" xMin="50" yMin="-3" xMax="618" yMax="980">
      <component glyphName="Edieresis.0" x="50" y="-10" flags="0x4"/>
    </TTGlyph>
    <TTGlyph name="Edotaccent" xMin="50" yMin="7" xMax="618" yMax="990">
      <component glyphName="uni0307" x="334" y="340" flags="0x1004"/>
      <component glyphName="E" x="0" y="0" flags="0x1204"/>
    </TTGlyph>
    <TTGlyph name="Edotaccent.0" xMin="0" yMin="7" xMax="568" yMax="990">
      <contour>
        <pt x="208" y="848" on="1"/>
        <pt x="360" y="848" on="1"/>
        <pt x="360" y="990" on="1"/>
        <pt x="208" y="990" on="1"/>
      </contour>
      <contour>
        <pt x="459" y="495" on="1"/>
        <pt x="152" y="495" on="1"/>
        <pt x="152" y="636" on="1"/>
        <pt x="568" y="636" on="1"/>
        <pt x="567" y="788" on="1"/>
        <pt x="0" y="788" on="1"/>
        <pt x="0" y="784" on="1"/>
        <pt x="0" y="8" on="1"/>
        <pt x="1" y="8" on="1"/>
        <pt x="1" y="7" on="1"/>
        <pt x="568" y="7" on="1"/>
        <pt x="567" y="159" on="1"/>
        <pt x="152" y="159" on="1"/>
        <pt x="152" y="343" on="1"/>
        <pt x="460" y="343" on="1"/>
      </contour>
    </TTGlyph>
    <TTGlyph name="Edotaccent.1" xMin="48" yMin="-6" xMax="620" yMax="982">
      <contour>
        <pt x="260" y="978" on="1"/>
        <pt x="408" y="978" on="1"/>
        <pt x="408" y="840" on="1"/>
        <pt x="260" y="840" on="1"/>
      </contour>
      <contour>
        <pt x="256" y="838" on="1"/>
        <pt x="256" y="836" on="0"/>
        <pt x="258" y="836" on="1"/>
        <pt x="410" y="836" on="1"/>
        <pt x="412" y="836" on="0"/>
        <pt x="412" y="838" on="1"/>
        <pt x="412" y="980" on="1"/>
        <pt x="412" y="982" on="0"/>
        <pt x="410" y="982" on="1"/>
        <pt x="258" y="982" on="1"/>
        <pt x="256" y="982" on="0"/>
        <pt x="256" y="980" on="1"/>
      </contour>
      <contour>
        <pt x="202" y="482" on="1"/>
        <pt x="507" y="482" on="1"/>
        <pt x="507" y="336" on="1"/>
        <pt x="202" y="336" on="1"/>
        <pt x="200" y="336" on="0"/>
        <pt x="200" y="333" on="1"/>
        <pt x="200" y="149" on="1"/>
        <pt x="200" y="146" on="0"/>
        <pt x="202" y="146" on="1"/>
        <pt x="615" y="146" on="1"/>
        <pt x="615" y="0" on="1"/>
        <pt x="53" y="0" on="1"/>
        <pt x="53" y="0" on="0"/>
        <pt x="52" y="0" on="1"/>
        <pt x="52" y="774" on="1"/>
        <pt x="53" y="774" on="0"/>
        <pt x="53" y="774" on="1"/>
        <pt x="53" y="774" on="0"/>
        <pt x="53" y="775" on="1"/>
        <pt x="53" y="775" on="0"/>
        <pt x="53" y="776" on="1"/>
        <pt x="615" y="776" on="1"/>
        <pt x="615" y="628" on="1"/>
        <pt x="202" y="628" on="1"/>
        <pt x="200" y="628" on="0"/>
        <pt x="200" y="626" on="1"/>
        <pt x="200" y="485" on="1"/>
        <pt x="200" y="482" on="0"/>
      </contour>
      <contour>
        <pt x="510" y="330" on="1"/>
        <pt x="512" y="330" on="0"/>
        <pt x="512" y="333" on="1"/>
        <pt x="511" y="485" on="1"/>
        <pt x="511" y="488" on="0"/>
        <pt x="509" y="488" on="1"/>
        <pt x="204" y="488" on="1"/>
        <pt x="204" y="624" on="1"/>
        <pt x="618" y="624" on="1"/>
        <pt x="620" y="624" on="0"/>
        <pt x="620" y="626" on="1"/>
        <pt x="619" y="778" on="1"/>
        <pt x="619" y="780" on="0"/>
        <pt x="617" y="780" on="1"/>
        <pt x="50" y="780" on="1"/>
        <pt x="48" y="780" on="0"/>
        <pt x="48" y="778" on="1"/>
        <pt x="48" y="774" on="0"/>
        <pt x="48" y="774" on="1"/>
        <pt x="48" y="-2" on="1"/>
        <pt x="48" y="-3" on="0"/>
        <pt x="49" y="-4" on="1"/>
        <pt x="50" y="-6" on="0"/>
        <pt x="51" y="-6" on="1"/>
        <pt x="618" y="-6" on="1"/>
        <pt x="620" y="-6" on="0"/>
        <pt x="620" y="-3" on="1"/>
        <pt x="619" y="149" on="1"/>
        <pt x="619" y="152" on="0"/>
        <pt x="617" y="152" on="1"/>
        <pt x="204" y="152" on="1"/>
        <pt x="204" y="330" on="1"/>
      </contour>
    </TTGlyph>
    <TTGlyph name="Edotaccent.2" xMin="50" yMin="-3" xMax="618" yMax="980">
      <component glyphName="Edotaccent.0" x="50" y="-10" flags="0x4"/>
    </TTGlyph>
    <TTGlyph name="Egrave" xMin="50" yMin="7" xMax="618" yMax="1137">
      <component glyphName="gravecomb" x="296" y="322" flags="0x1004"/>
      <component glyphName="E" x="0" y="0" flags="0x1204"/>
    </TTGlyph>
    <TTGlyph name="Egrave.0" xMin="0" yMin="7" xMax="568" yMax="1137">
      <contour>
        <pt x="283" y="848" on="1"/>
        <pt x="391" y="955" on="1"/>
        <pt x="209" y="1137" on="1"/>
        <pt x="101" y="1030" on="1"/>
      </contour>
      <contour>
        <pt x="459" y="495" on="1"/>
        <pt x="152" y="495" on="1"/>
        <pt x="152" y="636" on="1"/>
        <pt x="568" y="636" on="1"/>
        <pt x="567" y="788" on="1"/>
        <pt x="0" y="788" on="1"/>
        <pt x="0" y="784" on="1"/>
        <pt x="0" y="8" on="1"/>
        <pt x="1" y="8" on="1"/>
        <pt x="1" y="7" on="1"/>
        <pt x="568" y="7" on="1"/>
        <pt x="567" y="159" on="1"/>
        <pt x="152" y="159" on="1"/>
        <pt x="152" y="343" on="1"/>
        <pt x="460" y="343" on="1"/>
      </contour>
    </TTGlyph>
    <TTGlyph name="Egrave.1" xMin="48" yMin="-6" xMax="620" yMax="1130">
      <contour>
        <pt x="155" y="1020" on="1"/>
        <pt x="259" y="1123" on="1"/>
        <pt x="437" y="945" on="1"/>
        <pt x="333" y="842" on="1"/>
      </contour>
      <contour>
        <pt x="149" y="1022" on="1"/>
        <pt x="148" y="1021" on="0"/>
        <pt x="148" y="1020" on="1"/>
        <pt x="148" y="1019" on="0"/>
        <pt x="149" y="1018" on="1"/>
        <pt x="331" y="836" on="1"/>
        <pt x="332" y="836" on="0"/>
        <pt x="333" y="836" on="1"/>
        <pt x="334" y="836" on="0"/>
        <pt x="335" y="836" on="1"/>
        <pt x="443" y="943" on="1"/>
        <pt x="444" y="944" on="0"/>
        <pt x="444" y="945" on="1"/>
        <pt x="444" y="946" on="0"/>
        <pt x="443" y="947" on="1"/>
        <pt x="261" y="1129" on="1"/>
        <pt x="260" y="1130" on="0"/>
        <pt x="259" y="1130" on="1"/>
        <pt x="258" y="1130" on="0"/>
        <pt x="257" y="1129" on="1"/>
      </contour>
      <contour>
        <pt x="202" y="482" on="1"/>
        <pt x="507" y="482" on="1"/>
        <pt x="507" y="336" on="1"/>
        <pt x="202" y="336" on="1"/>
        <pt x="200" y="336" on="0"/>
        <pt x="200" y="333" on="1"/>
        <pt x="200" y="149" on="1"/>
        <pt x="200" y="146" on="0"/>
        <pt x="202" y="146" on="1"/>
        <pt x="615" y="146" on="1"/>
        <pt x="615" y="0" on="1"/>
        <pt x="53" y="0" on="1"/>
        <pt x="53" y="0" on="0"/>
        <pt x="52" y="0" on="1"/>
        <pt x="52" y="774" on="1"/>
        <pt x="53" y="774" on="0"/>
        <pt x="53" y="774" on="1"/>
        <pt x="53" y="774" on="0"/>
        <pt x="53" y="775" on="1"/>
        <pt x="53" y="775" on="0"/>
        <pt x="53" y="776" on="1"/>
        <pt x="615" y="776" on="1"/>
        <pt x="615" y="628" on="1"/>
        <pt x="202" y="628" on="1"/>
        <pt x="200" y="628" on="0"/>
        <pt x="200" y="626" on="1"/>
        <pt x="200" y="485" on="1"/>
        <pt x="200" y="482" on="0"/>
      </contour>
      <contour>
        <pt x="510" y="330" on="1"/>
        <pt x="512" y="330" on="0"/>
        <pt x="512" y="333" on="1"/>
        <pt x="511" y="485" on="1"/>
        <pt x="511" y="488" on="0"/>
        <pt x="509" y="488" on="1"/>
        <pt x="204" y="488" on="1"/>
        <pt x="204" y="624" on="1"/>
        <pt x="618" y="624" on="1"/>
        <pt x="620" y="624" on="0"/>
        <pt x="620" y="626" on="1"/>
        <pt x="619" y="778" on="1"/>
        <pt x="619" y="780" on="0"/>
        <pt x="617" y="780" on="1"/>
        <pt x="50" y="780" on="1"/>
        <pt x="48" y="780" on="0"/>
        <pt x="48" y="778" on="1"/>
        <pt x="48" y="774" on="0"/>
        <pt x="48" y="774" on="1"/>
        <pt x="48" y="-2" on="1"/>
        <pt x="48" y="-3" on="0"/>
        <pt x="49" y="-4" on="1"/>
        <pt x="50" y="-6" on="0"/>
        <pt x="51" y="-6" on="1"/>
        <pt x="618" y="-6" on="1"/>
        <pt x="620" y="-6" on="0"/>
        <pt x="620" y="-3" on="1"/>
        <pt x="619" y="149" on="1"/>
        <pt x="619" y="152" on="0"/>
        <pt x="617" y="152" on="1"/>
        <pt x="204" y="152" on="1"/>
        <pt x="204" y="330" on="1"/>
      </contour>
    </TTGlyph>
    <TTGlyph name="Egrave.2" xMin="50" yMin="-3" xMax="618" yMax="1127">
      <component glyphName="Egrave.0" x="50" y="-10" flags="0x4"/>
    </TTGlyph>
    <TTGlyph name="Emacron" xMin="50" yMin="7" xMax="618" yMax="924">
      <component glyphName="uni0304" x="334" y="56" flags="0x1004"/>
      <component glyphName="E" x="0" y="0" flags="0x1204"/>
    </TTGlyph>
    <TTGlyph name="Emacron.0" xMin="0" yMin="7" xMax="568" yMax="924">
      <contour>
        <pt x="420" y="924" on="1"/>
        <pt x="148" y="924" on="1"/>
        <pt x="148" y="848" on="1"/>
        <pt x="420" y="848" on="1"/>
      </contour>
      <contour>
        <pt x="459" y="495" on="1"/>
        <pt x="152" y="495" on="1"/>
        <pt x="152" y="636" on="1"/>
        <pt x="568" y="636" on="1"/>
        <pt x="567" y="788" on="1"/>
        <pt x="0" y="788" on="1"/>
        <pt x="0" y="784" on="1"/>
        <pt x="0" y="8" on="1"/>
        <pt x="1" y="8" on="1"/>
        <pt x="1" y="7" on="1"/>
        <pt x="568" y="7" on="1"/>
        <pt x="567" y="159" on="1"/>
        <pt x="152" y="159" on="1"/>
        <pt x="152" y="343" on="1"/>
        <pt x="460" y="343" on="1"/>
      </contour>
    </TTGlyph>
    <TTGlyph name="Emacron.1" xMin="48" yMin="-6" xMax="620" yMax="916">
      <contour>
        <pt x="468" y="840" on="1"/>
        <pt x="200" y="840" on="1"/>
        <pt x="200" y="912" on="1"/>
        <pt x="468" y="912" on="1"/>
      </contour>
      <contour>
        <pt x="472" y="914" on="1"/>
        <pt x="472" y="916" on="0"/>
        <pt x="470" y="916" on="1"/>
        <pt x="198" y="916" on="1"/>
        <pt x="196" y="916" on="0"/>
        <pt x="196" y="914" on="1"/>
        <pt x="196" y="838" on="1"/>
        <pt x="196" y="836" on="0"/>
        <pt x="198" y="836" on="1"/>
        <pt x="470" y="836" on="1"/>
        <pt x="472" y="836" on="0"/>
        <pt x="472" y="838" on="1"/>
      </contour>
      <contour>
        <pt x="202" y="482" on="1"/>
        <pt x="507" y="482" on="1"/>
        <pt x="507" y="336" on="1"/>
        <pt x="202" y="336" on="1"/>
        <pt x="200" y="336" on="0"/>
        <pt x="200" y="333" on="1"/>
        <pt x="200" y="149" on="1"/>
        <pt x="200" y="146" on="0"/>
        <pt x="202" y="146" on="1"/>
        <pt x="615" y="146" on="1"/>
        <pt x="615" y="0" on="1"/>
        <pt x="53" y="0" on="1"/>
        <pt x="53" y="0" on="0"/>
        <pt x="52" y="0" on="1"/>
        <pt x="52" y="774" on="1"/>
        <pt x="53" y="774" on="0"/>
        <pt x="53" y="774" on="1"/>
        <pt x="53" y="774" on="0"/>
        <pt x="53" y="775" on="1"/>
        <pt x="53" y="775" on="0"/>
        <pt x="53" y="776" on="1"/>
        <pt x="615" y="776" on="1"/>
        <pt x="615" y="628" on="1"/>
        <pt x="202" y="628" on="1"/>
        <pt x="200" y="628" on="0"/>
        <pt x="200" y="626" on="1"/>
        <pt x="200" y="485" on="1"/>
        <pt x="200" y="482" on="0"/>
      </contour>
      <contour>
        <pt x="510" y="330" on="1"/>
        <pt x="512" y="330" on="0"/>
        <pt x="512" y="333" on="1"/>
        <pt x="511" y="485" on="1"/>
        <pt x="511" y="488" on="0"/>
        <pt x="509" y="488" on="1"/>
        <pt x="204" y="488" on="1"/>
        <pt x="204" y="624" on="1"/>
        <pt x="618" y="624" on="1"/>
        <pt x="620" y="624" on="0"/>
        <pt x="620" y="626" on="1"/>
        <pt x="619" y="778" on="1"/>
        <pt x="619" y="780" on="0"/>
        <pt x="617" y="780" on="1"/>
        <pt x="50" y="780" on="1"/>
        <pt x="48" y="780" on="0"/>
        <pt x="48" y="778" on="1"/>
        <pt x="48" y="774" on="0"/>
        <pt x="48" y="774" on="1"/>
        <pt x="48" y="-2" on="1"/>
        <pt x="48" y="-3" on="0"/>
        <pt x="49" y="-4" on="1"/>
        <pt x="50" y="-6" on="0"/>
        <pt x="51" y="-6" on="1"/>
        <pt x="618" y="-6" on="1"/>
        <pt x="620" y="-6" on="0"/>
        <pt x="620" y="-3" on="1"/>
        <pt x="619" y="149" on="1"/>
        <pt x="619" y="152" on="0"/>
        <pt x="617" y="152" on="1"/>
        <pt x="204" y="152" on="1"/>
        <pt x="204" y="330" on="1"/>
      </contour>
    </TTGlyph>
    <TTGlyph name="Emacron.2" xMin="50" yMin="-3" xMax="618" yMax="914">
      <component glyphName="Emacron.0" x="50" y="-10" flags="0x4"/>
    </TTGlyph>
    <TTGlyph name="Eogonek" xMin="50" yMin="-253" xMax="619" yMax="788">
      <component glyphName="uni0328" x="548" y="-195" flags="0x1004"/>
      <component glyphName="E" x="0" y="0" flags="0x1004"/>
    </TTGlyph>
    <TTGlyph name="Eogonek.0" xMin="0" yMin="-253" xMax="569" yMax="788">
      <contour>
        <pt x="569" y="-253" on="1"/>
        <pt x="569" y="-176" on="1"/>
        <pt x="561" y="-178" on="0"/>
        <pt x="556" y="-178" on="1"/>
        <pt x="533" y="-178" on="0"/>
        <pt x="518" y="-162" on="1"/>
        <pt x="502" y="-147" on="0"/>
        <pt x="502" y="-125" on="1"/>
        <pt x="502" y="-103" on="0"/>
        <pt x="518" y="-87" on="1"/>
        <pt x="534" y="-71" on="0"/>
        <pt x="556" y="-71" on="1"/>
        <pt x="561" y="-71" on="0"/>
        <pt x="569" y="-73" on="1"/>
        <pt x="569" y="4" on="1"/>
        <pt x="556" y="4" on="1"/>
        <pt x="502" y="4" on="0"/>
        <pt x="465" y="-33" on="1"/>
        <pt x="427" y="-71" on="0"/>
        <pt x="427" y="-125" on="1"/>
        <pt x="427" y="-178" on="0"/>
        <pt x="465" y="-215" on="1"/>
        <pt x="502" y="-253" on="0"/>
        <pt x="556" y="-253" on="1"/>
        <pt x="569" y="-253" on="0"/>
      </contour>
      <contour>
        <pt x="459" y="495" on="1"/>
        <pt x="152" y="495" on="1"/>
        <pt x="152" y="636" on="1"/>
        <pt x="568" y="636" on="1"/>
        <pt x="567" y="788" on="1"/>
        <pt x="0" y="788" on="1"/>
        <pt x="0" y="784" on="1"/>
        <pt x="0" y="8" on="1"/>
        <pt x="1" y="8" on="1"/>
        <pt x="1" y="7" on="1"/>
        <pt x="568" y="7" on="1"/>
        <pt x="567" y="159" on="1"/>
        <pt x="152" y="159" on="1"/>
        <pt x="152" y="343" on="1"/>
        <pt x="460" y="343" on="1"/>
      </contour>
    </TTGlyph>
    <TTGlyph name="Eogonek.1" xMin="48" yMin="-265" xMax="622" yMax="780">
      <contour>
        <pt x="616" y="-9" on="1"/>
        <pt x="616" y="-80" on="1"/>
        <pt x="610" y="-79" on="0"/>
        <pt x="606" y="-79" on="1"/>
        <pt x="582" y="-79" on="0"/>
        <pt x="566" y="-95" on="1"/>
        <pt x="550" y="-111" on="0"/>
        <pt x="550" y="-134" on="1"/>
        <pt x="550" y="-158" on="0"/>
        <pt x="566" y="-174" on="1"/>
        <pt x="582" y="-191" on="0"/>
        <pt x="606" y="-191" on="1"/>
        <pt x="610" y="-191" on="0"/>
        <pt x="616" y="-189" on="1"/>
        <pt x="616" y="-261" on="1"/>
        <pt x="606" y="-261" on="1"/>
        <pt x="553" y="-261" on="0"/>
        <pt x="517" y="-224" on="1"/>
        <pt x="480" y="-187" on="0"/>
        <pt x="480" y="-135" on="1"/>
        <pt x="480" y="-82" on="0"/>
        <pt x="517" y="-45" on="1"/>
        <pt x="553" y="-9" on="0"/>
        <pt x="606" y="-9" on="1"/>
      </contour>
      <contour>
        <pt x="619" y="-265" on="1"/>
        <pt x="622" y="-265" on="0"/>
        <pt x="622" y="-263" on="1"/>
        <pt x="622" y="-186" on="1"/>
        <pt x="622" y="-183" on="0"/>
        <pt x="619" y="-183" on="1"/>
        <pt x="619" y="-183" on="0"/>
        <pt x="618" y="-184" on="1"/>
        <pt x="611" y="-185" on="0"/>
        <pt x="606" y="-185" on="1"/>
        <pt x="584" y="-185" on="0"/>
        <pt x="569" y="-170" on="1"/>
        <pt x="554" y="-156" on="0"/>
        <pt x="554" y="-135" on="1"/>
        <pt x="554" y="-114" on="0"/>
        <pt x="570" y="-98" on="1"/>
        <pt x="585" y="-83" on="0"/>
        <pt x="606" y="-83" on="1"/>
        <pt x="611" y="-83" on="0"/>
        <pt x="618" y="-85" on="1"/>
        <pt x="619" y="-85" on="0"/>
        <pt x="619" y="-85" on="1"/>
        <pt x="622" y="-85" on="0"/>
        <pt x="622" y="-83" on="1"/>
        <pt x="622" y="-6" on="1"/>
        <pt x="622" y="-3" on="0"/>
        <pt x="619" y="-3" on="1"/>
        <pt x="606" y="-3" on="1"/>
        <pt x="551" y="-3" on="0"/>
        <pt x="513" y="-41" on="1"/>
        <pt x="474" y="-80" on="0"/>
        <pt x="474" y="-135" on="1"/>
        <pt x="474" y="-189" on="0"/>
        <pt x="513" y="-227" on="1"/>
        <pt x="551" y="-265" on="0"/>
        <pt x="606" y="-265" on="1"/>
      </contour>
      <contour>
        <pt x="202" y="482" on="1"/>
        <pt x="507" y="482" on="1"/>
        <pt x="507" y="336" on="1"/>
        <pt x="202" y="336" on="1"/>
        <pt x="200" y="336" on="0"/>
        <pt x="200" y="333" on="1"/>
        <pt x="200" y="149" on="1"/>
        <pt x="200" y="146" on="0"/>
        <pt x="202" y="146" on="1"/>
        <pt x="615" y="146" on="1"/>
        <pt x="615" y="0" on="1"/>
        <pt x="53" y="0" on="1"/>
        <pt x="53" y="0" on="0"/>
        <pt x="52" y="0" on="1"/>
        <pt x="52" y="774" on="1"/>
        <pt x="53" y="774" on="0"/>
        <pt x="53" y="774" on="1"/>
        <pt x="53" y="774" on="0"/>
        <pt x="53" y="775" on="1"/>
        <pt x="53" y="775" on="0"/>
        <pt x="53" y="776" on="1"/>
        <pt x="615" y="776" on="1"/>
        <pt x="615" y="628" on="1"/>
        <pt x="202" y="628" on="1"/>
        <pt x="200" y="628" on="0"/>
        <pt x="200" y="626" on="1"/>
        <pt x="200" y="485" on="1"/>
        <pt x="200" y="482" on="0"/>
      </contour>
      <contour>
        <pt x="510" y="330" on="1"/>
        <pt x="512" y="330" on="0"/>
        <pt x="512" y="333" on="1"/>
        <pt x="511" y="485" on="1"/>
        <pt x="511" y="488" on="0"/>
        <pt x="509" y="488" on="1"/>
        <pt x="204" y="488" on="1"/>
        <pt x="204" y="624" on="1"/>
        <pt x="618" y="624" on="1"/>
        <pt x="620" y="624" on="0"/>
        <pt x="620" y="626" on="1"/>
        <pt x="619" y="778" on="1"/>
        <pt x="619" y="780" on="0"/>
        <pt x="617" y="780" on="1"/>
        <pt x="50" y="780" on="1"/>
        <pt x="48" y="780" on="0"/>
        <pt x="48" y="778" on="1"/>
        <pt x="48" y="774" on="0"/>
        <pt x="48" y="774" on="1"/>
        <pt x="48" y="-2" on="1"/>
        <pt x="48" y="-3" on="0"/>
        <pt x="49" y="-4" on="1"/>
        <pt x="50" y="-6" on="0"/>
        <pt x="51" y="-6" on="1"/>
        <pt x="618" y="-6" on="1"/>
        <pt x="620" y="-6" on="0"/>
        <pt x="620" y="-3" on="1"/>
        <pt x="619" y="149" on="1"/>
        <pt x="619" y="152" on="0"/>
        <pt x="617" y="152" on="1"/>
        <pt x="204" y="152" on="1"/>
        <pt x="204" y="330" on="1"/>
      </contour>
    </TTGlyph>
    <TTGlyph name="Eogonek.2" xMin="50" yMin="-263" xMax="619" yMax="778">
      <component glyphName="Eogonek.0" x="50" y="-10" flags="0x4"/>
    </TTGlyph>
    <TTGlyph name="Eth" xMin="50" yMin="-4" xMax="640" yMax="783">
      <contour>
        <pt x="262" y="153" on="1"/>
        <pt x="356" y="155" on="0"/>
        <pt x="487" y="292" on="0"/>
        <pt x="487" y="388" on="1"/>
        <pt x="487" y="484" on="0"/>
        <pt x="356" y="620" on="0"/>
        <pt x="262" y="622" on="1"/>
        <pt x="262" y="506" on="1"/>
        <pt x="321" y="506" on="1"/>
        <pt x="321" y="354" on="1"/>
        <pt x="262" y="354" on="1"/>
      </contour>
      <contour>
        <pt x="110" y="778" on="1"/>
        <pt x="125" y="773" on="0"/>
        <pt x="243" y="783" on="0"/>
        <pt x="258" y="783" on="1"/>
        <pt x="416" y="783" on="0"/>
        <pt x="640" y="553" on="0"/>
        <pt x="640" y="390" on="1"/>
        <pt x="640" y="283" on="0"/>
        <pt x="539" y="103" on="0"/>
        <pt x="365" y="-3" on="0"/>
        <pt x="262" y="-4" on="1"/>
        <pt x="110" y="-4" on="1"/>
        <pt x="110" y="354" on="1"/>
        <pt x="50" y="354" on="1"/>
        <pt x="50" y="506" on="1"/>
        <pt x="110" y="506" on="1"/>
      </contour>
    </TTGlyph>
    <TTGlyph name="Eth.0" xMin="0" yMin="-4" xMax="590" yMax="783">
      <contour>
        <pt x="212" y="153" on="1"/>
        <pt x="212" y="354" on="1"/>
        <pt x="271" y="354" on="1"/>
        <pt x="271" y="506" on="1"/>
        <pt x="212" y="506" on="1"/>
        <pt x="212" y="622" on="1"/>
        <pt x="306" y="620" on="0"/>
        <pt x="372" y="552" on="1"/>
        <pt x="437" y="484" on="0"/>
        <pt x="437" y="388" on="1"/>
        <pt x="437" y="292" on="0"/>
        <pt x="372" y="224" on="1"/>
        <pt x="306" y="155" on="0"/>
      </contour>
      <contour>
        <pt x="60" y="778" on="1"/>
        <pt x="60" y="506" on="1"/>
        <pt x="0" y="506" on="1"/>
        <pt x="0" y="354" on="1"/>
        <pt x="60" y="354" on="1"/>
        <pt x="60" y="-4" on="1"/>
        <pt x="212" y="-4" on="1"/>
        <pt x="315" y="-3" on="0"/>
        <pt x="402" y="50" on="1"/>
        <pt x="489" y="103" on="0"/>
        <pt x="540" y="193" on="1"/>
        <pt x="590" y="283" on="0"/>
        <pt x="590" y="390" on="1"/>
        <pt x="590" y="553" on="0"/>
        <pt x="478" y="668" on="1"/>
        <pt x="366" y="783" on="0"/>
        <pt x="208" y="783" on="1"/>
        <pt x="193" y="783" on="0"/>
        <pt x="134" y="778" on="1"/>
        <pt x="75" y="773" on="0"/>
      </contour>
    </TTGlyph>
    <TTGlyph name="Eth.1" xMin="48" yMin="-16" xMax="642" yMax="776">
      <contour>
        <pt x="264" y="342" on="1"/>
        <pt x="321" y="342" on="1"/>
        <pt x="324" y="342" on="0"/>
        <pt x="324" y="344" on="1"/>
        <pt x="324" y="496" on="1"/>
        <pt x="324" y="498" on="0"/>
        <pt x="321" y="498" on="1"/>
        <pt x="264" y="498" on="1"/>
        <pt x="264" y="609" on="1"/>
        <pt x="356" y="607" on="0"/>
        <pt x="420" y="540" on="1"/>
        <pt x="484" y="472" on="0"/>
        <pt x="484" y="378" on="1"/>
        <pt x="484" y="283" on="0"/>
        <pt x="420" y="216" on="1"/>
        <pt x="356" y="148" on="0"/>
        <pt x="264" y="146" on="1"/>
      </contour>
      <contour>
        <pt x="260" y="143" on="1"/>
        <pt x="260" y="141" on="0"/>
        <pt x="262" y="141" on="1"/>
        <pt x="357" y="142" on="0"/>
        <pt x="424" y="212" on="1"/>
        <pt x="490" y="281" on="0"/>
        <pt x="490" y="378" on="1"/>
        <pt x="490" y="475" on="0"/>
        <pt x="424" y="544" on="1"/>
        <pt x="357" y="613" on="0"/>
        <pt x="262" y="614" on="1"/>
        <pt x="260" y="614" on="0"/>
        <pt x="260" y="612" on="1"/>
        <pt x="260" y="496" on="1"/>
        <pt x="260" y="494" on="0"/>
        <pt x="262" y="494" on="1"/>
        <pt x="318" y="494" on="1"/>
        <pt x="318" y="346" on="1"/>
        <pt x="262" y="346" on="1"/>
        <pt x="260" y="346" on="0"/>
        <pt x="260" y="344" on="1"/>
      </contour>
      <contour>
        <pt x="258" y="770" on="1"/>
        <pt x="361" y="770" on="0"/>
        <pt x="449" y="718" on="1"/>
        <pt x="536" y="666" on="0"/>
        <pt x="587" y="576" on="1"/>
        <pt x="638" y="486" on="0"/>
        <pt x="638" y="380" on="1"/>
        <pt x="638" y="274" on="0"/>
        <pt x="588" y="185" on="1"/>
        <pt x="537" y="95" on="0"/>
        <pt x="451" y="43" on="1"/>
        <pt x="364" y="-10" on="0"/>
        <pt x="262" y="-11" on="1"/>
        <pt x="112" y="-11" on="1"/>
        <pt x="112" y="344" on="1"/>
        <pt x="112" y="346" on="0"/>
        <pt x="110" y="346" on="1"/>
        <pt x="52" y="346" on="1"/>
        <pt x="52" y="494" on="1"/>
        <pt x="110" y="494" on="1"/>
        <pt x="112" y="494" on="0"/>
        <pt x="112" y="496" on="1"/>
        <pt x="112" y="765" on="1"/>
        <pt x="127" y="763" on="0"/>
        <pt x="144" y="763" on="1"/>
        <pt x="163" y="763" on="0"/>
        <pt x="201" y="767" on="1"/>
        <pt x="239" y="770" on="0"/>
      </contour>
      <contour>
        <pt x="144" y="768" on="1"/>
        <pt x="126" y="768" on="0"/>
        <pt x="110" y="770" on="1"/>
        <pt x="108" y="770" on="0"/>
        <pt x="108" y="768" on="1"/>
        <pt x="108" y="498" on="1"/>
        <pt x="50" y="498" on="1"/>
        <pt x="48" y="498" on="0"/>
        <pt x="48" y="496" on="1"/>
        <pt x="48" y="344" on="1"/>
        <pt x="48" y="342" on="0"/>
        <pt x="50" y="342" on="1"/>
        <pt x="108" y="342" on="1"/>
        <pt x="108" y="-14" on="1"/>
        <pt x="108" y="-16" on="0"/>
        <pt x="110" y="-16" on="1"/>
        <pt x="262" y="-16" on="1"/>
        <pt x="366" y="-15" on="0"/>
        <pt x="454" y="38" on="1"/>
        <pt x="541" y="91" on="0"/>
        <pt x="592" y="182" on="1"/>
        <pt x="642" y="273" on="0"/>
        <pt x="642" y="380" on="1"/>
        <pt x="642" y="487" on="0"/>
        <pt x="591" y="579" on="1"/>
        <pt x="540" y="670" on="0"/>
        <pt x="451" y="723" on="1"/>
        <pt x="362" y="776" on="0"/>
        <pt x="258" y="776" on="1"/>
        <pt x="239" y="776" on="0"/>
        <pt x="201" y="772" on="1"/>
        <pt x="163" y="768" on="0"/>
      </contour>
    </TTGlyph>
    <TTGlyph name="Eth.2" xMin="50" yMin="-14" xMax="640" yMax="773">
      <component glyphName="Eth.0" x="50" y="-10" flags="0x4"/>
    </TTGlyph>
    <TTGlyph name="F" xMin="50" yMin="8" xMax="618" yMax="788">
      <contour>
        <pt x="509" y="495" on="1"/>
        <pt x="510" y="343" on="1"/>
        <pt x="202" y="343" on="1"/>
        <pt x="202" y="8" on="1"/>
        <pt x="50" y="8" on="1"/>
        <pt x="50" y="784" on="1"/>
        <pt x="50" y="788" on="1"/>
        <pt x="617" y="788" on="1"/>
        <pt x="618" y="636" on="1"/>
        <pt x="202" y="636" on="1"/>
        <pt x="202" y="495" on="1"/>
      </contour>
    </TTGlyph>
    <TTGlyph name="F.0" xMin="0" yMin="8" xMax="568" yMax="788">
      <contour>
        <pt x="459" y="495" on="1"/>
        <pt x="152" y="495" on="1"/>
        <pt x="152" y="636" on="1"/>
        <pt x="568" y="636" on="1"/>
        <pt x="567" y="788" on="1"/>
        <pt x="0" y="788" on="1"/>
        <pt x="0" y="784" on="1"/>
        <pt x="0" y="8" on="1"/>
        <pt x="152" y="8" on="1"/>
        <pt x="152" y="343" on="1"/>
        <pt x="460" y="343" on="1"/>
      </contour>
    </TTGlyph>
    <TTGlyph name="F.1" xMin="48" yMin="-4" xMax="620" yMax="780">
      <contour>
        <pt x="202" y="482" on="1"/>
        <pt x="507" y="482" on="1"/>
        <pt x="507" y="336" on="1"/>
        <pt x="202" y="336" on="1"/>
        <pt x="200" y="336" on="0"/>
        <pt x="200" y="333" on="1"/>
        <pt x="200" y="0" on="1"/>
        <pt x="52" y="0" on="1"/>
        <pt x="52" y="774" on="1"/>
        <pt x="53" y="774" on="0"/>
        <pt x="53" y="774" on="1"/>
        <pt x="53" y="774" on="0"/>
        <pt x="53" y="775" on="1"/>
        <pt x="53" y="775" on="0"/>
        <pt x="53" y="776" on="1"/>
        <pt x="615" y="776" on="1"/>
        <pt x="615" y="628" on="1"/>
        <pt x="202" y="628" on="1"/>
        <pt x="200" y="628" on="0"/>
        <pt x="200" y="626" on="1"/>
        <pt x="200" y="485" on="1"/>
        <pt x="200" y="482" on="0"/>
      </contour>
      <contour>
        <pt x="510" y="330" on="1"/>
        <pt x="512" y="330" on="0"/>
        <pt x="512" y="333" on="1"/>
        <pt x="511" y="485" on="1"/>
        <pt x="511" y="488" on="0"/>
        <pt x="509" y="488" on="1"/>
        <pt x="204" y="488" on="1"/>
        <pt x="204" y="624" on="1"/>
        <pt x="618" y="624" on="1"/>
        <pt x="620" y="624" on="0"/>
        <pt x="620" y="626" on="1"/>
        <pt x="619" y="778" on="1"/>
        <pt x="619" y="780" on="0"/>
        <pt x="617" y="780" on="1"/>
        <pt x="50" y="780" on="1"/>
        <pt x="48" y="780" on="0"/>
        <pt x="48" y="778" on="1"/>
        <pt x="48" y="774" on="0"/>
        <pt x="48" y="774" on="1"/>
        <pt x="48" y="-2" on="1"/>
        <pt x="48" y="-4" on="0"/>
        <pt x="50" y="-4" on="1"/>
        <pt x="202" y="-4" on="1"/>
        <pt x="204" y="-4" on="0"/>
        <pt x="204" y="-2" on="1"/>
        <pt x="204" y="330" on="1"/>
      </contour>
    </TTGlyph>
    <TTGlyph name="F.2" xMin="50" yMin="-2" xMax="618" yMax="778">
      <component glyphName="F.0" x="50" y="-10" flags="0x4"/>
    </TTGlyph>
    <TTGlyph name="G" xMin="50" yMin="-4" xMax="601" yMax="783">
      <contour>
        <pt x="432" y="622" on="1"/>
        <pt x="337" y="622" on="0"/>
        <pt x="203" y="485" on="0"/>
        <pt x="203" y="388" on="1"/>
        <pt x="203" y="290" on="0"/>
        <pt x="337" y="153" on="0"/>
        <pt x="432" y="153" on="1"/>
        <pt x="441" y="153" on="0"/>
        <pt x="449" y="154" on="1"/>
        <pt x="449" y="323" on="1"/>
        <pt x="601" y="323" on="1"/>
        <pt x="601" y="-4" on="1"/>
        <pt x="449" y="-4" on="1"/>
        <pt x="441" y="-4" on="0"/>
        <pt x="432" y="-4" on="1"/>
        <pt x="274" y="-4" on="0"/>
        <pt x="50" y="227" on="0"/>
        <pt x="50" y="553" on="0"/>
        <pt x="274" y="783" on="0"/>
        <pt x="432" y="783" on="1"/>
        <pt x="469" y="783" on="0"/>
        <pt x="505" y="776" on="1"/>
        <pt x="505" y="610" on="1"/>
        <pt x="470" y="622" on="0"/>
      </contour>
    </TTGlyph>
    <TTGlyph name="G.0" xMin="0" yMin="-4" xMax="551" yMax="783">
      <contour>
        <pt x="382" y="622" on="1"/>
        <pt x="420" y="622" on="0"/>
        <pt x="455" y="610" on="1"/>
        <pt x="455" y="776" on="1"/>
        <pt x="419" y="783" on="0"/>
        <pt x="382" y="783" on="1"/>
        <pt x="224" y="783" on="0"/>
        <pt x="112" y="668" on="1"/>
        <pt x="0" y="553" on="0"/>
        <pt x="0" y="390" on="1"/>
        <pt x="0" y="227" on="0"/>
        <pt x="112" y="112" on="1"/>
        <pt x="224" y="-4" on="0"/>
        <pt x="382" y="-4" on="1"/>
        <pt x="391" y="-4" on="0"/>
        <pt x="399" y="-4" on="1"/>
        <pt x="551" y="-4" on="1"/>
        <pt x="551" y="323" on="1"/>
        <pt x="399" y="323" on="1"/>
        <pt x="399" y="154" on="1"/>
        <pt x="391" y="153" on="0"/>
        <pt x="382" y="153" on="1"/>
        <pt x="287" y="153" on="0"/>
        <pt x="220" y="222" on="1"/>
        <pt x="153" y="290" on="0"/>
        <pt x="153" y="388" on="1"/>
        <pt x="153" y="485" on="0"/>
        <pt x="220" y="554" on="1"/>
        <pt x="287" y="622" on="0"/>
      </contour>
    </TTGlyph>
    <TTGlyph name="G.1" xMin="48" yMin="-16" xMax="604" yMax="776">
      <contour>
        <pt x="432" y="-12" on="1"/>
        <pt x="329" y="-12" on="0"/>
        <pt x="242" y="41" on="1"/>
        <pt x="154" y="93" on="0"/>
        <pt x="103" y="183" on="1"/>
        <pt x="52" y="273" on="0"/>
        <pt x="52" y="380" on="1"/>
        <pt x="52" y="486" on="0"/>
        <pt x="103" y="576" on="1"/>
        <pt x="154" y="666" on="0"/>
        <pt x="242" y="718" on="1"/>
        <pt x="329" y="770" on="0"/>
        <pt x="432" y="770" on="1"/>
        <pt x="468" y="770" on="0"/>
        <pt x="502" y="764" on="1"/>
        <pt x="502" y="603" on="1"/>
        <pt x="468" y="614" on="0"/>
        <pt x="432" y="614" on="1"/>
        <pt x="336" y="614" on="0"/>
        <pt x="268" y="545" on="1"/>
        <pt x="200" y="476" on="0"/>
        <pt x="200" y="378" on="1"/>
        <pt x="200" y="279" on="0"/>
        <pt x="268" y="210" on="1"/>
        <pt x="336" y="140" on="0"/>
        <pt x="432" y="140" on="1"/>
        <pt x="441" y="140" on="0"/>
        <pt x="449" y="141" on="1"/>
        <pt x="452" y="141" on="0"/>
        <pt x="452" y="144" on="1"/>
        <pt x="452" y="310" on="1"/>
        <pt x="598" y="310" on="1"/>
        <pt x="598" y="-12" on="1"/>
        <pt x="450" y="-12" on="1"/>
        <pt x="450" y="-11" on="0"/>
        <pt x="449" y="-11" on="1"/>
        <pt x="446" y="-11" on="0"/>
        <pt x="441" y="-11" on="1"/>
        <pt x="435" y="-12" on="0"/>
      </contour>
      <contour>
        <pt x="432" y="610" on="1"/>
        <pt x="469" y="610" on="0"/>
        <pt x="504" y="598" on="1"/>
        <pt x="505" y="597" on="0"/>
        <pt x="505" y="597" on="1"/>
        <pt x="508" y="597" on="0"/>
        <pt x="508" y="600" on="1"/>
        <pt x="508" y="766" on="1"/>
        <pt x="508" y="768" on="0"/>
        <pt x="505" y="768" on="1"/>
        <pt x="469" y="776" on="0"/>
        <pt x="432" y="776" on="1"/>
        <pt x="328" y="776" on="0"/>
        <pt x="239" y="723" on="1"/>
        <pt x="150" y="670" on="0"/>
        <pt x="99" y="579" on="1"/>
        <pt x="48" y="487" on="0"/>
        <pt x="48" y="380" on="1"/>
        <pt x="48" y="272" on="0"/>
        <pt x="99" y="181" on="1"/>
        <pt x="150" y="89" on="0"/>
        <pt x="239" y="37" on="1"/>
        <pt x="327" y="-16" on="0"/>
        <pt x="432" y="-16" on="1"/>
        <pt x="440" y="-16" on="0"/>
        <pt x="448" y="-16" on="1"/>
        <pt x="448" y="-16" on="0"/>
        <pt x="449" y="-16" on="1"/>
        <pt x="601" y="-16" on="1"/>
        <pt x="604" y="-16" on="0"/>
        <pt x="604" y="-14" on="1"/>
        <pt x="604" y="313" on="1"/>
        <pt x="604" y="316" on="0"/>
        <pt x="601" y="316" on="1"/>
        <pt x="449" y="316" on="1"/>
        <pt x="446" y="316" on="0"/>
        <pt x="446" y="313" on="1"/>
        <pt x="446" y="146" on="1"/>
        <pt x="439" y="146" on="0"/>
        <pt x="432" y="146" on="1"/>
        <pt x="338" y="146" on="0"/>
        <pt x="272" y="214" on="1"/>
        <pt x="206" y="281" on="0"/>
        <pt x="206" y="378" on="1"/>
        <pt x="206" y="474" on="0"/>
        <pt x="272" y="542" on="1"/>
        <pt x="338" y="610" on="0"/>
      </contour>
    </TTGlyph>
    <TTGlyph name="G.2" xMin="50" yMin="-14" xMax="601" yMax="773">
      <component glyphName="G.0" x="50" y="-10" flags="0x4"/>
    </TTGlyph>
    <TTGlyph name="Gbreve" xMin="50" yMin="-4" xMax="601" yMax="967">
      <component glyphName="uni0306" x="432" y="25" flags="0x1004"/>
      <component glyphName="G" x="0" y="0" flags="0x1204"/>
    </TTGlyph>
    <TTGlyph name="Gbreve.0" xMin="0" yMin="-4" xMax="551" yMax="967">
      <contour>
        <pt x="510" y="967" on="1"/>
        <pt x="434" y="967" on="1"/>
        <pt x="436" y="959" on="0"/>
        <pt x="436" y="953" on="1"/>
        <pt x="436" y="931" on="0"/>
        <pt x="421" y="915" on="1"/>
        <pt x="405" y="899" on="0"/>
        <pt x="383" y="899" on="1"/>
        <pt x="360" y="899" on="0"/>
        <pt x="344" y="915" on="1"/>
        <pt x="328" y="931" on="0"/>
        <pt x="328" y="953" on="1"/>
        <pt x="328" y="959" on="0"/>
        <pt x="330" y="967" on="1"/>
        <pt x="254" y="967" on="1"/>
        <pt x="254" y="953" on="1"/>
        <pt x="254" y="899" on="0"/>
        <pt x="291" y="862" on="1"/>
        <pt x="328" y="825" on="0"/>
        <pt x="382" y="825" on="1"/>
        <pt x="436" y="825" on="0"/>
        <pt x="473" y="863" on="1"/>
        <pt x="510" y="900" on="0"/>
        <pt x="510" y="953" on="1"/>
        <pt x="510" y="967" on="0"/>
      </contour>
      <contour>
        <pt x="382" y="622" on="1"/>
        <pt x="420" y="622" on="0"/>
        <pt x="455" y="610" on="1"/>
        <pt x="455" y="776" on="1"/>
        <pt x="419" y="783" on="0"/>
        <pt x="382" y="783" on="1"/>
        <pt x="224" y="783" on="0"/>
        <pt x="112" y="668" on="1"/>
        <pt x="0" y="553" on="0"/>
        <pt x="0" y="390" on="1"/>
        <pt x="0" y="227" on="0"/>
        <pt x="112" y="112" on="1"/>
        <pt x="224" y="-4" on="0"/>
        <pt x="382" y="-4" on="1"/>
        <pt x="391" y="-4" on="0"/>
        <pt x="399" y="-4" on="1"/>
        <pt x="551" y="-4" on="1"/>
        <pt x="551" y="323" on="1"/>
        <pt x="399" y="323" on="1"/>
        <pt x="399" y="154" on="1"/>
        <pt x="391" y="153" on="0"/>
        <pt x="382" y="153" on="1"/>
        <pt x="287" y="153" on="0"/>
        <pt x="220" y="222" on="1"/>
        <pt x="153" y="290" on="0"/>
        <pt x="153" y="388" on="1"/>
        <pt x="153" y="485" on="0"/>
        <pt x="220" y="554" on="1"/>
        <pt x="287" y="622" on="0"/>
      </contour>
    </TTGlyph>
    <TTGlyph name="Gbreve.1" xMin="48" yMin="-16" xMax="604" yMax="959">
      <contour>
        <pt x="306" y="954" on="1"/>
        <pt x="377" y="954" on="1"/>
        <pt x="376" y="948" on="0"/>
        <pt x="376" y="943" on="1"/>
        <pt x="376" y="920" on="0"/>
        <pt x="393" y="904" on="1"/>
        <pt x="409" y="887" on="0"/>
        <pt x="433" y="887" on="1"/>
        <pt x="456" y="887" on="0"/>
        <pt x="472" y="904" on="1"/>
        <pt x="488" y="920" on="0"/>
        <pt x="488" y="943" on="1"/>
        <pt x="488" y="948" on="0"/>
        <pt x="487" y="954" on="1"/>
        <pt x="558" y="954" on="1"/>
        <pt x="558" y="943" on="1"/>
        <pt x="558" y="891" on="0"/>
        <pt x="522" y="854" on="1"/>
        <pt x="485" y="817" on="0"/>
        <pt x="433" y="817" on="1"/>
        <pt x="380" y="817" on="0"/>
        <pt x="343" y="854" on="1"/>
        <pt x="306" y="891" on="0"/>
        <pt x="306" y="943" on="1"/>
      </contour>
      <contour>
        <pt x="563" y="957" on="1"/>
        <pt x="563" y="959" on="0"/>
        <pt x="560" y="959" on="1"/>
        <pt x="484" y="959" on="1"/>
        <pt x="481" y="959" on="0"/>
        <pt x="481" y="957" on="1"/>
        <pt x="481" y="956" on="0"/>
        <pt x="481" y="956" on="1"/>
        <pt x="483" y="948" on="0"/>
        <pt x="483" y="943" on="1"/>
        <pt x="483" y="922" on="0"/>
        <pt x="469" y="907" on="1"/>
        <pt x="454" y="892" on="0"/>
        <pt x="433" y="892" on="1"/>
        <pt x="411" y="892" on="0"/>
        <pt x="396" y="907" on="1"/>
        <pt x="381" y="922" on="0"/>
        <pt x="381" y="943" on="1"/>
        <pt x="381" y="948" on="0"/>
        <pt x="383" y="956" on="1"/>
        <pt x="383" y="956" on="0"/>
        <pt x="383" y="957" on="1"/>
        <pt x="383" y="959" on="0"/>
        <pt x="380" y="959" on="1"/>
        <pt x="304" y="959" on="1"/>
        <pt x="301" y="959" on="0"/>
        <pt x="301" y="957" on="1"/>
        <pt x="301" y="943" on="1"/>
        <pt x="301" y="888" on="0"/>
        <pt x="339" y="850" on="1"/>
        <pt x="377" y="812" on="0"/>
        <pt x="432" y="812" on="1"/>
        <pt x="487" y="812" on="0"/>
        <pt x="525" y="851" on="1"/>
        <pt x="563" y="889" on="0"/>
        <pt x="563" y="943" on="1"/>
      </contour>
      <contour>
        <pt x="432" y="-12" on="1"/>
        <pt x="329" y="-12" on="0"/>
        <pt x="242" y="41" on="1"/>
        <pt x="154" y="93" on="0"/>
        <pt x="103" y="183" on="1"/>
        <pt x="52" y="273" on="0"/>
        <pt x="52" y="380" on="1"/>
        <pt x="52" y="486" on="0"/>
        <pt x="103" y="576" on="1"/>
        <pt x="154" y="666" on="0"/>
        <pt x="242" y="718" on="1"/>
        <pt x="329" y="770" on="0"/>
        <pt x="432" y="770" on="1"/>
        <pt x="468" y="770" on="0"/>
        <pt x="502" y="764" on="1"/>
        <pt x="502" y="603" on="1"/>
        <pt x="468" y="614" on="0"/>
        <pt x="432" y="614" on="1"/>
        <pt x="336" y="614" on="0"/>
        <pt x="268" y="545" on="1"/>
        <pt x="200" y="476" on="0"/>
        <pt x="200" y="378" on="1"/>
        <pt x="200" y="279" on="0"/>
        <pt x="268" y="210" on="1"/>
        <pt x="336" y="140" on="0"/>
        <pt x="432" y="140" on="1"/>
        <pt x="441" y="140" on="0"/>
        <pt x="449" y="141" on="1"/>
        <pt x="452" y="141" on="0"/>
        <pt x="452" y="144" on="1"/>
        <pt x="452" y="310" on="1"/>
        <pt x="598" y="310" on="1"/>
        <pt x="598" y="-12" on="1"/>
        <pt x="450" y="-12" on="1"/>
        <pt x="450" y="-11" on="0"/>
        <pt x="449" y="-11" on="1"/>
        <pt x="446" y="-11" on="0"/>
        <pt x="441" y="-11" on="1"/>
        <pt x="435" y="-12" on="0"/>
      </contour>
      <contour>
        <pt x="432" y="610" on="1"/>
        <pt x="469" y="610" on="0"/>
        <pt x="504" y="598" on="1"/>
        <pt x="505" y="597" on="0"/>
        <pt x="505" y="597" on="1"/>
        <pt x="508" y="597" on="0"/>
        <pt x="508" y="600" on="1"/>
        <pt x="508" y="766" on="1"/>
        <pt x="508" y="768" on="0"/>
        <pt x="505" y="768" on="1"/>
        <pt x="469" y="776" on="0"/>
        <pt x="432" y="776" on="1"/>
        <pt x="328" y="776" on="0"/>
        <pt x="239" y="723" on="1"/>
        <pt x="150" y="670" on="0"/>
        <pt x="99" y="579" on="1"/>
        <pt x="48" y="487" on="0"/>
        <pt x="48" y="380" on="1"/>
        <pt x="48" y="272" on="0"/>
        <pt x="99" y="181" on="1"/>
        <pt x="150" y="89" on="0"/>
        <pt x="239" y="37" on="1"/>
        <pt x="327" y="-16" on="0"/>
        <pt x="432" y="-16" on="1"/>
        <pt x="440" y="-16" on="0"/>
        <pt x="448" y="-16" on="1"/>
        <pt x="448" y="-16" on="0"/>
        <pt x="449" y="-16" on="1"/>
        <pt x="601" y="-16" on="1"/>
        <pt x="604" y="-16" on="0"/>
        <pt x="604" y="-14" on="1"/>
        <pt x="604" y="313" on="1"/>
        <pt x="604" y="316" on="0"/>
        <pt x="601" y="316" on="1"/>
        <pt x="449" y="316" on="1"/>
        <pt x="446" y="316" on="0"/>
        <pt x="446" y="313" on="1"/>
        <pt x="446" y="146" on="1"/>
        <pt x="439" y="146" on="0"/>
        <pt x="432" y="146" on="1"/>
        <pt x="338" y="146" on="0"/>
        <pt x="272" y="214" on="1"/>
        <pt x="206" y="281" on="0"/>
        <pt x="206" y="378" on="1"/>
        <pt x="206" y="474" on="0"/>
        <pt x="272" y="542" on="1"/>
        <pt x="338" y="610" on="0"/>
      </contour>
    </TTGlyph>
    <TTGlyph name="Gbreve.2" xMin="50" yMin="-14" xMax="601" yMax="957">
      <component glyphName="Gbreve.0" x="50" y="-10" flags="0x4"/>
    </TTGlyph>
    <TTGlyph name="Gcircumflex" xMin="50" yMin="-4" xMax="601" yMax="1010">
      <component glyphName="uni0302" x="432" y="66" flags="0x1004"/>
      <component glyphName="G" x="0" y="0" flags="0x1204"/>
    </TTGlyph>
    <TTGlyph name="Gcircumflex.0" xMin="0" yMin="-4" xMax="551" yMax="1010">
      <contour>
        <pt x="282" y="842" on="1"/>
        <pt x="358" y="842" on="1"/>
        <pt x="386" y="950" on="1"/>
        <pt x="406" y="842" on="1"/>
        <pt x="482" y="842" on="1"/>
        <pt x="430" y="1010" on="1"/>
        <pt x="429" y="1010" on="1"/>
        <pt x="354" y="1010" on="1"/>
        <pt x="353" y="1010" on="1"/>
      </contour>
      <contour>
        <pt x="382" y="622" on="1"/>
        <pt x="420" y="622" on="0"/>
        <pt x="455" y="610" on="1"/>
        <pt x="455" y="776" on="1"/>
        <pt x="419" y="783" on="0"/>
        <pt x="382" y="783" on="1"/>
        <pt x="224" y="783" on="0"/>
        <pt x="112" y="668" on="1"/>
        <pt x="0" y="553" on="0"/>
        <pt x="0" y="390" on="1"/>
        <pt x="0" y="227" on="0"/>
        <pt x="112" y="112" on="1"/>
        <pt x="224" y="-4" on="0"/>
        <pt x="382" y="-4" on="1"/>
        <pt x="391" y="-4" on="0"/>
        <pt x="399" y="-4" on="1"/>
        <pt x="551" y="-4" on="1"/>
        <pt x="551" y="323" on="1"/>
        <pt x="399" y="323" on="1"/>
        <pt x="399" y="154" on="1"/>
        <pt x="391" y="153" on="0"/>
        <pt x="382" y="153" on="1"/>
        <pt x="287" y="153" on="0"/>
        <pt x="220" y="222" on="1"/>
        <pt x="153" y="290" on="0"/>
        <pt x="153" y="388" on="1"/>
        <pt x="153" y="485" on="0"/>
        <pt x="220" y="554" on="1"/>
        <pt x="287" y="622" on="0"/>
      </contour>
    </TTGlyph>
    <TTGlyph name="Gcircumflex.1" xMin="48" yMin="-16" xMax="604" yMax="1002">
      <contour>
        <pt x="438" y="940" on="1"/>
        <pt x="438" y="942" on="0"/>
        <pt x="436" y="942" on="1"/>
        <pt x="434" y="942" on="0"/>
        <pt x="433" y="940" on="1"/>
        <pt x="406" y="835" on="1"/>
        <pt x="335" y="835" on="1"/>
        <pt x="405" y="997" on="1"/>
        <pt x="478" y="997" on="1"/>
        <pt x="529" y="835" on="1"/>
        <pt x="459" y="835" on="1"/>
      </contour>
      <contour>
        <pt x="403" y="1002" on="1"/>
        <pt x="401" y="1002" on="0"/>
        <pt x="401" y="1000" on="1"/>
        <pt x="329" y="833" on="1"/>
        <pt x="329" y="833" on="0"/>
        <pt x="329" y="832" on="1"/>
        <pt x="329" y="830" on="0"/>
        <pt x="332" y="830" on="1"/>
        <pt x="408" y="830" on="1"/>
        <pt x="409" y="830" on="0"/>
        <pt x="410" y="832" on="1"/>
        <pt x="435" y="928" on="1"/>
        <pt x="454" y="832" on="1"/>
        <pt x="454" y="830" on="0"/>
        <pt x="456" y="830" on="1"/>
        <pt x="532" y="830" on="1"/>
        <pt x="535" y="830" on="0"/>
        <pt x="535" y="832" on="1"/>
        <pt x="535" y="833" on="0"/>
        <pt x="535" y="833" on="1"/>
        <pt x="482" y="1000" on="1"/>
        <pt x="481" y="1002" on="0"/>
        <pt x="480" y="1002" on="1"/>
      </contour>
      <contour>
        <pt x="432" y="-12" on="1"/>
        <pt x="329" y="-12" on="0"/>
        <pt x="242" y="41" on="1"/>
        <pt x="154" y="93" on="0"/>
        <pt x="103" y="183" on="1"/>
        <pt x="52" y="273" on="0"/>
        <pt x="52" y="380" on="1"/>
        <pt x="52" y="486" on="0"/>
        <pt x="103" y="576" on="1"/>
        <pt x="154" y="666" on="0"/>
        <pt x="242" y="718" on="1"/>
        <pt x="329" y="770" on="0"/>
        <pt x="432" y="770" on="1"/>
        <pt x="468" y="770" on="0"/>
        <pt x="502" y="764" on="1"/>
        <pt x="502" y="603" on="1"/>
        <pt x="468" y="614" on="0"/>
        <pt x="432" y="614" on="1"/>
        <pt x="336" y="614" on="0"/>
        <pt x="268" y="545" on="1"/>
        <pt x="200" y="476" on="0"/>
        <pt x="200" y="378" on="1"/>
        <pt x="200" y="279" on="0"/>
        <pt x="268" y="210" on="1"/>
        <pt x="336" y="140" on="0"/>
        <pt x="432" y="140" on="1"/>
        <pt x="441" y="140" on="0"/>
        <pt x="449" y="141" on="1"/>
        <pt x="452" y="141" on="0"/>
        <pt x="452" y="144" on="1"/>
        <pt x="452" y="310" on="1"/>
        <pt x="598" y="310" on="1"/>
        <pt x="598" y="-12" on="1"/>
        <pt x="450" y="-12" on="1"/>
        <pt x="450" y="-11" on="0"/>
        <pt x="449" y="-11" on="1"/>
        <pt x="446" y="-11" on="0"/>
        <pt x="441" y="-11" on="1"/>
        <pt x="435" y="-12" on="0"/>
      </contour>
      <contour>
        <pt x="432" y="610" on="1"/>
        <pt x="469" y="610" on="0"/>
        <pt x="504" y="598" on="1"/>
        <pt x="505" y="597" on="0"/>
        <pt x="505" y="597" on="1"/>
        <pt x="508" y="597" on="0"/>
        <pt x="508" y="600" on="1"/>
        <pt x="508" y="766" on="1"/>
        <pt x="508" y="768" on="0"/>
        <pt x="505" y="768" on="1"/>
        <pt x="469" y="776" on="0"/>
        <pt x="432" y="776" on="1"/>
        <pt x="328" y="776" on="0"/>
        <pt x="239" y="723" on="1"/>
        <pt x="150" y="670" on="0"/>
        <pt x="99" y="579" on="1"/>
        <pt x="48" y="487" on="0"/>
        <pt x="48" y="380" on="1"/>
        <pt x="48" y="272" on="0"/>
        <pt x="99" y="181" on="1"/>
        <pt x="150" y="89" on="0"/>
        <pt x="239" y="37" on="1"/>
        <pt x="327" y="-16" on="0"/>
        <pt x="432" y="-16" on="1"/>
        <pt x="440" y="-16" on="0"/>
        <pt x="448" y="-16" on="1"/>
        <pt x="448" y="-16" on="0"/>
        <pt x="449" y="-16" on="1"/>
        <pt x="601" y="-16" on="1"/>
        <pt x="604" y="-16" on="0"/>
        <pt x="604" y="-14" on="1"/>
        <pt x="604" y="313" on="1"/>
        <pt x="604" y="316" on="0"/>
        <pt x="601" y="316" on="1"/>
        <pt x="449" y="316" on="1"/>
        <pt x="446" y="316" on="0"/>
        <pt x="446" y="313" on="1"/>
        <pt x="446" y="146" on="1"/>
        <pt x="439" y="146" on="0"/>
        <pt x="432" y="146" on="1"/>
        <pt x="338" y="146" on="0"/>
        <pt x="272" y="214" on="1"/>
        <pt x="206" y="281" on="0"/>
        <pt x="206" y="378" on="1"/>
        <pt x="206" y="474" on="0"/>
        <pt x="272" y="542" on="1"/>
        <pt x="338" y="610" on="0"/>
      </contour>
    </TTGlyph>
    <TTGlyph name="Gcircumflex.2" xMin="50" yMin="-14" xMax="601" yMax="1000">
      <component glyphName="Gcircumflex.0" x="50" y="-10" flags="0x4"/>
    </TTGlyph>
    <TTGlyph name="Gdotaccent" xMin="50" yMin="-4" xMax="601" yMax="985">
      <component glyphName="uni0307" x="432" y="335" flags="0x1004"/>
      <component glyphName="G" x="0" y="0" flags="0x1204"/>
    </TTGlyph>
</ttFont>
